font.ufo
<glyph name="exclam" format="2">
	<unicode hex="0021"/>
	<advance width="291"/>
	<outline>
		<contour>
			<point x="145" y="-12" type="curve" smooth="yes"/>
			<point x="186" y="-12"/>
			<point x="219" y="20"/>
			<point x="219" y="61" type="curve" smooth="yes"/>
			<point x="219" y="102"/>
			<point x="186" y="135"/>
			<point x="145" y="135" type="curve" smooth="yes"/>
			<point x="105" y="135"/>
			<point x="72" y="102"/>
			<point x="72" y="61" type="curve" smooth="yes"/>
			<point x="72" y="20"/>
			<point x="105" y="-12"/>
		</contour>
		<contour>
			<point x="145" y="687" type="curve" smooth="yes"/>
			<point x="104" y="687"/>
			<point x="79" y="662"/>
			<point x="79" y="621" type="curve" smooth="yes"/>
			<point x="79" y="580"/>
			<point x="88" y="494"/>
			<point x="104" y="340" type="curve" smooth="yes"/>
			<point x="117" y="222" type="line"/>
			<point x="170" y="222" type="line"/>
			<point x="183" y="340" type="line" smooth="yes"/>
			<point x="199" y="494"/>
			<point x="208" y="580"/>
			<point x="208" y="621" type="curve" smooth="yes"/>
			<point x="208" y="662"/>
			<point x="185" y="687"/>
		</contour>
	</outline>
</glyph>
<glyph name="numbersign" format="2">
	<unicode hex="0023"/>
	<advance width="526"/>
	<outline>
		<contour>
			<point x="84" y="0" type="line"/>
			<point x="139" y="0" type="line"/>
			<point x="239" y="650" type="line"/>
			<point x="184" y="650" type="line"/>
		</contour>
		<contour>
			<point x="25" y="261" type="line"/>
			<point x="25" y="180" type="line"/>
			<point x="470" y="180" type="line"/>
			<point x="470" y="261" type="line"/>
		</contour>
		<contour>
			<point x="502" y="391" type="line"/>
			<point x="502" y="473" type="line"/>
			<point x="57" y="473" type="line"/>
			<point x="57" y="391" type="line"/>
		</contour>
		<contour>
			<point x="289" y="0" type="line"/>
			<point x="344" y="0" type="line"/>
			<point x="444" y="650" type="line"/>
			<point x="389" y="650" type="line"/>
		</contour>
	</outline>
</glyph>
<glyph name="dollar" format="2">
	<unicode hex="0024"/>
	<advance width="539"/>
	<outline>
		<contour>
			<point x="248" y="40" type="curve" smooth="yes"/>
			<point x="200" y="40"/>
			<point x="153" y="48"/>
			<point x="128" y="56" type="curve"/>
			<point x="177" y="24" type="line"/>
			<point x="161" y="113" type="line" smooth="yes"/>
			<point x="154" y="156"/>
			<point x="130" y="173"/>
			<point x="103" y="173" type="curve" smooth="yes"/>
			<point x="76" y="173"/>
			<point x="60" y="156"/>
			<point x="52" y="131" type="curve"/>
			<point x="69" y="44"/>
			<point x="145" y="-12"/>
			<point x="265" y="-12" type="curve" smooth="yes"/>
			<point x="401" y="-12"/>
			<point x="494" y="60"/>
			<point x="494" y="175" type="curve" smooth="yes"/>
			<point x="494" y="277"/>
			<point x="418" y="329"/>
			<point x="312" y="369" type="curve" smooth="yes"/>
			<point x="277" y="383" type="line" smooth="yes"/>
			<point x="201" y="412"/>
			<point x="162" y="450"/>
			<point x="162" y="505" type="curve" smooth="yes"/>
			<point x="162" y="561"/>
			<point x="201" y="607"/>
			<point x="289" y="607" type="curve" smooth="yes"/>
			<point x="329" y="607"/>
			<point x="370" y="599"/>
			<point x="394" y="591" type="curve"/>
			<point x="345" y="623" type="line"/>
			<point x="361" y="535" type="line" smooth="yes"/>
			<point x="369" y="491"/>
			<point x="393" y="475"/>
			<point x="420" y="475" type="curve" smooth="yes"/>
			<point x="446" y="475"/>
			<point x="462" y="491"/>
			<point x="470" y="516" type="curve"/>
			<point x="454" y="604"/>
			<point x="385" y="659"/>
			<point x="273" y="659" type="curve" smooth="yes"/>
			<point x="152" y="659"/>
			<point x="64" y="599"/>
			<point x="64" y="487" type="curve" smooth="yes"/>
			<point x="64" y="382"/>
			<point x="140" y="334"/>
			<point x="246" y="294" type="curve" smooth="yes"/>
			<point x="281" y="280" type="line" smooth="yes"/>
			<point x="368" y="247"/>
			<point x="396" y="212"/>
			<point x="396" y="154" type="curve" smooth="yes"/>
			<point x="396" y="94"/>
			<point x="352" y="40"/>
		</contour>
		<contour>
			<point x="303" y="322" type="line"/>
			<point x="303" y="759" type="line"/>
			<point x="252" y="759" type="line"/>
			<point x="253" y="322" type="line"/>
		</contour>
		<contour>
			<point x="252" y="-112" type="line"/>
			<point x="303" y="-112" type="line"/>
			<point x="302" y="322" type="line"/>
			<point x="252" y="322" type="line"/>
		</contour>
	</outline>
</glyph>
<glyph name="ampersand" format="2">
	<unicode hex="0026"/>
	<advance width="739"/>
	<outline>
		<contour>
			<point x="240" y="-12" type="curve" smooth="yes"/>
			<point x="343" y="-12"/>
			<point x="395" y="27"/>
			<point x="431" y="71" type="curve"/>
			<point x="459" y="71" type="line"/>
			<point x="448" y="120" type="line"/>
			<point x="397" y="81"/>
			<point x="346" y="57"/>
			<point x="275" y="57" type="curve" smooth="yes"/>
			<point x="172" y="57"/>
			<point x="124" y="113"/>
			<point x="124" y="196" type="curve" smooth="yes"/>
			<point x="124" y="272"/>
			<point x="171" y="327"/>
			<point x="226" y="367" type="curve"/>
			<point x="168" y="396" type="line"/>
			<point x="168" y="358" type="line"/>
			<point x="81" y="328"/>
			<point x="21" y="280"/>
			<point x="21" y="179" type="curve" smooth="yes"/>
			<point x="21" y="56"/>
			<point x="120" y="-12"/>
		</contour>
		<contour>
			<point x="491" y="113" type="line"/>
			<point x="579" y="193"/>
			<point x="611" y="281"/>
			<point x="627" y="396" type="curve"/>
			<point x="554" y="396" type="line"/>
			<point x="547" y="302"/>
			<point x="528" y="223"/>
			<point x="498" y="156" type="curve"/>
			<point x="474" y="156" type="line"/>
		</contour>
		<contour>
			<point x="581" y="367" type="line"/>
			<point x="607" y="367" type="line"/>
			<point x="699" y="367" type="line"/>
			<point x="699" y="431" type="line"/>
			<point x="470" y="431" type="line"/>
			<point x="470" y="367" type="line"/>
		</contour>
		<contour>
			<point x="598" y="-8" type="curve" smooth="yes"/>
			<point x="638" y="-8"/>
			<point x="671" y="-4"/>
			<point x="695" y="0" type="curve"/>
			<point x="695" y="57" type="line"/>
			<point x="538" y="65" type="line"/>
			<point x="599" y="34" type="line"/>
			<point x="517" y="122"/>
			<point x="404" y="246"/>
			<point x="354" y="299" type="curve" smooth="yes"/>
			<point x="322" y="334"/>
			<point x="290" y="368"/>
			<point x="258" y="402" type="curve" smooth="yes"/>
			<point x="205" y="459"/>
			<point x="181" y="496"/>
			<point x="181" y="544" type="curve" smooth="yes"/>
			<point x="181" y="603"/>
			<point x="216" y="635"/>
			<point x="271" y="635" type="curve" smooth="yes"/>
			<point x="323" y="635"/>
			<point x="354" y="607"/>
			<point x="354" y="555" type="curve" smooth="yes"/>
			<point x="354" y="488"/>
			<point x="308" y="440"/>
			<point x="237" y="392" type="curve"/>
			<point x="278" y="359" type="line"/>
			<point x="278" y="394" type="line"/>
			<point x="387" y="428"/>
			<point x="433" y="477"/>
			<point x="433" y="555" type="curve" smooth="yes"/>
			<point x="433" y="639"/>
			<point x="364" y="687"/>
			<point x="271" y="687" type="curve" smooth="yes"/>
			<point x="174" y="687"/>
			<point x="98" y="634"/>
			<point x="98" y="534" type="curve" smooth="yes"/>
			<point x="98" y="445"/>
			<point x="149" y="390"/>
			<point x="203" y="332" type="curve" smooth="yes"/>
			<point x="233" y="300"/>
			<point x="262" y="267"/>
			<point x="293" y="234" type="curve" smooth="yes"/>
			<point x="351" y="171"/>
			<point x="408" y="108"/>
			<point x="465" y="46" type="curve" smooth="yes"/>
			<point x="503" y="4"/>
			<point x="548" y="-8"/>
		</contour>
	</outline>
</glyph>
<glyph name="quotesingle" format="2">
	<unicode hex="0027"/>
	<advance width="183"/>
	<outline>
		<contour>
			<point x="92" y="743" type="curve" smooth="yes"/>
			<point x="57" y="743"/>
			<point x="36" y="723"/>
			<point x="36" y="682" type="curve" smooth="yes"/>
			<point x="36" y="634"/>
			<point x="48" y="552"/>
			<point x="56" y="491" type="curve" smooth="yes"/>
			<point x="65" y="430" type="line"/>
			<point x="118" y="430" type="line"/>
			<point x="127" y="491" type="line" smooth="yes"/>
			<point x="135" y="552"/>
			<point x="147" y="634"/>
			<point x="147" y="682" type="curve" smooth="yes"/>
			<point x="147" y="723"/>
			<point x="126" y="743"/>
		</contour>
	</outline>
</glyph>
<glyph name="parenleft" format="2">
	<unicode hex="0028"/>
	<advance width="348"/>
	<outline>
		<contour>
			<point x="176" y="280" type="curve" smooth="yes"/>
			<point x="176" y="440"/>
			<point x="220" y="567"/>
			<point x="323" y="718" type="curve"/>
			<point x="282" y="751" type="line"/>
			<point x="153" y="623"/>
			<point x="73" y="472"/>
			<point x="73" y="280" type="curve" smooth="yes"/>
			<point x="73" y="88"/>
			<point x="153" y="-63"/>
			<point x="282" y="-191" type="curve"/>
			<point x="323" y="-158" type="line"/>
			<point x="220" y="-7"/>
			<point x="176" y="120"/>
		</contour>
	</outline>
</glyph>
<glyph name="asterisk" format="2">
	<unicode hex="002A"/>
	<advance width="478"/>
	<outline>
		<contour>
			<point x="228" y="555" type="line"/>
			<point x="249" y="555" type="line"/>
			<point x="261" y="604" type="line" smooth="yes"/>
			<point x="272" y="646"/>
			<point x="281" y="683"/>
			<point x="281" y="708" type="curve" smooth="yes"/>
			<point x="281" y="734"/>
			<point x="264" y="751"/>
			<point x="238" y="751" type="curve" smooth="yes"/>
			<point x="213" y="751"/>
			<point x="196" y="734"/>
			<point x="196" y="708" type="curve" smooth="yes"/>
			<point x="196" y="683"/>
			<point x="205" y="646"/>
			<point x="216" y="604" type="curve" smooth="yes"/>
		</contour>
		<contour>
			<point x="205" y="524" type="line"/>
			<point x="212" y="543" type="line"/>
			<point x="169" y="570" type="line" smooth="yes"/>
			<point x="132" y="593"/>
			<point x="101" y="614"/>
			<point x="76" y="622" type="curve" smooth="yes"/>
			<point x="52" y="630"/>
			<point x="30" y="619"/>
			<point x="22" y="594" type="curve" smooth="yes"/>
			<point x="14" y="569"/>
			<point x="26" y="549"/>
			<point x="50" y="541" type="curve" smooth="yes"/>
			<point x="74" y="533"/>
			<point x="112" y="530"/>
			<point x="155" y="528" type="curve" smooth="yes"/>
		</contour>
		<contour>
			<point x="228" y="493" type="line"/>
			<point x="212" y="505" type="line"/>
			<point x="174" y="472" type="line" smooth="yes"/>
			<point x="139" y="445"/>
			<point x="110" y="420"/>
			<point x="95" y="400" type="curve" smooth="yes"/>
			<point x="81" y="380"/>
			<point x="84" y="355"/>
			<point x="105" y="340" type="curve" smooth="yes"/>
			<point x="126" y="325"/>
			<point x="149" y="330"/>
			<point x="164" y="350" type="curve" smooth="yes"/>
			<point x="179" y="370"/>
			<point x="193" y="405"/>
			<point x="209" y="446" type="curve" smooth="yes"/>
		</contour>
		<contour>
			<point x="265" y="505" type="line"/>
			<point x="248" y="493" type="line"/>
			<point x="268" y="446" type="line" smooth="yes"/>
			<point x="283" y="405"/>
			<point x="297" y="370"/>
			<point x="312" y="350" type="curve" smooth="yes"/>
			<point x="326" y="329"/>
			<point x="351" y="325"/>
			<point x="371" y="340" type="curve" smooth="yes"/>
			<point x="393" y="355"/>
			<point x="396" y="379"/>
			<point x="381" y="399" type="curve" smooth="yes"/>
			<point x="365" y="420"/>
			<point x="338" y="445"/>
			<point x="303" y="472" type="curve" smooth="yes"/>
		</contour>
		<contour>
			<point x="265" y="543" type="line"/>
			<point x="272" y="524" type="line"/>
			<point x="322" y="528" type="line" smooth="yes"/>
			<point x="365" y="530"/>
			<point x="403" y="532"/>
			<point x="427" y="540" type="curve" smooth="yes"/>
			<point x="451" y="548"/>
			<point x="463" y="569"/>
			<point x="455" y="594" type="curve" smooth="yes"/>
			<point x="446" y="619"/>
			<point x="425" y="629"/>
			<point x="400" y="621" type="curve" smooth="yes"/>
			<point x="376" y="613"/>
			<point x="345" y="593"/>
			<point x="308" y="570" type="curve" smooth="yes"/>
		</contour>
	</outline>
</glyph>
<glyph name="plus" format="2">
	<unicode hex="002B"/>
	<advance width="540"/>
	<outline>
		<contour>
			<point x="233" y="76" type="line"/>
			<point x="305" y="76" type="line"/>
			<point x="305" y="577" type="line"/>
			<point x="233" y="577" type="line"/>
		</contour>
		<contour>
			<point x="507" y="293" type="line"/>
			<point x="507" y="360" type="line"/>
			<point x="32" y="360" type="line"/>
			<point x="32" y="293" type="line"/>
		</contour>
	</outline>
</glyph>
<glyph name="comma" format="2">
	<unicode hex="002C"/>
	<advance width="305"/>
	<outline>
		<contour>
			<point x="226" y="26" type="curve" smooth="yes"/>
			<point x="226" y="58"/>
			<point x="222" y="90"/>
			<point x="214" y="115" type="curve"/>
			<point x="202" y="123"/>
			<point x="181" y="131"/>
			<point x="157" y="131" type="curve" smooth="yes"/>
			<point x="114" y="131"/>
			<point x="83" y="102"/>
			<point x="83" y="58" type="curve" smooth="yes"/>
			<point x="83" y="17"/>
			<point x="112" y="-5"/>
			<point x="140" y="-24" type="curve" smooth="yes"/>
			<point x="166" y="-40" type="line"/>
			<point x="153" y="-23" type="line"/>
			<point x="144" y="-87"/>
			<point x="100" y="-143"/>
			<point x="13" y="-186" type="curve"/>
			<point x="37" y="-223" type="line"/>
			<point x="149" y="-175"/>
			<point x="226" y="-96"/>
		</contour>
	</outline>
</glyph>
<glyph name="hyphen" format="2">
	<unicode hex="002D"/>
	<unicode hex="00AD"/>
	<unicode hex="2010"/>
	<advance width="330"/>
	<outline>
		<contour>
			<point x="40" y="227" type="line"/>
			<point x="290" y="227" type="line"/>
			<point x="290" y="308" type="line"/>
			<point x="40" y="308" type="line"/>
		</contour>
	</outline>
</glyph>
<glyph name="period" format="2">
	<unicode hex="002E"/>
	<advance width="305"/>
	<outline>
		<contour>
			<point x="153" y="-12" type="curve" smooth="yes"/>
			<point x="193" y="-12"/>
			<point x="226" y="21"/>
			<point x="226" y="61" type="curve" smooth="yes"/>
			<point x="226" y="102"/>
			<point x="193" y="135"/>
			<point x="153" y="135" type="curve" smooth="yes"/>
			<point x="112" y="135"/>
			<point x="79" y="102"/>
			<point x="79" y="61" type="curve" smooth="yes"/>
			<point x="79" y="21"/>
			<point x="112" y="-12"/>
		</contour>
	</outline>
</glyph>
<glyph name="slash" format="2">
	<unicode hex="002F"/>
	<advance width="353"/>
	<outline>
		<contour>
			<point x="8" y="-160" type="line"/>
			<point x="81" y="-160" type="line"/>
			<point x="345" y="710" type="line"/>
			<point x="273" y="710" type="line"/>
		</contour>
	</outline>
</glyph>
<glyph name="zero" format="2">
	<unicode hex="0030"/>
	<advance width="551"/>
	<outline>
		<contour>
			<point x="275" y="-12" type="curve" smooth="yes"/>
			<point x="412" y="-12"/>
			<point x="505" y="115"/>
			<point x="505" y="328" type="curve" smooth="yes"/>
			<point x="505" y="540"/>
			<point x="412" y="659"/>
			<point x="275" y="659" type="curve" smooth="yes"/>
			<point x="139" y="659"/>
			<point x="46" y="532"/>
			<point x="46" y="320" type="curve" smooth="yes"/>
			<point x="46" y="107"/>
			<point x="139" y="-12"/>
		</contour>
		<contour>
			<point x="275" y="52" type="curve" smooth="yes"/>
			<point x="192" y="52"/>
			<point x="157" y="155"/>
			<point x="157" y="324" type="curve" smooth="yes"/>
			<point x="157" y="492"/>
			<point x="192" y="595"/>
			<point x="275" y="595" type="curve" smooth="yes"/>
			<point x="358" y="595"/>
			<point x="393" y="492"/>
			<point x="393" y="324" type="curve" smooth="yes"/>
			<point x="393" y="155"/>
			<point x="358" y="52"/>
		</contour>
	</outline>
</glyph>
<glyph name="one" format="2">
	<unicode hex="0031"/>
	<advance width="551"/>
	<outline>
		<contour>
			<point x="94" y="0" type="line"/>
			<point x="469" y="0" type="line"/>
			<point x="469" y="65" type="line"/>
			<point x="309" y="65" type="line"/>
			<point x="262" y="65" type="line"/>
			<point x="94" y="65" type="line"/>
		</contour>
		<contour>
			<point x="229" y="0" type="curve"/>
			<point x="341" y="0" type="line"/>
			<point x="341" y="104"/>
			<point x="341" y="207"/>
			<point x="341" y="311" type="curve" smooth="yes"/>
			<point x="341" y="360" type="line"/>
			<point x="341" y="647" type="line"/>
			<point x="300" y="647" type="line"/>
			<point x="95" y="587" type="line"/>
			<point x="95" y="526" type="line"/>
			<point x="229" y="549" type="line"/>
			<point x="229" y="311" type="line" smooth="yes"/>
			<point x="229" y="207"/>
			<point x="229" y="104"/>
		</contour>
	</outline>
</glyph>
<glyph name="less" format="2">
	<unicode hex="003C"/>
	<advance width="540"/>
	<outline>
		<contour>
			<point x="59" y="299" type="line"/>
			<point x="441" y="81" type="line"/>
			<point x="476" y="141" type="line"/>
			<point x="103" y="342" type="line"/>
			<point x="103" y="311" type="line"/>
			<point x="476" y="512" type="line"/>
			<point x="441" y="572" type="line"/>
			<point x="59" y="354" type="line"/>
		</contour>
	</outline>
</glyph>
<glyph name="question" format="2">
	<unicode hex="003F"/>
	<advance width="412"/>
	<outline>
		<contour>
			<point x="152" y="-12" type="curve" smooth="yes"/>
			<point x="193" y="-12"/>
			<point x="226" y="20"/>
			<point x="226" y="61" type="curve" smooth="yes"/>
			<point x="226" y="102"/>
			<point x="193" y="135"/>
			<point x="152" y="135" type="curve" smooth="yes"/>
			<point x="112" y="135"/>
			<point x="79" y="102"/>
			<point x="79" y="61" type="curve" smooth="yes"/>
			<point x="79" y="20"/>
			<point x="112" y="-12"/>
		</contour>
		<contour>
			<point x="357" y="482" type="curve" smooth="yes"/>
			<point x="357" y="594"/>
			<point x="238" y="665"/>
			<point x="104" y="685" type="curve"/>
			<point x="84" y="677"/>
			<point x="63" y="657"/>
			<point x="63" y="628" type="curve" smooth="yes"/>
			<point x="63" y="600"/>
			<point x="84" y="575"/>
			<point x="133" y="575" type="curve" smooth="yes"/>
			<point x="285" y="575" type="line"/>
			<point x="238" y="611" type="line"/>
			<point x="269" y="576"/>
			<point x="284" y="547"/>
			<point x="284" y="507" type="curve" smooth="yes"/>
			<point x="284" y="460"/>
			<point x="261" y="437"/>
			<point x="197" y="405" type="curve" smooth="yes"/>
			<point x="181" y="397" type="line" smooth="yes"/>
			<point x="124" y="370"/>
			<point x="100" y="350"/>
			<point x="100" y="309" type="curve" smooth="yes"/>
			<point x="100" y="285"/>
			<point x="108" y="261"/>
			<point x="116" y="237" type="curve" smooth="yes"/>
			<point x="124" y="213" type="line"/>
			<point x="176" y="213" type="line"/>
			<point x="176" y="237" type="line" smooth="yes"/>
			<point x="177" y="291"/>
			<point x="192" y="307"/>
			<point x="232" y="327" type="curve" smooth="yes"/>
			<point x="240" y="330" type="line" smooth="yes"/>
			<point x="313" y="366"/>
			<point x="357" y="402"/>
		</contour>
	</outline>
</glyph>
<glyph name="at" format="2">
	<unicode hex="0040"/>
	<advance width="837"/>
	<outline>
		<contour>
			<point x="337" y="46" type="curve" smooth="yes"/>
			<point x="398" y="46"/>
			<point x="430" y="78"/>
			<point x="452" y="118" type="curve"/>
			<point x="486" y="118" type="line"/>
			<point x="486" y="171" type="line"/>
			<point x="447" y="136"/>
			<point x="415" y="112"/>
			<point x="375" y="112" type="curve" smooth="yes"/>
			<point x="328" y="112"/>
			<point x="304" y="140"/>
			<point x="304" y="196" type="curve" smooth="yes"/>
			<point x="304" y="295"/>
			<point x="375" y="422"/>
			<point x="458" y="422" type="curve" smooth="yes"/>
			<point x="494" y="422"/>
			<point x="518" y="406"/>
			<point x="534" y="375" type="curve"/>
			<point x="562" y="411" type="line"/>
			<point x="535" y="459"/>
			<point x="502" y="476"/>
			<point x="458" y="476" type="curve" smooth="yes"/>
			<point x="341" y="476"/>
			<point x="221" y="328"/>
			<point x="221" y="183" type="curve" smooth="yes"/>
			<point x="221" y="90"/>
			<point x="273" y="46"/>
		</contour>
		<contour>
			<point x="583" y="46" type="curve" smooth="yes"/>
			<point x="705" y="46"/>
			<point x="801" y="163"/>
			<point x="801" y="327" type="curve" smooth="yes"/>
			<point x="801" y="535"/>
			<point x="665" y="660"/>
			<point x="463" y="660" type="curve" smooth="yes"/>
			<point x="216" y="660"/>
			<point x="36" y="463"/>
			<point x="36" y="203" type="curve" smooth="yes"/>
			<point x="36" y="-37"/>
			<point x="195" y="-158"/>
			<point x="390" y="-158" type="curve" smooth="yes"/>
			<point x="470" y="-158"/>
			<point x="534" y="-142"/>
			<point x="590" y="-114" type="curve"/>
			<point x="570" y="-73" type="line"/>
			<point x="533" y="-89"/>
			<point x="470" y="-105"/>
			<point x="406" y="-105" type="curve" smooth="yes"/>
			<point x="247" y="-105"/>
			<point x="105" y="-4"/>
			<point x="105" y="211" type="curve" smooth="yes"/>
			<point x="105" y="423"/>
			<point x="253" y="607"/>
			<point x="459" y="607" type="curve" smooth="yes"/>
			<point x="629" y="607"/>
			<point x="737" y="495"/>
			<point x="737" y="323" type="curve" smooth="yes"/>
			<point x="737" y="187"/>
			<point x="677" y="99"/>
			<point x="601" y="99" type="curve" smooth="yes"/>
			<point x="561" y="99"/>
			<point x="541" y="120"/>
			<point x="553" y="184" type="curve" smooth="yes"/>
			<point x="609" y="471" type="line"/>
			<point x="567" y="471" type="line"/>
			<point x="517" y="407" type="line"/>
			<point x="465" y="139" type="line"/>
			<point x="474" y="139" type="line"/>
			<point x="474" y="86"/>
			<point x="511" y="46"/>
		</contour>
	</outline>
</glyph>
<glyph name="A" format="2">
	<unicode hex="0041"/>
	<advance width="759"/>
	<outline>
		<contour>
			<point x="20" y="0" type="line"/>
			<point x="271" y="0" type="line"/>
			<point x="271" y="65" type="line"/>
			<point x="148" y="65" type="line"/>
			<point x="124" y="65" type="line"/>
			<point x="20" y="65" type="line"/>
		</contour>
		<contour>
			<point x="79" y="0" type="line"/>
			<point x="152" y="0" type="line"/>
			<point x="342" y="557" type="line"/>
			<point x="358" y="557" type="line"/>
			<point x="552" y="0" type="line"/>
			<point x="673" y="0" type="line"/>
			<point x="427" y="675" type="line"/>
			<point x="320" y="675" type="line"/>
		</contour>
		<contour>
			<point x="199" y="207" type="line"/>
			<point x="511" y="207" type="line"/>
			<point x="511" y="267" type="line"/>
			<point x="199" y="267" type="line"/>
		</contour>
		<contour>
			<point x="426" y="0" type="line"/>
			<point x="740" y="0" type="line"/>
			<point x="740" y="65" type="line"/>
			<point x="602" y="65" type="line"/>
			<point x="565" y="65" type="line"/>
			<point x="426" y="65" type="line"/>
		</contour>
	</outline>
	<anchor name="aboveUC" x="374" y="699"/>
	<anchor name="belowLC" x="377" y="-24"/>
	<anchor name="ogonek" x="625" y="0"/>
</glyph>
<glyph name="B" format="2">
	<unicode hex="0042"/>
	<advance width="679"/>
	<outline>
		<contour>
			<point x="32" y="0" type="line"/>
			<point x="167" y="0" type="line"/>
			<point x="167" y="65" type="line"/>
			<point x="151" y="65" type="line"/>
			<point x="32" y="65" type="line"/>
		</contour>
		<contour>
			<point x="135" y="0" type="curve"/>
			<point x="247" y="0" type="line"/>
			<point x="247" y="104"/>
			<point x="247" y="207"/>
			<point x="247" y="311" type="curve" smooth="yes"/>
			<point x="247" y="360" type="line" smooth="yes"/>
			<point x="247" y="464"/>
			<point x="247" y="568"/>
			<point x="247" y="671" type="curve"/>
			<point x="135" y="671" type="line"/>
			<point x="135" y="568"/>
			<point x="135" y="464"/>
			<point x="135" y="360" type="curve" smooth="yes"/>
			<point x="135" y="311" type="line" smooth="yes"/>
			<point x="135" y="207"/>
			<point x="135" y="104"/>
		</contour>
		<contour>
			<point x="214" y="0" type="line"/>
			<point x="344" y="0" type="line" smooth="yes"/>
			<point x="523" y="0"/>
			<point x="635" y="68"/>
			<point x="635" y="192" type="curve" smooth="yes"/>
			<point x="635" y="304"/>
			<point x="523" y="340"/>
			<point x="374" y="340" type="curve"/>
			<point x="374" y="360" type="line"/>
			<point x="491" y="360"/>
			<point x="599" y="392"/>
			<point x="599" y="508" type="curve" smooth="yes"/>
			<point x="599" y="615"/>
			<point x="491" y="671"/>
			<point x="345" y="671" type="curve" smooth="yes"/>
			<point x="214" y="671" type="line"/>
			<point x="214" y="609" type="line"/>
			<point x="329" y="609" type="line" smooth="yes"/>
			<point x="432" y="609"/>
			<point x="487" y="574"/>
			<point x="487" y="495" type="curve" smooth="yes"/>
			<point x="487" y="416"/>
			<point x="432" y="378"/>
			<point x="329" y="378" type="curve" smooth="yes"/>
			<point x="193" y="378" type="line"/>
			<point x="193" y="317" type="line"/>
			<point x="337" y="317" type="line" smooth="yes"/>
			<point x="463" y="317"/>
			<point x="520" y="272"/>
			<point x="520" y="190" type="curve" smooth="yes"/>
			<point x="520" y="108"/>
			<point x="463" y="63"/>
			<point x="329" y="63" type="curve" smooth="yes"/>
			<point x="214" y="63" type="line"/>
		</contour>
		<contour>
			<point x="32" y="607" type="line"/>
			<point x="151" y="607" type="line"/>
			<point x="167" y="607" type="line"/>
			<point x="167" y="671" type="line"/>
			<point x="32" y="671" type="line"/>
		</contour>
	</outline>
	<anchor name="aboveUC" x="339" y="699"/>
	<anchor name="belowLC" x="339" y="-24"/>
</glyph>
<glyph name="C" format="2">
	<unicode hex="0043"/>
	<advance width="693"/>
	<outline>
		<contour>
			<point x="416" y="-16" type="curve" smooth="yes"/>
			<point x="528" y="-16"/>
			<point x="604" y="8"/>
			<point x="645" y="28" type="curve"/>
			<point x="649" y="184" type="line"/>
			<point x="584" y="184" type="line"/>
			<point x="551" y="36" type="line"/>
			<point x="624" y="36" type="line"/>
			<point x="624" y="100" type="line"/>
			<point x="579" y="72"/>
			<point x="512" y="49"/>
			<point x="422" y="49" type="curve" smooth="yes"/>
			<point x="271" y="49"/>
			<point x="164" y="148"/>
			<point x="164" y="336" type="curve" smooth="yes"/>
			<point x="164" y="523"/>
			<point x="279" y="623"/>
			<point x="426" y="623" type="curve" smooth="yes"/>
			<point x="505" y="623"/>
			<point x="568" y="599"/>
			<point x="612" y="571" type="curve"/>
			<point x="612" y="635" type="line"/>
			<point x="540" y="635" type="line"/>
			<point x="572" y="491" type="line"/>
			<point x="637" y="491" type="line"/>
			<point x="633" y="643" type="line"/>
			<point x="593" y="663"/>
			<point x="521" y="687"/>
			<point x="424" y="687" type="curve" smooth="yes"/>
			<point x="213" y="687"/>
			<point x="48" y="556"/>
			<point x="48" y="332" type="curve" smooth="yes"/>
			<point x="48" y="107"/>
			<point x="205" y="-16"/>
		</contour>
	</outline>
	<anchor name="aboveUC" x="424" y="699"/>
	<anchor name="belowLC" x="417" y="-24"/>
	<anchor name="baseLC" x="417" y="0"/>
</glyph>
<glyph name="D" format="2">
	<unicode hex="0044"/>
	<advance width="770"/>
	<outline>
		<contour>
			<point x="32" y="0" type="line"/>
			<point x="168" y="0" type="line"/>
			<point x="168" y="65" type="line"/>
			<point x="151" y="65" type="line"/>
			<point x="32" y="65" type="line"/>
		</contour>
		<contour>
			<point x="135" y="0" type="curve"/>
			<point x="247" y="0" type="line"/>
			<point x="247" y="104"/>
			<point x="247" y="207"/>
			<point x="247" y="311" type="curve" smooth="yes"/>
			<point x="247" y="360" type="line" smooth="yes"/>
			<point x="247" y="464"/>
			<point x="247" y="568"/>
			<point x="247" y="671" type="curve"/>
			<point x="135" y="671" type="line"/>
			<point x="135" y="568"/>
			<point x="135" y="464"/>
			<point x="135" y="360" type="curve" smooth="yes"/>
			<point x="135" y="311" type="line" smooth="yes"/>
			<point x="135" y="207"/>
			<point x="135" y="104"/>
		</contour>
		<contour>
			<point x="214" y="0" type="line"/>
			<point x="345" y="0" type="line" smooth="yes"/>
			<point x="578" y="0"/>
			<point x="722" y="128"/>
			<point x="722" y="345" type="curve" smooth="yes"/>
			<point x="722" y="563"/>
			<point x="578" y="671"/>
			<point x="361" y="671" type="curve" smooth="yes"/>
			<point x="214" y="671" type="line"/>
			<point x="214" y="609" type="line"/>
			<point x="352" y="609" type="line" smooth="yes"/>
			<point x="511" y="609"/>
			<point x="605" y="512"/>
			<point x="605" y="341" type="curve" smooth="yes"/>
			<point x="605" y="171"/>
			<point x="511" y="63"/>
			<point x="337" y="63" type="curve" smooth="yes"/>
			<point x="214" y="63" type="line"/>
		</contour>
		<contour>
			<point x="32" y="607" type="line"/>
			<point x="151" y="607" type="line"/>
			<point x="168" y="607" type="line"/>
			<point x="168" y="671" type="line"/>
			<point x="32" y="671" type="line"/>
		</contour>
	</outline>
	<anchor name="aboveUC" x="385" y="699"/>
	<anchor name="belowLC" x="385" y="-24"/>
</glyph>
<glyph name="E" format="2">
	<unicode hex="0045"/>
	<advance width="672"/>
	<outline>
		<contour>
			<point x="36" y="0" type="line"/>
			<point x="187" y="0" type="line"/>
			<point x="187" y="65" type="line"/>
			<point x="171" y="65" type="line"/>
			<point x="36" y="65" type="line"/>
		</contour>
		<contour>
			<point x="139" y="0" type="curve"/>
			<point x="251" y="0" type="line"/>
			<point x="251" y="104"/>
			<point x="251" y="207"/>
			<point x="251" y="311" type="curve" smooth="yes"/>
			<point x="251" y="360" type="line" smooth="yes"/>
			<point x="251" y="464"/>
			<point x="251" y="568"/>
			<point x="251" y="671" type="curve"/>
			<point x="139" y="671" type="line"/>
			<point x="139" y="568"/>
			<point x="139" y="464"/>
			<point x="139" y="360" type="curve" smooth="yes"/>
			<point x="139" y="311" type="line" smooth="yes"/>
			<point x="139" y="207"/>
			<point x="139" y="104"/>
		</contour>
		<contour>
			<point x="190" y="0" type="line"/>
			<point x="616" y="0" type="line"/>
			<point x="624" y="192" type="line"/>
			<point x="559" y="192" type="line"/>
			<point x="518" y="24" type="line"/>
			<point x="567" y="64" type="line"/>
			<point x="190" y="64" type="line"/>
		</contour>
		<contour>
			<point x="196" y="311" type="line"/>
			<point x="448" y="311" type="line"/>
			<point x="448" y="372" type="line"/>
			<point x="196" y="372" type="line"/>
		</contour>
		<contour>
			<point x="420" y="224" type="line"/>
			<point x="481" y="224" type="line"/>
			<point x="481" y="459" type="line"/>
			<point x="420" y="459" type="line"/>
			<point x="396" y="356" type="line"/>
			<point x="396" y="328" type="line"/>
		</contour>
		<contour>
			<point x="36" y="607" type="line"/>
			<point x="171" y="607" type="line"/>
			<point x="187" y="607" type="line"/>
			<point x="187" y="671" type="line"/>
			<point x="36" y="671" type="line"/>
		</contour>
		<contour>
			<point x="539" y="488" type="line"/>
			<point x="604" y="488" type="line"/>
			<point x="596" y="671" type="line"/>
			<point x="190" y="671" type="line"/>
			<point x="190" y="607" type="line"/>
			<point x="547" y="607" type="line"/>
			<point x="498" y="647" type="line"/>
		</contour>
	</outline>
	<anchor name="aboveUC" x="336" y="699"/>
	<anchor name="belowLC" x="336" y="-24"/>
	<anchor name="ogonek" x="535" y="0"/>
</glyph>
<glyph name="F" format="2">
	<unicode hex="0046"/>
	<advance width="644"/>
	<outline>
		<contour>
			<point x="36" y="0" type="line"/>
			<point x="370" y="0" type="line"/>
			<point x="370" y="65" type="line"/>
			<point x="219" y="65" type="line"/>
			<point x="171" y="65" type="line"/>
			<point x="36" y="65" type="line"/>
		</contour>
		<contour>
			<point x="139" y="0" type="curve"/>
			<point x="251" y="0" type="line"/>
			<point x="251" y="104"/>
			<point x="251" y="207"/>
			<point x="251" y="311" type="curve" smooth="yes"/>
			<point x="251" y="360" type="line" smooth="yes"/>
			<point x="251" y="464"/>
			<point x="251" y="566"/>
			<point x="251" y="669" type="curve"/>
			<point x="139" y="669" type="line"/>
			<point x="139" y="566"/>
			<point x="139" y="464"/>
			<point x="139" y="360" type="curve" smooth="yes"/>
			<point x="139" y="311" type="line" smooth="yes"/>
			<point x="139" y="207"/>
			<point x="139" y="104"/>
		</contour>
		<contour>
			<point x="196" y="307" type="line"/>
			<point x="448" y="307" type="line"/>
			<point x="448" y="368" type="line"/>
			<point x="196" y="368" type="line"/>
		</contour>
		<contour>
			<point x="420" y="220" type="line"/>
			<point x="481" y="220" type="line"/>
			<point x="481" y="455" type="line"/>
			<point x="420" y="455" type="line"/>
			<point x="396" y="352" type="line"/>
			<point x="396" y="324" type="line"/>
		</contour>
		<contour>
			<point x="36" y="605" type="line"/>
			<point x="171" y="605" type="line"/>
			<point x="187" y="605" type="line"/>
			<point x="187" y="669" type="line"/>
			<point x="36" y="669" type="line"/>
		</contour>
		<contour>
			<point x="539" y="488" type="line"/>
			<point x="604" y="488" type="line"/>
			<point x="596" y="669" type="line"/>
			<point x="190" y="669" type="line"/>
			<point x="190" y="605" type="line"/>
			<point x="547" y="605" type="line"/>
			<point x="498" y="645" type="line"/>
		</contour>
	</outline>
	<anchor name="aboveUC" x="322" y="689"/>
	<anchor name="belowLC" x="196" y="-20"/>
</glyph>
<glyph name="G" format="2">
	<unicode hex="0047"/>
	<advance width="765"/>
	<outline>
		<contour>
			<point x="417" y="-16" type="curve" smooth="yes"/>
			<point x="517" y="-16"/>
			<point x="601" y="8"/>
			<point x="661" y="36" type="curve"/>
			<point x="661" y="88" type="line" smooth="yes"/>
			<point x="661" y="163"/>
			<point x="661" y="241"/>
			<point x="661" y="320" type="curve"/>
			<point x="551" y="320" type="line"/>
			<point x="551" y="241"/>
			<point x="551" y="163"/>
			<point x="551" y="88" type="curve" smooth="yes"/>
			<point x="551" y="35" type="line"/>
			<point x="588" y="85" type="line"/>
			<point x="548" y="65"/>
			<point x="501" y="49"/>
			<point x="430" y="49" type="curve" smooth="yes"/>
			<point x="271" y="49"/>
			<point x="164" y="148"/>
			<point x="164" y="336" type="curve" smooth="yes"/>
			<point x="164" y="523"/>
			<point x="283" y="621"/>
			<point x="426" y="621" type="curve" smooth="yes"/>
			<point x="509" y="621"/>
			<point x="580" y="597"/>
			<point x="624" y="569" type="curve"/>
			<point x="624" y="633" type="line"/>
			<point x="552" y="633" type="line"/>
			<point x="584" y="491" type="line"/>
			<point x="649" y="491" type="line"/>
			<point x="645" y="641" type="line"/>
			<point x="605" y="661"/>
			<point x="525" y="685"/>
			<point x="425" y="685" type="curve" smooth="yes"/>
			<point x="217" y="685"/>
			<point x="48" y="556"/>
			<point x="48" y="332" type="curve" smooth="yes"/>
			<point x="48" y="107"/>
			<point x="204" y="-16"/>
		</contour>
		<contour>
			<point x="442" y="260" type="line"/>
			<point x="590" y="260" type="line"/>
			<point x="629" y="260" type="line"/>
			<point x="733" y="260" type="line"/>
			<point x="733" y="320" type="line"/>
			<point x="442" y="320" type="line"/>
		</contour>
	</outline>
	<anchor name="aboveUC" x="425" y="689"/>
	<anchor name="belowLC" x="423" y="-20"/>
</glyph>
<glyph name="I" format="2">
	<unicode hex="0049"/>
	<advance width="382"/>
	<outline>
		<contour>
			<point x="32" y="0" type="line"/>
			<point x="350" y="0" type="line"/>
			<point x="350" y="65" type="line"/>
			<point x="214" y="65" type="line"/>
			<point x="167" y="65" type="line"/>
			<point x="32" y="65" type="line"/>
		</contour>
		<contour>
			<point x="135" y="0" type="curve"/>
			<point x="247" y="0" type="line"/>
			<point x="247" y="104"/>
			<point x="247" y="207"/>
			<point x="247" y="311" type="curve" smooth="yes"/>
			<point x="247" y="360" type="line" smooth="yes"/>
			<point x="247" y="464"/>
			<point x="247" y="566"/>
			<point x="247" y="669" type="curve"/>
			<point x="135" y="669" type="line"/>
			<point x="135" y="566"/>
			<point x="135" y="464"/>
			<point x="135" y="360" type="curve" smooth="yes"/>
			<point x="135" y="311" type="line" smooth="yes"/>
			<point x="135" y="207"/>
			<point x="135" y="104"/>
		</contour>
		<contour>
			<point x="32" y="605" type="line"/>
			<point x="167" y="605" type="line"/>
			<point x="214" y="605" type="line"/>
			<point x="350" y="605" type="line"/>
			<point x="350" y="669" type="line"/>
			<point x="32" y="669" type="line"/>
		</contour>
	</outline>
	<anchor name="aboveUC" x="191" y="689"/>
	<anchor name="belowLC" x="191" y="-20"/>
	<anchor name="ogonek" x="232" y="0"/>
</glyph>
<glyph name="J" format="2">
	<unicode hex="004A"/>
	<advance width="370"/>
	<outline>
		<contour>
			<point x="44" y="-166" type="curve" smooth="yes"/>
			<point x="109" y="-166"/>
			<point x="151" y="-140"/>
			<point x="182" y="-105" type="curve" smooth="yes"/>
			<point x="210" y="-73"/>
			<point x="243" y="-20"/>
			<point x="243" y="106" type="curve" smooth="yes"/>
			<point x="243" y="360" type="line" smooth="yes"/>
			<point x="243" y="464"/>
			<point x="243" y="567"/>
			<point x="243" y="671" type="curve"/>
			<point x="131" y="671" type="line"/>
			<point x="131" y="452"/>
			<point x="131" y="231"/>
			<point x="131" y="12" type="curve" smooth="yes"/>
			<point x="131" y="-63"/>
			<point x="124" y="-96"/>
			<point x="116" y="-114" type="curve"/>
			<point x="95" y="-114" type="line"/>
			<point x="95" y="-126" type="line"/>
			<point x="113" y="-126" type="line"/>
			<point x="96" y="-101" type="line" smooth="yes"/>
			<point x="77" y="-76"/>
			<point x="54" y="-63"/>
			<point x="20" y="-63" type="curve" smooth="yes"/>
			<point x="-20" y="-63"/>
			<point x="-44" y="-88"/>
			<point x="-50" y="-116" type="curve"/>
			<point x="-42" y="-137"/>
			<point x="-18" y="-166"/>
		</contour>
		<contour>
			<point x="12" y="607" type="line"/>
			<point x="163" y="607" type="line"/>
			<point x="210" y="607" type="line"/>
			<point x="346" y="607" type="line"/>
			<point x="346" y="671" type="line"/>
			<point x="12" y="671" type="line"/>
		</contour>
	</outline>
	<anchor name="aboveUC" x="185" y="699"/>
	<anchor name="belowLC" x="94" y="-157"/>
</glyph>
<glyph name="K" format="2">
	<unicode hex="004B"/>
	<advance width="754"/>
	<outline>
		<contour>
			<point x="135" y="0" type="curve"/>
			<point x="247" y="0" type="line"/>
			<point x="247" y="104"/>
			<point x="247" y="207"/>
			<point x="247" y="291" type="curve" smooth="yes"/>
			<point x="247" y="360" type="line" smooth="yes"/>
			<point x="247" y="464"/>
			<point x="247" y="566"/>
			<point x="247" y="669" type="curve"/>
			<point x="135" y="669" type="line"/>
			<point x="135" y="566"/>
			<point x="135" y="464"/>
			<point x="135" y="360" type="curve" smooth="yes"/>
			<point x="135" y="311" type="line" smooth="yes"/>
			<point x="135" y="207"/>
			<point x="135" y="104"/>
		</contour>
		<contour>
			<point x="32" y="0" type="line"/>
			<point x="345" y="0" type="line"/>
			<point x="345" y="65" type="line"/>
			<point x="214" y="65" type="line"/>
			<point x="167" y="65" type="line"/>
			<point x="32" y="65" type="line"/>
		</contour>
		<contour>
			<point x="32" y="605" type="line"/>
			<point x="167" y="605" type="line"/>
			<point x="214" y="605" type="line"/>
			<point x="346" y="605" type="line"/>
			<point x="346" y="669" type="line"/>
			<point x="32" y="669" type="line"/>
		</contour>
		<contour>
			<point x="440" y="0" type="line"/>
			<point x="734" y="0" type="line"/>
			<point x="734" y="65" type="line"/>
			<point x="606" y="65" type="line"/>
			<point x="566" y="65" type="line"/>
			<point x="440" y="65" type="line"/>
		</contour>
		<contour>
			<point x="445" y="605" type="line"/>
			<point x="549" y="605" type="line"/>
			<point x="590" y="605" type="line"/>
			<point x="714" y="605" type="line"/>
			<point x="714" y="669" type="line"/>
			<point x="445" y="669" type="line"/>
		</contour>
		<contour>
			<point x="214" y="188" type="line"/>
			<point x="683" y="669" type="line"/>
			<point x="590" y="669" type="line"/>
			<point x="263" y="312" type="line"/>
			<point x="214" y="312" type="line"/>
		</contour>
		<contour>
			<point x="565" y="0" type="line"/>
			<point x="692" y="0" type="line"/>
			<point x="408" y="437" type="line"/>
			<point x="333" y="358" type="line"/>
		</contour>
	</outline>
	<anchor name="aboveUC" x="377" y="689"/>
	<anchor name="belowLC" x="377" y="-20"/>
</glyph>
<glyph name="L" format="2">
	<unicode hex="004C"/>
	<advance width="640"/>
	<outline>
		<contour>
			<point x="36" y="0" type="line"/>
			<point x="187" y="0" type="line"/>
			<point x="187" y="65" type="line"/>
			<point x="171" y="65" type="line"/>
			<point x="36" y="65" type="line"/>
		</contour>
		<contour>
			<point x="139" y="0" type="curve"/>
			<point x="251" y="0" type="line"/>
			<point x="251" y="104"/>
			<point x="251" y="207"/>
			<point x="251" y="311" type="curve" smooth="yes"/>
			<point x="251" y="360" type="line" smooth="yes"/>
			<point x="251" y="464"/>
			<point x="251" y="566"/>
			<point x="251" y="669" type="curve"/>
			<point x="139" y="669" type="line"/>
			<point x="139" y="566"/>
			<point x="139" y="464"/>
			<point x="139" y="360" type="curve" smooth="yes"/>
			<point x="139" y="311" type="line" smooth="yes"/>
			<point x="139" y="207"/>
			<point x="139" y="104"/>
		</contour>
		<contour>
			<point x="190" y="0" type="line"/>
			<point x="600" y="0" type="line"/>
			<point x="608" y="208" type="line"/>
			<point x="543" y="208" type="line"/>
			<point x="503" y="24" type="line"/>
			<point x="551" y="64" type="line"/>
			<point x="190" y="64" type="line"/>
		</contour>
		<contour>
			<point x="36" y="605" type="line"/>
			<point x="171" y="605" type="line"/>
			<point x="219" y="605" type="line"/>
			<point x="370" y="605" type="line"/>
			<point x="370" y="669" type="line"/>
			<point x="36" y="669" type="line"/>
		</contour>
	</outline>
	<anchor name="aboveUC" x="205" y="689"/>
	<anchor name="belowLC" x="320" y="-20"/>
</glyph>
<glyph name="M" format="2">
	<unicode hex="004D"/>
	<advance width="967"/>
	<outline>
		<contour>
			<point x="32" y="0" type="line"/>
			<point x="310" y="0" type="line"/>
			<point x="310" y="65" type="line"/>
			<point x="187" y="65" type="line"/>
			<point x="151" y="65" type="line"/>
			<point x="32" y="65" type="line"/>
		</contour>
		<contour>
			<point x="32" y="605" type="line"/>
			<point x="151" y="605" type="line"/>
			<point x="167" y="605" type="line"/>
			<point x="167" y="669" type="line"/>
			<point x="32" y="669" type="line"/>
		</contour>
		<contour>
			<point x="135" y="0" type="line"/>
			<point x="203" y="0" type="line"/>
			<point x="203" y="357" type="line"/>
			<point x="195" y="669" type="line"/>
			<point x="135" y="669" type="line"/>
		</contour>
		<contour>
			<point x="417" y="0" type="line"/>
			<point x="499" y="0" type="line"/>
			<point x="709" y="547" type="line"/>
			<point x="749" y="547" type="line"/>
			<point x="749" y="669" type="line"/>
			<point x="692" y="669" type="line"/>
			<point x="488" y="125" type="line"/>
			<point x="474" y="125" type="line"/>
			<point x="268" y="669" type="line"/>
			<point x="184" y="669" type="line"/>
			<point x="184" y="525" type="line"/>
			<point x="214" y="525" type="line"/>
		</contour>
		<contour>
			<point x="614" y="0" type="line"/>
			<point x="935" y="0" type="line"/>
			<point x="935" y="65" type="line"/>
			<point x="816" y="65" type="line"/>
			<point x="736" y="65" type="line"/>
			<point x="614" y="65" type="line"/>
		</contour>
		<contour>
			<point x="720" y="0" type="curve"/>
			<point x="832" y="0" type="line"/>
			<point x="832" y="104"/>
			<point x="832" y="207"/>
			<point x="832" y="311" type="curve" smooth="yes"/>
			<point x="832" y="360" type="line" smooth="yes"/>
			<point x="832" y="464"/>
			<point x="832" y="566"/>
			<point x="832" y="669" type="curve"/>
			<point x="728" y="669" type="line"/>
			<point x="720" y="357" type="line" smooth="yes"/>
			<point x="720" y="238"/>
			<point x="720" y="119"/>
		</contour>
		<contour>
			<point x="800" y="605" type="line"/>
			<point x="816" y="605" type="line"/>
			<point x="935" y="605" type="line"/>
			<point x="935" y="669" type="line"/>
			<point x="800" y="669" type="line"/>
		</contour>
	</outline>
	<anchor name="aboveUC" x="484" y="689"/>
	<anchor name="belowLC" x="484" y="-20"/>
</glyph>
<glyph name="N" format="2">
	<unicode hex="004E"/>
	<advance width="798"/>
	<outline>
		<contour>
			<point x="36" y="0" type="line"/>
			<point x="315" y="0" type="line"/>
			<point x="315" y="65" type="line"/>
			<point x="191" y="65" type="line"/>
			<point x="155" y="65" type="line"/>
			<point x="36" y="65" type="line"/>
		</contour>
		<contour>
			<point x="139" y="0" type="line"/>
			<point x="207" y="0" type="line"/>
			<point x="199" y="645" type="line"/>
			<point x="139" y="645" type="line"/>
		</contour>
		<contour>
			<point x="495" y="605" type="line"/>
			<point x="618" y="605" type="line"/>
			<point x="655" y="605" type="line"/>
			<point x="770" y="605" type="line"/>
			<point x="770" y="669" type="line"/>
			<point x="495" y="669" type="line"/>
		</contour>
		<contour>
			<point x="604" y="-8" type="line"/>
			<point x="671" y="-8" type="line"/>
			<point x="671" y="669" type="line"/>
			<point x="602" y="669" type="line"/>
			<point x="610" y="183" type="line"/>
			<point x="594" y="183" type="line"/>
			<point x="247" y="669" type="line"/>
			<point x="36" y="669" type="line"/>
			<point x="36" y="605" type="line"/>
			<point x="139" y="605" type="line"/>
			<point x="186" y="524" type="line"/>
			<point x="216" y="524" type="line"/>
		</contour>
	</outline>
	<anchor name="aboveUC" x="399" y="689"/>
	<anchor name="belowLC" x="399" y="-20"/>
</glyph>
<glyph name="O" format="2">
	<unicode hex="004F"/>
	<advance width="769"/>
	<outline>
		<contour>
			<point x="385" y="-16" type="curve" smooth="yes"/>
			<point x="584" y="-16"/>
			<point x="721" y="127"/>
			<point x="721" y="340" type="curve" smooth="yes"/>
			<point x="721" y="552"/>
			<point x="584" y="685"/>
			<point x="385" y="685" type="curve" smooth="yes"/>
			<point x="185" y="685"/>
			<point x="48" y="545"/>
			<point x="48" y="332" type="curve" smooth="yes"/>
			<point x="48" y="119"/>
			<point x="185" y="-16"/>
		</contour>
		<contour>
			<point x="385" y="49" type="curve" smooth="yes"/>
			<point x="239" y="49"/>
			<point x="164" y="172"/>
			<point x="164" y="336" type="curve" smooth="yes"/>
			<point x="164" y="500"/>
			<point x="239" y="621"/>
			<point x="385" y="621" type="curve" smooth="yes"/>
			<point x="530" y="621"/>
			<point x="605" y="499"/>
			<point x="605" y="336" type="curve" smooth="yes"/>
			<point x="605" y="172"/>
			<point x="530" y="49"/>
		</contour>
	</outline>
	<anchor name="aboveUC" x="385" y="689"/>
	<anchor name="belowLC" x="385" y="-20"/>
	<anchor name="ogonek" x="483" y="0"/>
	<anchor name="hornLC" x="562" y="595"/>
</glyph>
<glyph name="P" format="2">
	<unicode hex="0050"/>
	<advance width="655"/>
	<outline>
		<contour>
			<point x="32" y="0" type="line"/>
			<point x="366" y="0" type="line"/>
			<point x="366" y="65" type="line"/>
			<point x="214" y="65" type="line"/>
			<point x="167" y="65" type="line"/>
			<point x="32" y="65" type="line"/>
		</contour>
		<contour>
			<point x="135" y="0" type="curve"/>
			<point x="247" y="0" type="line"/>
			<point x="247" y="104"/>
			<point x="247" y="207"/>
			<point x="247" y="293" type="curve" smooth="yes"/>
			<point x="247" y="360" type="line" smooth="yes"/>
			<point x="247" y="464"/>
			<point x="247" y="568"/>
			<point x="247" y="671" type="curve"/>
			<point x="135" y="671" type="line"/>
			<point x="135" y="568"/>
			<point x="135" y="464"/>
			<point x="135" y="360" type="curve" smooth="yes"/>
			<point x="135" y="311" type="line" smooth="yes"/>
			<point x="135" y="207"/>
			<point x="135" y="104"/>
		</contour>
		<contour>
			<point x="198" y="259" type="line"/>
			<point x="306" y="259" type="line" smooth="yes"/>
			<point x="515" y="259"/>
			<point x="615" y="347"/>
			<point x="615" y="471" type="curve" smooth="yes"/>
			<point x="615" y="596"/>
			<point x="515" y="671"/>
			<point x="321" y="671" type="curve" smooth="yes"/>
			<point x="214" y="671" type="line"/>
			<point x="214" y="609" type="line"/>
			<point x="313" y="609" type="line" smooth="yes"/>
			<point x="447" y="609"/>
			<point x="500" y="563"/>
			<point x="500" y="467" type="curve" smooth="yes"/>
			<point x="500" y="372"/>
			<point x="447" y="320"/>
			<point x="298" y="320" type="curve" smooth="yes"/>
			<point x="198" y="320" type="line"/>
		</contour>
		<contour>
			<point x="32" y="607" type="line"/>
			<point x="151" y="607" type="line"/>
			<point x="167" y="607" type="line"/>
			<point x="167" y="671" type="line"/>
			<point x="32" y="671" type="line"/>
		</contour>
	</outline>
	<anchor name="aboveUC" x="327" y="699"/>
	<anchor name="belowLC" x="209" y="-24"/>
</glyph>
<glyph name="Q" format="2">
	<unicode hex="0051"/>
	<advance width="769"/>
	<outline>
		<contour>
			<point x="552" y="-220" type="curve" smooth="yes"/>
			<point x="616" y="-220"/>
			<point x="661" y="-203"/>
			<point x="689" y="-187" type="curve"/>
			<point x="676" y="-135" type="line"/>
			<point x="660" y="-139"/>
			<point x="632" y="-147"/>
			<point x="592" y="-147" type="curve" smooth="yes"/>
			<point x="494" y="-147"/>
			<point x="438" y="-95"/>
			<point x="438" y="17" type="curve"/>
			<point x="330" y="17" type="line"/>
			<point x="330" y="-7" type="line" smooth="yes"/>
			<point x="330" y="-136"/>
			<point x="411" y="-220"/>
		</contour>
		<component base="O"/>
	</outline>
	<anchor name="aboveUC" x="384" y="699"/>
</glyph>
<glyph name="R" format="2">
	<unicode hex="0052"/>
	<advance width="731"/>
	<outline>
		<contour>
			<point x="32" y="0" type="line"/>
			<point x="350" y="0" type="line"/>
			<point x="350" y="65" type="line"/>
			<point x="214" y="65" type="line"/>
			<point x="167" y="65" type="line"/>
			<point x="32" y="65" type="line"/>
		</contour>
		<contour>
			<point x="135" y="0" type="curve"/>
			<point x="247" y="0" type="line"/>
			<point x="247" y="104"/>
			<point x="247" y="208"/>
			<point x="247" y="312" type="curve" smooth="yes"/>
			<point x="247" y="350" type="line" smooth="yes"/>
			<point x="247" y="457"/>
			<point x="247" y="563"/>
			<point x="247" y="669" type="curve"/>
			<point x="135" y="669" type="line"/>
			<point x="135" y="566"/>
			<point x="135" y="464"/>
			<point x="135" y="360" type="curve" smooth="yes"/>
			<point x="135" y="311" type="line" smooth="yes"/>
			<point x="135" y="208"/>
			<point x="135" y="104"/>
		</contour>
		<contour>
			<point x="621" y="-8" type="curve" smooth="yes"/>
			<point x="654" y="-8"/>
			<point x="686" y="-4"/>
			<point x="710" y="0" type="curve"/>
			<point x="710" y="61" type="line"/>
			<point x="580" y="69" type="line"/>
			<point x="623" y="32" type="line"/>
			<point x="568" y="207" type="line" smooth="yes"/>
			<point x="541" y="296"/>
			<point x="496" y="324"/>
			<point x="397" y="324" type="curve"/>
			<point x="397" y="344" type="line"/>
			<point x="511" y="348"/>
			<point x="619" y="392"/>
			<point x="619" y="498" type="curve" smooth="yes"/>
			<point x="619" y="604"/>
			<point x="526" y="669"/>
			<point x="357" y="669" type="curve" smooth="yes"/>
			<point x="214" y="669" type="line"/>
			<point x="214" y="607" type="line"/>
			<point x="341" y="607" type="line" smooth="yes"/>
			<point x="451" y="607"/>
			<point x="503" y="571"/>
			<point x="503" y="493" type="curve" smooth="yes"/>
			<point x="503" y="415"/>
			<point x="451" y="360"/>
			<point x="341" y="360" type="curve" smooth="yes"/>
			<point x="197" y="360" type="line"/>
			<point x="197" y="304" type="line"/>
			<point x="333" y="304" type="line" smooth="yes"/>
			<point x="405" y="304"/>
			<point x="433" y="280"/>
			<point x="456" y="201" type="curve" smooth="yes"/>
			<point x="489" y="85" type="line" smooth="yes"/>
			<point x="509" y="16"/>
			<point x="547" y="-8"/>
		</contour>
		<contour>
			<point x="32" y="605" type="line"/>
			<point x="151" y="605" type="line"/>
			<point x="167" y="605" type="line"/>
			<point x="167" y="669" type="line"/>
			<point x="32" y="669" type="line"/>
		</contour>
	</outline>
	<anchor name="aboveUC" x="365" y="689"/>
	<anchor name="belowLC" x="365" y="-20"/>
</glyph>
<glyph name="S" format="2">
	<unicode hex="0053"/>
	<advance width="578"/>
	<outline>
		<contour>
			<point x="261" y="-16" type="curve" smooth="yes"/>
			<point x="421" y="-16"/>
			<point x="523" y="60"/>
			<point x="523" y="179" type="curve" smooth="yes"/>
			<point x="523" y="301"/>
			<point x="431" y="345"/>
			<point x="318" y="390" type="curve" smooth="yes"/>
			<point x="283" y="403" type="line" smooth="yes"/>
			<point x="195" y="437"/>
			<point x="159" y="465"/>
			<point x="159" y="522" type="curve" smooth="yes"/>
			<point x="159" y="580"/>
			<point x="203" y="625"/>
			<point x="294" y="625" type="curve" smooth="yes"/>
			<point x="358" y="625"/>
			<point x="406" y="603"/>
			<point x="449" y="575" type="curve"/>
			<point x="449" y="639" type="line"/>
			<point x="385" y="639" type="line"/>
			<point x="417" y="491" type="line"/>
			<point x="482" y="491" type="line"/>
			<point x="482" y="640" type="line"/>
			<point x="454" y="660"/>
			<point x="382" y="687"/>
			<point x="293" y="687" type="curve" smooth="yes"/>
			<point x="153" y="687"/>
			<point x="52" y="619"/>
			<point x="52" y="504" type="curve" smooth="yes"/>
			<point x="52" y="386"/>
			<point x="144" y="342"/>
			<point x="256" y="297" type="curve" smooth="yes"/>
			<point x="292" y="284" type="line" smooth="yes"/>
			<point x="379" y="250"/>
			<point x="415" y="222"/>
			<point x="415" y="161" type="curve" smooth="yes"/>
			<point x="415" y="100"/>
			<point x="372" y="47"/>
			<point x="260" y="47" type="curve" smooth="yes"/>
			<point x="181" y="47"/>
			<point x="125" y="72"/>
			<point x="73" y="108" type="curve"/>
			<point x="73" y="44" type="line"/>
			<point x="138" y="44" type="line"/>
			<point x="105" y="192" type="line"/>
			<point x="40" y="192" type="line"/>
			<point x="40" y="36" type="line"/>
			<point x="77" y="15"/>
			<point x="157" y="-16"/>
		</contour>
	</outline>
	<anchor name="aboveUC" x="293" y="699"/>
	<anchor name="belowLC" x="265" y="-24"/>
	<anchor name="baseLC" x="265" y="0"/>
</glyph>
<glyph name="T" format="2">
	<unicode hex="0054"/>
	<advance width="663"/>
	<outline>
		<contour>
			<point x="160" y="0" type="line"/>
			<point x="502" y="0" type="line"/>
			<point x="502" y="65" type="line"/>
			<point x="355" y="65" type="line"/>
			<point x="308" y="65" type="line"/>
			<point x="160" y="65" type="line"/>
		</contour>
		<contour>
			<point x="275" y="0" type="curve"/>
			<point x="388" y="0" type="line"/>
			<point x="388" y="104"/>
			<point x="388" y="207"/>
			<point x="388" y="311" type="curve" smooth="yes"/>
			<point x="388" y="360" type="line" smooth="yes"/>
			<point x="388" y="464"/>
			<point x="388" y="566"/>
			<point x="388" y="669" type="curve"/>
			<point x="275" y="669" type="line"/>
			<point x="275" y="566"/>
			<point x="275" y="464"/>
			<point x="275" y="360" type="curve" smooth="yes"/>
			<point x="275" y="311" type="line" smooth="yes"/>
			<point x="275" y="207"/>
			<point x="275" y="104"/>
		</contour>
		<contour>
			<point x="20" y="479" type="line"/>
			<point x="85" y="479" type="line"/>
			<point x="126" y="645" type="line"/>
			<point x="77" y="605" type="line"/>
			<point x="586" y="605" type="line"/>
			<point x="537" y="645" type="line"/>
			<point x="577" y="479" type="line"/>
			<point x="642" y="479" type="line"/>
			<point x="634" y="669" type="line"/>
			<point x="28" y="669" type="line"/>
		</contour>
	</outline>
	<anchor name="aboveUC" x="331" y="689"/>
	<anchor name="belowLC" x="331" y="-20"/>
	<anchor name="baseLC" x="331" y="0"/>
</glyph>
<glyph name="U" format="2">
	<unicode hex="0055"/>
	<advance width="788"/>
	<outline>
		<contour>
			<point x="400" y="-16" type="curve" smooth="yes"/>
			<point x="569" y="-16"/>
			<point x="665" y="84"/>
			<point x="665" y="260" type="curve" smooth="yes"/>
			<point x="665" y="671" type="line"/>
			<point x="596" y="671" type="line"/>
			<point x="596" y="264" type="line" smooth="yes"/>
			<point x="596" y="116"/>
			<point x="529" y="49"/>
			<point x="418" y="49" type="curve" smooth="yes"/>
			<point x="307" y="49"/>
			<point x="239" y="116"/>
			<point x="239" y="264" type="curve" smooth="yes"/>
			<point x="239" y="360" type="line" smooth="yes"/>
			<point x="239" y="464"/>
			<point x="239" y="568"/>
			<point x="239" y="671" type="curve"/>
			<point x="127" y="671" type="line"/>
			<point x="127" y="568"/>
			<point x="127" y="464"/>
			<point x="127" y="360" type="curve" smooth="yes"/>
			<point x="127" y="248" type="line" smooth="yes"/>
			<point x="127" y="75"/>
			<point x="231" y="-16"/>
		</contour>
		<contour>
			<point x="24" y="607" type="line"/>
			<point x="144" y="607" type="line"/>
			<point x="222" y="607" type="line"/>
			<point x="350" y="607" type="line"/>
			<point x="350" y="671" type="line"/>
			<point x="24" y="671" type="line"/>
		</contour>
		<contour>
			<point x="485" y="607" type="line"/>
			<point x="613" y="607" type="line"/>
			<point x="648" y="607" type="line"/>
			<point x="764" y="607" type="line"/>
			<point x="764" y="671" type="line"/>
			<point x="485" y="671" type="line"/>
		</contour>
	</outline>
	<anchor name="aboveUC" x="402" y="699"/>
	<anchor name="belowLC" x="394" y="-24"/>
	<anchor name="ogonek" x="490" y="0"/>
	<anchor name="hornLC" x="633" y="679"/>
</glyph>
<glyph name="V" format="2">
	<unicode hex="0056"/>
	<advance width="744"/>
	<outline>
		<contour>
			<point x="317" y="-4" type="line"/>
			<point x="439" y="-4" type="line"/>
			<point x="673" y="671" type="line"/>
			<point x="600" y="671" type="line"/>
			<point x="413" y="96" type="line"/>
			<point x="392" y="96" type="line"/>
			<point x="199" y="671" type="line"/>
			<point x="79" y="671" type="line"/>
		</contour>
		<contour>
			<point x="12" y="607" type="line"/>
			<point x="128" y="607" type="line"/>
			<point x="194" y="607" type="line"/>
			<point x="330" y="607" type="line"/>
			<point x="330" y="671" type="line"/>
			<point x="12" y="671" type="line"/>
		</contour>
		<contour>
			<point x="477" y="607" type="line"/>
			<point x="596" y="607" type="line"/>
			<point x="628" y="607" type="line"/>
			<point x="732" y="607" type="line"/>
			<point x="732" y="671" type="line"/>
			<point x="477" y="671" type="line"/>
		</contour>
	</outline>
	<anchor name="aboveUC" x="380" y="699"/>
	<anchor name="belowLC" x="372" y="-24"/>
</glyph>
<glyph name="W" format="2">
	<unicode hex="0057"/>
	<advance width="1049"/>
	<outline>
		<contour>
			<point x="257" y="-4" type="line"/>
			<point x="385" y="-4" type="line"/>
			<point x="517" y="555" type="line"/>
			<point x="533" y="555" type="line"/>
			<point x="665" y="-4" type="line"/>
			<point x="793" y="-4" type="line"/>
			<point x="974" y="671" type="line"/>
			<point x="902" y="671" type="line"/>
			<point x="761" y="83" type="line"/>
			<point x="742" y="83" type="line"/>
			<point x="608" y="671" type="line"/>
			<point x="485" y="671" type="line"/>
			<point x="352" y="83" type="line"/>
			<point x="334" y="83" type="line"/>
			<point x="191" y="671" type="line"/>
			<point x="75" y="671" type="line"/>
		</contour>
		<contour>
			<point x="12" y="607" type="line"/>
			<point x="112" y="607" type="line"/>
			<point x="191" y="607" type="line"/>
			<point x="302" y="607" type="line"/>
			<point x="302" y="671" type="line"/>
			<point x="12" y="671" type="line"/>
		</contour>
		<contour>
			<point x="397" y="607" type="line"/>
			<point x="509" y="607" type="line"/>
			<point x="584" y="607" type="line"/>
			<point x="695" y="607" type="line"/>
			<point x="695" y="671" type="line"/>
			<point x="397" y="671" type="line"/>
		</contour>
		<contour>
			<point x="794" y="607" type="line"/>
			<point x="898" y="607" type="line"/>
			<point x="934" y="607" type="line"/>
			<point x="1037" y="607" type="line"/>
			<point x="1037" y="671" type="line"/>
			<point x="794" y="671" type="line"/>
		</contour>
	</outline>
	<anchor name="aboveUC" x="546" y="699"/>
	<anchor name="belowLC" x="525" y="-24"/>
</glyph>
<glyph name="X" format="2">
	<unicode hex="0058"/>
	<advance width="697"/>
	<outline>
		<contour>
			<point x="12" y="0" type="line"/>
			<point x="271" y="0" type="line"/>
			<point x="271" y="65" type="line"/>
			<point x="164" y="65" type="line"/>
			<point x="144" y="65" type="line"/>
			<point x="12" y="65" type="line"/>
		</contour>
		<contour>
			<point x="55" y="0" type="line"/>
			<point x="138" y="0" type="line"/>
			<point x="309" y="278" type="line"/>
			<point x="355" y="278" type="line"/>
			<point x="291" y="356" type="line"/>
		</contour>
		<contour>
			<point x="378" y="0" type="line"/>
			<point x="685" y="0" type="line"/>
			<point x="685" y="65" type="line"/>
			<point x="561" y="65" type="line"/>
			<point x="502" y="65" type="line"/>
			<point x="378" y="65" type="line"/>
		</contour>
		<contour>
			<point x="393" y="316" type="line"/>
			<point x="630" y="669" type="line"/>
			<point x="547" y="669" type="line"/>
			<point x="384" y="406" type="line"/>
			<point x="330" y="406" type="line"/>
		</contour>
		<contour>
			<point x="510" y="0" type="line"/>
			<point x="638" y="0" type="line"/>
			<point x="191" y="669" type="line"/>
			<point x="63" y="669" type="line"/>
		</contour>
		<contour>
			<point x="16" y="605" type="line"/>
			<point x="140" y="605" type="line"/>
			<point x="199" y="605" type="line"/>
			<point x="322" y="605" type="line"/>
			<point x="322" y="669" type="line"/>
			<point x="16" y="669" type="line"/>
		</contour>
		<contour>
			<point x="413" y="605" type="line"/>
			<point x="524" y="605" type="line"/>
			<point x="560" y="605" type="line"/>
			<point x="672" y="605" type="line"/>
			<point x="672" y="669" type="line"/>
			<point x="413" y="669" type="line"/>
		</contour>
	</outline>
	<anchor name="aboveUC" x="349" y="689"/>
	<anchor name="belowLC" x="349" y="-20"/>
</glyph>
<glyph name="Y" format="2">
	<unicode hex="0059"/>
	<advance width="700"/>
	<outline>
		<contour>
			<point x="179" y="0" type="line"/>
			<point x="521" y="0" type="line"/>
			<point x="521" y="65" type="line"/>
			<point x="374" y="65" type="line"/>
			<point x="327" y="65" type="line"/>
			<point x="179" y="65" type="line"/>
		</contour>
		<contour>
			<point x="294" y="0" type="curve"/>
			<point x="406" y="0" type="line"/>
			<point x="406" y="100"/>
			<point x="406" y="200"/>
			<point x="406" y="300" type="curve"/>
			<point x="294" y="300" type="line"/>
			<point x="294" y="200"/>
			<point x="294" y="100"/>
		</contour>
		<contour>
			<point x="308" y="201" type="line"/>
			<point x="392" y="201" type="line"/>
			<point x="638" y="671" type="line"/>
			<point x="557" y="671" type="line"/>
			<point x="387" y="321" type="line"/>
			<point x="365" y="321" type="line"/>
			<point x="192" y="671" type="line"/>
			<point x="63" y="671" type="line"/>
		</contour>
		<contour>
			<point x="12" y="607" type="line"/>
			<point x="116" y="607" type="line"/>
			<point x="199" y="607" type="line"/>
			<point x="319" y="607" type="line"/>
			<point x="319" y="671" type="line"/>
			<point x="12" y="671" type="line"/>
		</contour>
		<contour>
			<point x="429" y="607" type="line"/>
			<point x="541" y="607" type="line"/>
			<point x="588" y="607" type="line"/>
			<point x="688" y="607" type="line"/>
			<point x="688" y="671" type="line"/>
			<point x="429" y="671" type="line"/>
		</contour>
	</outline>
	<anchor name="aboveUC" x="359" y="699"/>
	<anchor name="belowLC" x="350" y="-24"/>
</glyph>
<glyph name="Z" format="2">
	<unicode hex="005A"/>
	<advance width="621"/>
	<outline>
		<contour>
			<point x="28" y="0" type="line"/>
			<point x="585" y="0" type="line"/>
			<point x="593" y="192" type="line"/>
			<point x="528" y="192" type="line"/>
			<point x="488" y="24" type="line"/>
			<point x="536" y="64" type="line"/>
			<point x="174" y="56" type="line"/>
			<point x="174" y="73" type="line"/>
			<point x="570" y="621" type="line"/>
			<point x="570" y="669" type="line"/>
			<point x="52" y="669" type="line"/>
			<point x="44" y="479" type="line"/>
			<point x="109" y="479" type="line"/>
			<point x="149" y="645" type="line"/>
			<point x="100" y="605" type="line"/>
			<point x="423" y="613" type="line"/>
			<point x="423" y="596" type="line"/>
			<point x="28" y="49" type="line"/>
		</contour>
	</outline>
	<anchor name="aboveUC" x="310" y="689"/>
	<anchor name="belowLC" x="310" y="-20"/>
</glyph>
<glyph name="bracketleft" format="2">
	<unicode hex="005B"/>
	<advance width="324"/>
	<outline>
		<contour>
			<point x="93" y="-160" type="curve"/>
			<point x="176" y="-160" type="line"/>
			<point x="176" y="-54"/>
			<point x="176" y="52"/>
			<point x="176" y="158" type="curve" smooth="yes"/>
			<point x="176" y="398" type="line" smooth="yes"/>
			<point x="176" y="504"/>
			<point x="176" y="610"/>
			<point x="176" y="716" type="curve"/>
			<point x="93" y="716" type="line"/>
			<point x="93" y="610"/>
			<point x="93" y="504"/>
			<point x="93" y="398" type="curve" smooth="yes"/>
			<point x="93" y="158" type="line" smooth="yes"/>
			<point x="93" y="52"/>
			<point x="93" y="-54"/>
		</contour>
		<contour>
			<point x="134" y="-160" type="line"/>
			<point x="291" y="-160" type="line"/>
			<point x="291" y="-95" type="line"/>
			<point x="150" y="-95" type="line"/>
			<point x="134" y="-95" type="line"/>
		</contour>
		<contour>
			<point x="134" y="651" type="line"/>
			<point x="150" y="651" type="line"/>
			<point x="291" y="651" type="line"/>
			<point x="291" y="716" type="line"/>
			<point x="134" y="716" type="line"/>
		</contour>
	</outline>
</glyph>
<glyph name="backslash" format="2">
	<unicode hex="005C"/>
	<advance width="353"/>
	<outline>
		<contour>
			<point x="345" y="-160" type="line"/>
			<point x="81" y="710" type="line"/>
			<point x="8" y="710" type="line"/>
			<point x="273" y="-160" type="line"/>
		</contour>
	</outline>
</glyph>
<glyph name="asciicircum" format="2">
	<unicode hex="005E"/>
	<advance width="540"/>
	<outline>
		<contour>
			<point x="67" y="216" type="line"/>
			<point x="130" y="184" type="line"/>
			<point x="297" y="477" type="line"/>
			<point x="241" y="477" type="line"/>
			<point x="408" y="184" type="line"/>
			<point x="472" y="216" type="line"/>
			<point x="303" y="501" type="line"/>
			<point x="236" y="501" type="line"/>
		</contour>
	</outline>
</glyph>
<glyph name="a" format="2">
	<unicode hex="0061"/>
	<advance width="574"/>
	<outline>
		<contour>
			<point x="189" y="-16" type="curve" smooth="yes"/>
			<point x="279" y="-16"/>
			<point x="319" y="40"/>
			<point x="339" y="84" type="curve"/>
			<point x="380" y="84" type="line"/>
			<point x="380" y="147" type="line"/>
			<point x="336" y="101"/>
			<point x="297" y="58"/>
			<point x="235" y="58" type="curve" smooth="yes"/>
			<point x="179" y="58"/>
			<point x="147" y="94"/>
			<point x="147" y="141" type="curve" smooth="yes"/>
			<point x="147" y="188"/>
			<point x="170" y="215"/>
			<point x="241" y="236" type="curve" smooth="yes"/>
			<point x="293" y="252"/>
			<point x="344" y="268"/>
			<point x="395" y="283" type="curve"/>
			<point x="395" y="329" type="line"/>
			<point x="333" y="313"/>
			<point x="272" y="297"/>
			<point x="209" y="280" type="curve" smooth="yes"/>
			<point x="103" y="252"/>
			<point x="47" y="208"/>
			<point x="47" y="120" type="curve" smooth="yes"/>
			<point x="47" y="32"/>
			<point x="111" y="-16"/>
		</contour>
		<contour>
			<point x="473" y="-12" type="curve" smooth="yes"/>
			<point x="517" y="-12"/>
			<point x="546" y="8"/>
			<point x="563" y="21" type="curve"/>
			<point x="551" y="70" type="line"/>
			<point x="541" y="66"/>
			<point x="527" y="62"/>
			<point x="511" y="62" type="curve" smooth="yes"/>
			<point x="479" y="62"/>
			<point x="463" y="78"/>
			<point x="463" y="117" type="curve" smooth="yes"/>
			<point x="463" y="348" type="line" smooth="yes"/>
			<point x="463" y="476"/>
			<point x="383" y="520"/>
			<point x="277" y="520" type="curve" smooth="yes"/>
			<point x="168" y="520"/>
			<point x="76" y="457"/>
			<point x="60" y="372" type="curve"/>
			<point x="64" y="351"/>
			<point x="80" y="328"/>
			<point x="117" y="328" type="curve" smooth="yes"/>
			<point x="153" y="328"/>
			<point x="174" y="348"/>
			<point x="178" y="397" type="curve" smooth="yes"/>
			<point x="185" y="493" type="line"/>
			<point x="157" y="444" type="line"/>
			<point x="180" y="456"/>
			<point x="209" y="464"/>
			<point x="248" y="464" type="curve" smooth="yes"/>
			<point x="323" y="464"/>
			<point x="363" y="428"/>
			<point x="363" y="341" type="curve" smooth="yes"/>
			<point x="363" y="107" type="line"/>
			<point x="367" y="107" type="line"/>
			<point x="372" y="24"/>
			<point x="412" y="-12"/>
		</contour>
	</outline>
	<anchor name="aboveLC" x="277" y="528"/>
	<anchor name="belowLC" x="287" y="-20"/>
	<anchor name="ogonek" x="503" y="0"/>
</glyph>
<glyph name="b" format="2">
	<unicode hex="0062"/>
	<advance width="661"/>
	<outline>
		<contour>
			<point x="47" y="0" type="line"/>
			<point x="218" y="-4" type="line"/>
			<point x="226" y="108" type="line"/>
			<point x="230" y="108" type="line"/>
			<point x="230" y="400" type="line"/>
			<point x="224" y="400" type="line"/>
			<point x="230" y="616" type="line"/>
			<point x="230" y="729" type="line"/>
			<point x="189" y="729" type="line"/>
			<point x="39" y="705" type="line"/>
			<point x="39" y="656" type="line"/>
			<point x="130" y="636" type="line"/>
			<point x="130" y="220" type="line" smooth="yes"/>
			<point x="130" y="171"/>
			<point x="130" y="121"/>
			<point x="130" y="72" type="curve"/>
			<point x="47" y="56" type="line"/>
		</contour>
		<contour>
			<point x="402" y="-12" type="curve" smooth="yes"/>
			<point x="522" y="-12"/>
			<point x="613" y="84"/>
			<point x="613" y="256" type="curve" smooth="yes"/>
			<point x="613" y="428"/>
			<point x="522" y="520"/>
			<point x="402" y="520" type="curve" smooth="yes"/>
			<point x="314" y="520"/>
			<point x="282" y="472"/>
			<point x="255" y="416" type="curve"/>
			<point x="198" y="416" type="line"/>
			<point x="198" y="329" type="line"/>
			<point x="253" y="403"/>
			<point x="297" y="446"/>
			<point x="367" y="446" type="curve" smooth="yes"/>
			<point x="446" y="446"/>
			<point x="505" y="387"/>
			<point x="505" y="252" type="curve" smooth="yes"/>
			<point x="505" y="117"/>
			<point x="446" y="58"/>
			<point x="367" y="58" type="curve" smooth="yes"/>
			<point x="297" y="58"/>
			<point x="253" y="101"/>
			<point x="198" y="175" type="curve"/>
			<point x="198" y="88" type="line"/>
			<point x="255" y="88" type="line"/>
			<point x="282" y="36"/>
			<point x="314" y="-12"/>
		</contour>
	</outline>
	<anchor name="aboveLC" x="178" y="739"/>
	<anchor name="belowLC" x="330" y="-20"/>
</glyph>
<glyph name="c" format="2">
	<unicode hex="0063"/>
	<advance width="552"/>
	<outline>
		<contour>
			<point x="300" y="-12" type="curve" smooth="yes"/>
			<point x="421" y="-12"/>
			<point x="475" y="45"/>
			<point x="510" y="92" type="curve"/>
			<point x="464" y="137" type="line"/>
			<point x="434" y="105"/>
			<point x="397" y="64"/>
			<point x="317" y="64" type="curve" smooth="yes"/>
			<point x="219" y="64"/>
			<point x="156" y="135"/>
			<point x="156" y="259" type="curve" smooth="yes"/>
			<point x="156" y="383"/>
			<point x="219" y="464"/>
			<point x="318" y="464" type="curve" smooth="yes"/>
			<point x="373" y="464"/>
			<point x="405" y="452"/>
			<point x="433" y="440" type="curve"/>
			<point x="364" y="504" type="line"/>
			<point x="395" y="408" type="line" smooth="yes"/>
			<point x="405" y="377"/>
			<point x="422" y="351"/>
			<point x="458" y="351" type="curve" smooth="yes"/>
			<point x="493" y="351"/>
			<point x="509" y="375"/>
			<point x="513" y="408" type="curve"/>
			<point x="493" y="464"/>
			<point x="429" y="520"/>
			<point x="301" y="520" type="curve" smooth="yes"/>
			<point x="152" y="520"/>
			<point x="48" y="404"/>
			<point x="48" y="248" type="curve" smooth="yes"/>
			<point x="48" y="92"/>
			<point x="144" y="-12"/>
		</contour>
	</outline>
	<anchor name="aboveLC" x="304" y="544"/>
	<anchor name="belowLC" x="309" y="-24"/>
	<anchor name="baseLC" x="312" y="0"/>
</glyph>
<glyph name="d" format="2">
	<unicode hex="0064"/>
	<advance width="661"/>
	<outline>
		<contour>
			<point x="259" y="-12" type="curve" smooth="yes"/>
			<point x="347" y="-12"/>
			<point x="379" y="36"/>
			<point x="406" y="92" type="curve"/>
			<point x="463" y="92" type="line"/>
			<point x="463" y="180" type="line"/>
			<point x="408" y="106"/>
			<point x="365" y="62"/>
			<point x="294" y="62" type="curve" smooth="yes"/>
			<point x="215" y="62"/>
			<point x="156" y="121"/>
			<point x="156" y="256" type="curve" smooth="yes"/>
			<point x="156" y="391"/>
			<point x="215" y="450"/>
			<point x="294" y="450" type="curve" smooth="yes"/>
			<point x="365" y="450"/>
			<point x="408" y="407"/>
			<point x="463" y="332" type="curve"/>
			<point x="463" y="420" type="line"/>
			<point x="406" y="420" type="line"/>
			<point x="379" y="472"/>
			<point x="347" y="520"/>
			<point x="259" y="520" type="curve" smooth="yes"/>
			<point x="139" y="520"/>
			<point x="48" y="424"/>
			<point x="48" y="252" type="curve" smooth="yes"/>
			<point x="48" y="80"/>
			<point x="139" y="-12"/>
		</contour>
		<contour>
			<point x="443" y="-4" type="line"/>
			<point x="614" y="0" type="line"/>
			<point x="614" y="56" type="line"/>
			<point x="531" y="72" type="line"/>
			<point x="531" y="626" type="line"/>
			<point x="531" y="739" type="line"/>
			<point x="490" y="739" type="line"/>
			<point x="340" y="715" type="line"/>
			<point x="340" y="666" type="line"/>
			<point x="431" y="646" type="line"/>
			<point x="437" y="400" type="line"/>
			<point x="431" y="400" type="line"/>
			<point x="431" y="108" type="line"/>
			<point x="435" y="108" type="line"/>
		</contour>
	</outline>
	<anchor name="aboveLC" x="486" y="771"/>
	<anchor name="belowLC" x="330" y="-24"/>
</glyph>
<glyph name="e" format="2">
	<unicode hex="0065"/>
	<advance width="557"/>
	<outline>
		<contour>
			<point x="295" y="-12" type="curve" smooth="yes"/>
			<point x="410" y="-12"/>
			<point x="466" y="36"/>
			<point x="513" y="95" type="curve"/>
			<point x="468" y="142" type="line"/>
			<point x="434" y="101"/>
			<point x="394" y="60"/>
			<point x="317" y="60" type="curve" smooth="yes"/>
			<point x="219" y="60"/>
			<point x="152" y="133"/>
			<point x="152" y="255" type="curve" smooth="yes"/>
			<point x="152" y="377"/>
			<point x="207" y="462"/>
			<point x="293" y="462" type="curve" smooth="yes"/>
			<point x="364" y="462"/>
			<point x="403" y="416"/>
			<point x="403" y="333" type="curve" smooth="yes"/>
			<point x="403" y="317"/>
			<point x="401" y="303"/>
			<point x="399" y="296" type="curve" smooth="yes"/>
			<point x="120" y="288" type="line"/>
			<point x="120" y="244" type="line"/>
			<point x="494" y="236" type="line"/>
			<point x="498" y="252"/>
			<point x="502" y="284"/>
			<point x="502" y="312" type="curve" smooth="yes"/>
			<point x="502" y="448"/>
			<point x="429" y="520"/>
			<point x="292" y="520" type="curve" smooth="yes"/>
			<point x="148" y="520"/>
			<point x="48" y="401"/>
			<point x="48" y="246" type="curve" smooth="yes"/>
			<point x="48" y="92"/>
			<point x="137" y="-12"/>
		</contour>
	</outline>
	<anchor name="aboveLC" x="293" y="544"/>
	<anchor name="belowLC" x="305" y="-24"/>
	<anchor name="ogonek" x="376" y="0"/>
</glyph>
<glyph name="f" format="2">
	<unicode hex="0066"/>
	<advance width="374"/>
	<outline>
		<contour>
			<point x="42" y="0" type="line"/>
			<point x="326" y="0" type="line"/>
			<point x="326" y="61" type="line"/>
			<point x="210" y="61" type="line"/>
			<point x="143" y="61" type="line"/>
			<point x="42" y="61" type="line"/>
		</contour>
		<contour>
			<point x="127" y="0" type="curve"/>
			<point x="227" y="0" type="line"/>
			<point x="227" y="73"/>
			<point x="227" y="147"/>
			<point x="227" y="220" type="curve" smooth="yes"/>
			<point x="227" y="484" type="line"/>
			<point x="227" y="593"/>
			<point x="242" y="644"/>
			<point x="277" y="695" type="curve" smooth="yes"/>
			<point x="281" y="701"/>
			<point x="282" y="702"/>
			<point x="285" y="706" type="curve"/>
			<point x="257" y="693" type="line"/>
			<point x="321" y="693" type="line"/>
			<point x="289" y="706" type="line"/>
			<point x="321" y="680" type="line" smooth="yes"/>
			<point x="351" y="656"/>
			<point x="374" y="635"/>
			<point x="413" y="635" type="curve" smooth="yes"/>
			<point x="450" y="635"/>
			<point x="470" y="657"/>
			<point x="470" y="684" type="curve"/>
			<point x="457" y="721"/>
			<point x="419" y="741"/>
			<point x="363" y="741" type="curve" smooth="yes"/>
			<point x="306" y="741"/>
			<point x="251" y="723"/>
			<point x="217" y="691" type="curve" smooth="yes"/>
			<point x="172" y="648"/>
			<point x="138" y="602"/>
			<point x="131" y="500" type="curve"/>
			<point x="128" y="472" type="line"/>
			<point x="152" y="512" type="line"/>
			<point x="39" y="496" type="line"/>
			<point x="39" y="445" type="line"/>
			<point x="127" y="445" type="line"/>
			<point x="127" y="220" type="line" smooth="yes"/>
			<point x="127" y="147"/>
			<point x="127" y="73"/>
		</contour>
		<contour>
			<point x="185" y="445" type="line"/>
			<point x="350" y="445" type="line"/>
			<point x="350" y="508" type="line"/>
			<point x="185" y="508" type="line"/>
		</contour>
	</outline>
	<anchor name="aboveLC" x="320" y="739"/>
	<anchor name="belowLC" x="178" y="-20"/>
</glyph>
<glyph name="g" format="2">
	<unicode hex="0067"/>
	<advance width="598"/>
	<outline>
		<contour>
			<point x="269" y="-224" type="curve" smooth="yes"/>
			<point x="413" y="-224"/>
			<point x="543" y="-148"/>
			<point x="543" y="-47" type="curve" smooth="yes"/>
			<point x="543" y="30"/>
			<point x="483" y="82"/>
			<point x="370" y="82" type="curve" smooth="yes"/>
			<point x="230" y="82" type="line" smooth="yes"/>
			<point x="171" y="82"/>
			<point x="151" y="102"/>
			<point x="151" y="130" type="curve" smooth="yes"/>
			<point x="151" y="162"/>
			<point x="171" y="177"/>
			<point x="214" y="209" type="curve"/>
			<point x="145" y="209" type="line"/>
			<point x="145" y="176" type="line"/>
			<point x="92" y="168"/>
			<point x="56" y="148"/>
			<point x="56" y="100" type="curve" smooth="yes"/>
			<point x="56" y="51"/>
			<point x="96" y="35"/>
			<point x="145" y="27" type="curve"/>
			<point x="145" y="-2" type="line"/>
			<point x="168" y="-2"/>
			<point x="190" y="-2"/>
			<point x="212" y="-2" type="curve" smooth="yes"/>
			<point x="354" y="-2" type="line" smooth="yes"/>
			<point x="417" y="-2"/>
			<point x="448" y="-22"/>
			<point x="448" y="-65" type="curve" smooth="yes"/>
			<point x="448" y="-117"/>
			<point x="388" y="-168"/>
			<point x="276" y="-168" type="curve" smooth="yes"/>
			<point x="163" y="-168"/>
			<point x="130" y="-125"/>
			<point x="130" y="-84" type="curve" smooth="yes"/>
			<point x="130" y="-45"/>
			<point x="154" y="-17"/>
			<point x="189" y="2" type="curve"/>
			<point x="181" y="10" type="line"/>
			<point x="81" y="-9"/>
			<point x="32" y="-36"/>
			<point x="32" y="-100" type="curve" smooth="yes"/>
			<point x="32" y="-172"/>
			<point x="124" y="-224"/>
		</contour>
		<contour>
			<point x="261" y="177" type="curve" smooth="yes"/>
			<point x="382" y="177"/>
			<point x="466" y="248"/>
			<point x="466" y="351" type="curve" smooth="yes"/>
			<point x="466" y="384"/>
			<point x="459" y="408"/>
			<point x="443" y="431" type="curve"/>
			<point x="430" y="431" type="line"/>
			<point x="410" y="480"/>
			<point x="351" y="520"/>
			<point x="261" y="520" type="curve" smooth="yes"/>
			<point x="140" y="520"/>
			<point x="55" y="449"/>
			<point x="55" y="346" type="curve" smooth="yes"/>
			<point x="55" y="244"/>
			<point x="140" y="177"/>
		</contour>
		<contour>
			<point x="261" y="233" type="curve" smooth="yes"/>
			<point x="198" y="233"/>
			<point x="155" y="276"/>
			<point x="155" y="348" type="curve" smooth="yes"/>
			<point x="155" y="420"/>
			<point x="198" y="464"/>
			<point x="261" y="464" type="curve" smooth="yes"/>
			<point x="324" y="464"/>
			<point x="367" y="420"/>
			<point x="367" y="348" type="curve" smooth="yes"/>
			<point x="367" y="276"/>
			<point x="324" y="233"/>
		</contour>
		<contour>
			<point x="410" y="415" type="line"/>
			<point x="563" y="415" type="line"/>
			<point x="563" y="529" type="line"/>
			<point x="514" y="529" type="line"/>
			<point x="454" y="447" type="line"/>
			<point x="410" y="447" type="line"/>
		</contour>
	</outline>
	<anchor name="aboveLC" x="281" y="544"/>
	<anchor name="belowLC" x="299" y="-212"/>
</glyph>
<glyph name="h" format="2">
	<unicode hex="0068"/>
	<advance width="681"/>
	<outline>
		<contour>
			<point x="47" y="0" type="line"/>
			<point x="313" y="0" type="line"/>
			<point x="313" y="61" type="line"/>
			<point x="198" y="61" type="line"/>
			<point x="163" y="61" type="line"/>
			<point x="47" y="61" type="line"/>
		</contour>
		<contour>
			<point x="130" y="0" type="curve"/>
			<point x="230" y="0" type="line"/>
			<point x="230" y="73"/>
			<point x="230" y="147"/>
			<point x="230" y="220" type="curve" smooth="yes"/>
			<point x="230" y="397" type="line"/>
			<point x="228" y="397" type="line"/>
			<point x="230" y="616" type="line"/>
			<point x="230" y="729" type="line"/>
			<point x="189" y="729" type="line"/>
			<point x="39" y="705" type="line"/>
			<point x="39" y="656" type="line"/>
			<point x="130" y="636" type="line"/>
			<point x="130" y="220" type="line" smooth="yes"/>
			<point x="130" y="147"/>
			<point x="130" y="73"/>
		</contour>
		<contour>
			<point x="396" y="0" type="line"/>
			<point x="657" y="0" type="line"/>
			<point x="657" y="61" type="line"/>
			<point x="542" y="61" type="line"/>
			<point x="507" y="61" type="line"/>
			<point x="396" y="61" type="line"/>
		</contour>
		<contour>
			<point x="474" y="0" type="curve"/>
			<point x="574" y="0" type="line"/>
			<point x="574" y="73"/>
			<point x="574" y="147"/>
			<point x="574" y="220" type="curve" smooth="yes"/>
			<point x="574" y="352" type="line" smooth="yes"/>
			<point x="574" y="460"/>
			<point x="522" y="520"/>
			<point x="418" y="520" type="curve" smooth="yes"/>
			<point x="338" y="520"/>
			<point x="290" y="472"/>
			<point x="264" y="416" type="curve"/>
			<point x="214" y="416" type="line"/>
			<point x="214" y="367" type="line"/>
			<point x="269" y="407"/>
			<point x="328" y="434"/>
			<point x="383" y="434" type="curve" smooth="yes"/>
			<point x="446" y="434"/>
			<point x="474" y="403"/>
			<point x="474" y="328" type="curve" smooth="yes"/>
			<point x="474" y="220" type="line" smooth="yes"/>
			<point x="474" y="147"/>
			<point x="474" y="73"/>
		</contour>
	</outline>
	<anchor name="aboveLC" x="180" y="739"/>
	<anchor name="belowLC" x="341" y="-20"/>
</glyph>
<glyph name="i" format="2">
	<unicode hex="0069"/>
	<advance width="361"/>
	<outline>
		<contour>
			<point x="47" y="0" type="line"/>
			<point x="314" y="0" type="line"/>
			<point x="314" y="61" type="line"/>
			<point x="198" y="61" type="line"/>
			<point x="163" y="61" type="line"/>
			<point x="47" y="61" type="line"/>
		</contour>
		<contour>
			<point x="130" y="0" type="curve"/>
			<point x="231" y="0" type="line"/>
			<point x="231" y="73"/>
			<point x="231" y="147"/>
			<point x="231" y="220" type="curve" smooth="yes"/>
			<point x="231" y="407" type="line"/>
			<point x="231" y="508" type="line"/>
			<point x="190" y="508" type="line"/>
			<point x="43" y="468" type="line"/>
			<point x="43" y="415" type="line"/>
			<point x="130" y="415" type="line"/>
			<point x="130" y="368"/>
			<point x="130" y="323"/>
			<point x="130" y="276" type="curve" smooth="yes"/>
			<point x="130" y="220" type="line" smooth="yes"/>
			<point x="130" y="147"/>
			<point x="130" y="73"/>
		</contour>
		<contour>
			<point x="180" y="599" type="curve" smooth="yes"/>
			<point x="221" y="599"/>
			<point x="254" y="631"/>
			<point x="254" y="672" type="curve" smooth="yes"/>
			<point x="254" y="713"/>
			<point x="221" y="745"/>
			<point x="180" y="745" type="curve" smooth="yes"/>
			<point x="140" y="745"/>
			<point x="107" y="713"/>
			<point x="107" y="672" type="curve" smooth="yes"/>
			<point x="107" y="631"/>
			<point x="140" y="599"/>
		</contour>
	</outline>
	<anchor name="aboveLC" x="184" y="758"/>
	<anchor name="belowLC" x="180" y="-24"/>
	<anchor name="ogonek" x="225" y="0"/>
</glyph>
<glyph name="j" format="2">
	<unicode hex="006A"/>
	<advance width="329"/>
	<outline>
		<contour>
			<point x="25" y="-224" type="curve" smooth="yes"/>
			<point x="101" y="-224"/>
			<point x="145" y="-188"/>
			<point x="174" y="-132" type="curve" smooth="yes"/>
			<point x="202" y="-77"/>
			<point x="215" y="-13"/>
			<point x="215" y="108" type="curve" smooth="yes"/>
			<point x="215" y="407" type="line"/>
			<point x="215" y="508" type="line"/>
			<point x="174" y="508" type="line"/>
			<point x="27" y="468" type="line"/>
			<point x="27" y="415" type="line"/>
			<point x="114" y="415" type="line"/>
			<point x="114" y="368"/>
			<point x="114" y="323"/>
			<point x="114" y="276" type="curve" smooth="yes"/>
			<point x="114" y="108" type="line" smooth="yes"/>
			<point x="114" y="-5"/>
			<point x="111" y="-68"/>
			<point x="105" y="-109" type="curve" smooth="yes"/>
			<point x="99" y="-148"/>
			<point x="95" y="-164"/>
			<point x="89" y="-180" type="curve"/>
			<point x="73" y="-180" type="line"/>
			<point x="102" y="-196" type="line"/>
			<point x="78" y="-160" type="line" smooth="yes"/>
			<point x="62" y="-135"/>
			<point x="38" y="-114"/>
			<point x="-2" y="-114" type="curve" smooth="yes"/>
			<point x="-48" y="-114"/>
			<point x="-69" y="-139"/>
			<point x="-75" y="-167" type="curve"/>
			<point x="-66" y="-188"/>
			<point x="-40" y="-224"/>
		</contour>
		<contour>
			<point x="164" y="599" type="curve" smooth="yes"/>
			<point x="205" y="599"/>
			<point x="238" y="631"/>
			<point x="238" y="672" type="curve" smooth="yes"/>
			<point x="238" y="713"/>
			<point x="205" y="745"/>
			<point x="164" y="745" type="curve" smooth="yes"/>
			<point x="124" y="745"/>
			<point x="91" y="713"/>
			<point x="91" y="672" type="curve" smooth="yes"/>
			<point x="91" y="631"/>
			<point x="124" y="599"/>
		</contour>
	</outline>
	<anchor name="aboveLC" x="181" y="758"/>
	<anchor name="belowLC" x="73" y="-232"/>
</glyph>
<glyph name="k" format="2">
	<unicode hex="006B"/>
	<advance width="642"/>
	<outline>
		<contour>
			<point x="47" y="0" type="line"/>
			<point x="313" y="0" type="line"/>
			<point x="313" y="61" type="line"/>
			<point x="198" y="61" type="line"/>
			<point x="163" y="61" type="line"/>
			<point x="47" y="61" type="line"/>
		</contour>
		<contour>
			<point x="130" y="0" type="curve"/>
			<point x="230" y="0" type="line"/>
			<point x="230" y="73"/>
			<point x="230" y="147"/>
			<point x="230" y="220" type="curve" smooth="yes"/>
			<point x="230" y="626" type="line"/>
			<point x="230" y="739" type="line"/>
			<point x="189" y="739" type="line"/>
			<point x="39" y="715" type="line"/>
			<point x="39" y="666" type="line"/>
			<point x="130" y="646" type="line"/>
			<point x="130" y="220" type="line" smooth="yes"/>
			<point x="130" y="147"/>
			<point x="130" y="73"/>
		</contour>
		<contour>
			<point x="189" y="155" type="line"/>
			<point x="580" y="508" type="line"/>
			<point x="490" y="508" type="line"/>
			<point x="247" y="267" type="line"/>
			<point x="189" y="267" type="line"/>
		</contour>
		<contour>
			<point x="463" y="0" type="line"/>
			<point x="623" y="0" type="line"/>
			<point x="623" y="57" type="line"/>
			<point x="546" y="64" type="line"/>
			<point x="361" y="346" type="line"/>
			<point x="298" y="280" type="line"/>
		</contour>
		<contour>
			<point x="334" y="452" type="line"/>
			<point x="458" y="443" type="line"/>
			<point x="475" y="443" type="line"/>
			<point x="607" y="452" type="line"/>
			<point x="607" y="508" type="line"/>
			<point x="334" y="508" type="line"/>
		</contour>
	</outline>
	<anchor name="aboveLC" x="180" y="771"/>
	<anchor name="belowLC" x="321" y="-24"/>
</glyph>
<glyph name="l" format="2">
	<unicode hex="006C"/>
	<advance width="360"/>
	<outline>
		<contour>
			<point x="47" y="0" type="line"/>
			<point x="313" y="0" type="line"/>
			<point x="313" y="61" type="line"/>
			<point x="198" y="61" type="line"/>
			<point x="163" y="61" type="line"/>
			<point x="47" y="61" type="line"/>
		</contour>
		<contour>
			<point x="130" y="0" type="curve"/>
			<point x="230" y="0" type="line"/>
			<point x="230" y="73"/>
			<point x="230" y="147"/>
			<point x="230" y="220" type="curve" smooth="yes"/>
			<point x="230" y="626" type="line"/>
			<point x="230" y="739" type="line"/>
			<point x="189" y="739" type="line"/>
			<point x="39" y="715" type="line"/>
			<point x="39" y="666" type="line"/>
			<point x="130" y="646" type="line"/>
			<point x="130" y="220" type="line" smooth="yes"/>
			<point x="130" y="147"/>
			<point x="130" y="73"/>
		</contour>
	</outline>
	<anchor name="aboveLC" x="180" y="771"/>
	<anchor name="belowLC" x="180" y="-24"/>
</glyph>
<glyph name="m" format="2">
	<unicode hex="006D"/>
	<advance width="1009"/>
	<outline>
		<contour>
			<point x="44" y="0" type="line"/>
			<point x="305" y="0" type="line"/>
			<point x="305" y="61" type="line"/>
			<point x="194" y="61" type="line"/>
			<point x="159" y="61" type="line"/>
			<point x="44" y="61" type="line"/>
		</contour>
		<contour>
			<point x="127" y="0" type="curve"/>
			<point x="227" y="0" type="line"/>
			<point x="227" y="73"/>
			<point x="227" y="147"/>
			<point x="227" y="220" type="curve" smooth="yes"/>
			<point x="227" y="408" type="line"/>
			<point x="219" y="408" type="line"/>
			<point x="203" y="508" type="line"/>
			<point x="162" y="508" type="line"/>
			<point x="40" y="468" type="line"/>
			<point x="40" y="415" type="line"/>
			<point x="127" y="415" type="line"/>
			<point x="127" y="368"/>
			<point x="127" y="323"/>
			<point x="127" y="276" type="curve" smooth="yes"/>
			<point x="127" y="220" type="line" smooth="yes"/>
			<point x="127" y="147"/>
			<point x="127" y="73"/>
		</contour>
		<contour>
			<point x="384" y="0" type="line"/>
			<point x="645" y="0" type="line"/>
			<point x="645" y="61" type="line"/>
			<point x="530" y="61" type="line"/>
			<point x="495" y="61" type="line"/>
			<point x="384" y="61" type="line"/>
		</contour>
		<contour>
			<point x="462" y="0" type="curve"/>
			<point x="563" y="0" type="line"/>
			<point x="563" y="73"/>
			<point x="563" y="147"/>
			<point x="563" y="220" type="curve" smooth="yes"/>
			<point x="563" y="352" type="line" smooth="yes"/>
			<point x="563" y="460"/>
			<point x="513" y="520"/>
			<point x="411" y="520" type="curve" smooth="yes"/>
			<point x="332" y="520"/>
			<point x="283" y="472"/>
			<point x="251" y="416" type="curve"/>
			<point x="210" y="416" type="line"/>
			<point x="210" y="367" type="line"/>
			<point x="265" y="407"/>
			<point x="322" y="434"/>
			<point x="375" y="434" type="curve" smooth="yes"/>
			<point x="437" y="434"/>
			<point x="462" y="403"/>
			<point x="462" y="328" type="curve" smooth="yes"/>
			<point x="462" y="220" type="line" smooth="yes"/>
			<point x="462" y="147"/>
			<point x="462" y="73"/>
		</contour>
		<contour>
			<point x="720" y="0" type="line"/>
			<point x="982" y="0" type="line"/>
			<point x="982" y="61" type="line"/>
			<point x="866" y="61" type="line"/>
			<point x="831" y="61" type="line"/>
			<point x="720" y="61" type="line"/>
		</contour>
		<contour>
			<point x="798" y="0" type="curve"/>
			<point x="899" y="0" type="line"/>
			<point x="899" y="73"/>
			<point x="899" y="147"/>
			<point x="899" y="220" type="curve" smooth="yes"/>
			<point x="899" y="352" type="line" smooth="yes"/>
			<point x="899" y="460"/>
			<point x="848" y="520"/>
			<point x="747" y="520" type="curve" smooth="yes"/>
			<point x="668" y="520"/>
			<point x="618" y="472"/>
			<point x="586" y="416" type="curve"/>
			<point x="546" y="416" type="line"/>
			<point x="546" y="367" type="line"/>
			<point x="601" y="407"/>
			<point x="658" y="434"/>
			<point x="711" y="434" type="curve" smooth="yes"/>
			<point x="772" y="434"/>
			<point x="798" y="403"/>
			<point x="798" y="328" type="curve" smooth="yes"/>
			<point x="798" y="220" type="line" smooth="yes"/>
			<point x="798" y="147"/>
			<point x="798" y="73"/>
		</contour>
	</outline>
	<anchor name="aboveLC" x="505" y="544"/>
	<anchor name="belowLC" x="505" y="-24"/>
</glyph>
<glyph name="n" format="2">
	<unicode hex="006E"/>
	<advance width="682"/>
	<outline>
		<contour>
			<point x="44" y="0" type="line"/>
			<point x="305" y="0" type="line"/>
			<point x="305" y="61" type="line"/>
			<point x="194" y="61" type="line"/>
			<point x="159" y="61" type="line"/>
			<point x="44" y="61" type="line"/>
		</contour>
		<contour>
			<point x="127" y="0" type="curve"/>
			<point x="227" y="0" type="line"/>
			<point x="227" y="73"/>
			<point x="227" y="147"/>
			<point x="227" y="220" type="curve" smooth="yes"/>
			<point x="227" y="408" type="line"/>
			<point x="219" y="408" type="line"/>
			<point x="203" y="508" type="line"/>
			<point x="162" y="508" type="line"/>
			<point x="40" y="468" type="line"/>
			<point x="40" y="415" type="line"/>
			<point x="127" y="415" type="line"/>
			<point x="127" y="368"/>
			<point x="127" y="323"/>
			<point x="127" y="276" type="curve" smooth="yes"/>
			<point x="127" y="220" type="line" smooth="yes"/>
			<point x="127" y="147"/>
			<point x="127" y="73"/>
		</contour>
		<contour>
			<point x="392" y="0" type="line"/>
			<point x="654" y="0" type="line"/>
			<point x="654" y="61" type="line"/>
			<point x="538" y="61" type="line"/>
			<point x="503" y="61" type="line"/>
			<point x="392" y="61" type="line"/>
		</contour>
		<contour>
			<point x="471" y="0" type="curve"/>
			<point x="571" y="0" type="line"/>
			<point x="571" y="73"/>
			<point x="571" y="147"/>
			<point x="571" y="220" type="curve" smooth="yes"/>
			<point x="571" y="352" type="line" smooth="yes"/>
			<point x="571" y="460"/>
			<point x="519" y="520"/>
			<point x="415" y="520" type="curve" smooth="yes"/>
			<point x="334" y="520"/>
			<point x="283" y="472"/>
			<point x="251" y="416" type="curve"/>
			<point x="210" y="416" type="line"/>
			<point x="210" y="367" type="line"/>
			<point x="266" y="407"/>
			<point x="324" y="434"/>
			<point x="380" y="434" type="curve" smooth="yes"/>
			<point x="443" y="434"/>
			<point x="471" y="403"/>
			<point x="471" y="328" type="curve" smooth="yes"/>
			<point x="471" y="220" type="line" smooth="yes"/>
			<point x="471" y="147"/>
			<point x="471" y="73"/>
		</contour>
	</outline>
	<anchor name="aboveLC" x="341" y="528"/>
	<anchor name="belowLC" x="341" y="-20"/>
</glyph>
<glyph name="o" format="2">
	<unicode hex="006F"/>
	<advance width="610"/>
	<outline>
		<contour>
			<point x="305" y="-12" type="curve" smooth="yes"/>
			<point x="442" y="-12"/>
			<point x="562" y="91"/>
			<point x="562" y="258" type="curve" smooth="yes"/>
			<point x="562" y="425"/>
			<point x="442" y="520"/>
			<point x="305" y="520" type="curve" smooth="yes"/>
			<point x="168" y="520"/>
			<point x="48" y="421"/>
			<point x="48" y="252" type="curve" smooth="yes"/>
			<point x="48" y="84"/>
			<point x="168" y="-12"/>
		</contour>
		<contour>
			<point x="305" y="49" type="curve" smooth="yes"/>
			<point x="211" y="49"/>
			<point x="156" y="116"/>
			<point x="156" y="256" type="curve" smooth="yes"/>
			<point x="156" y="393"/>
			<point x="211" y="460"/>
			<point x="305" y="460" type="curve" smooth="yes"/>
			<point x="399" y="460"/>
			<point x="454" y="392"/>
			<point x="454" y="252" type="curve" smooth="yes"/>
			<point x="454" y="116"/>
			<point x="399" y="49"/>
		</contour>
	</outline>
	<anchor name="aboveLC" x="305" y="528"/>
	<anchor name="belowLC" x="305" y="-20"/>
	<anchor name="hornLC" x="453" y="396"/>
	<anchor name="ogonek" x="389" y="0"/>
</glyph>
<glyph name="p" format="2">
	<unicode hex="0070"/>
	<advance width="661"/>
	<outline>
		<contour>
			<point x="47" y="-225" type="line"/>
			<point x="326" y="-225" type="line"/>
			<point x="326" y="-164" type="line"/>
			<point x="198" y="-164" type="line"/>
			<point x="163" y="-164" type="line"/>
			<point x="47" y="-164" type="line"/>
		</contour>
		<contour>
			<point x="130" y="-225" type="curve"/>
			<point x="230" y="-225" type="line"/>
			<point x="230" y="-169"/>
			<point x="230" y="-114"/>
			<point x="230" y="-58" type="curve" smooth="yes"/>
			<point x="222" y="96" type="line"/>
			<point x="230" y="96" type="line"/>
			<point x="230" y="408" type="line"/>
			<point x="223" y="408" type="line"/>
			<point x="206" y="508" type="line"/>
			<point x="166" y="508" type="line"/>
			<point x="43" y="468" type="line"/>
			<point x="43" y="415" type="line"/>
			<point x="130" y="415" type="line"/>
			<point x="130" y="368"/>
			<point x="130" y="323"/>
			<point x="130" y="276" type="curve" smooth="yes"/>
			<point x="130" y="-43" type="line" smooth="yes"/>
			<point x="130" y="-103"/>
			<point x="130" y="-164"/>
		</contour>
		<contour>
			<point x="402" y="-12" type="curve" smooth="yes"/>
			<point x="522" y="-12"/>
			<point x="613" y="84"/>
			<point x="613" y="256" type="curve" smooth="yes"/>
			<point x="613" y="428"/>
			<point x="522" y="520"/>
			<point x="402" y="520" type="curve" smooth="yes"/>
			<point x="314" y="520"/>
			<point x="282" y="472"/>
			<point x="255" y="416" type="curve"/>
			<point x="198" y="416" type="line"/>
			<point x="198" y="329" type="line"/>
			<point x="253" y="403"/>
			<point x="297" y="446"/>
			<point x="367" y="446" type="curve" smooth="yes"/>
			<point x="446" y="446"/>
			<point x="505" y="387"/>
			<point x="505" y="252" type="curve" smooth="yes"/>
			<point x="505" y="117"/>
			<point x="446" y="58"/>
			<point x="367" y="58" type="curve" smooth="yes"/>
			<point x="297" y="58"/>
			<point x="253" y="101"/>
			<point x="198" y="174" type="curve"/>
			<point x="198" y="88" type="line"/>
			<point x="255" y="88" type="line"/>
			<point x="282" y="36"/>
			<point x="314" y="-12"/>
		</contour>
	</outline>
	<anchor name="aboveLC" x="330" y="528"/>
	<anchor name="belowLC" x="181" y="-245"/>
</glyph>
<glyph name="q" format="2">
	<unicode hex="0071"/>
	<advance width="645"/>
	<outline>
		<contour>
			<point x="335" y="-225" type="line"/>
			<point x="614" y="-225" type="line"/>
			<point x="614" y="-164" type="line"/>
			<point x="498" y="-164" type="line"/>
			<point x="463" y="-164" type="line"/>
			<point x="335" y="-164" type="line"/>
		</contour>
		<contour>
			<point x="259" y="-12" type="curve" smooth="yes"/>
			<point x="347" y="-12"/>
			<point x="379" y="36"/>
			<point x="406" y="92" type="curve"/>
			<point x="463" y="92" type="line"/>
			<point x="463" y="179" type="line"/>
			<point x="408" y="105"/>
			<point x="364" y="62"/>
			<point x="294" y="62" type="curve" smooth="yes"/>
			<point x="215" y="62"/>
			<point x="156" y="121"/>
			<point x="156" y="256" type="curve" smooth="yes"/>
			<point x="156" y="391"/>
			<point x="215" y="450"/>
			<point x="294" y="450" type="curve" smooth="yes"/>
			<point x="364" y="450"/>
			<point x="408" y="407"/>
			<point x="463" y="334" type="curve"/>
			<point x="463" y="420" type="line"/>
			<point x="411" y="420" type="line"/>
			<point x="379" y="472"/>
			<point x="347" y="520"/>
			<point x="259" y="520" type="curve" smooth="yes"/>
			<point x="139" y="520"/>
			<point x="48" y="424"/>
			<point x="48" y="252" type="curve" smooth="yes"/>
			<point x="48" y="80"/>
			<point x="139" y="-12"/>
		</contour>
		<contour>
			<point x="431" y="-225" type="curve"/>
			<point x="531" y="-225" type="line"/>
			<point x="531" y="-164"/>
			<point x="531" y="-103"/>
			<point x="531" y="-43" type="curve" smooth="yes"/>
			<point x="531" y="399" type="line"/>
			<point x="531" y="509" type="line"/>
			<point x="478" y="509" type="line"/>
			<point x="437" y="408" type="line"/>
			<point x="431" y="408" type="line"/>
			<point x="431" y="100" type="line"/>
			<point x="439" y="100" type="line"/>
			<point x="431" y="-44" type="line" smooth="yes"/>
			<point x="431" y="-104"/>
			<point x="431" y="-164"/>
		</contour>
	</outline>
	<anchor name="aboveLC" x="323" y="528"/>
	<anchor name="belowLC" x="482" y="-245"/>
</glyph>
<glyph name="r" format="2">
	<unicode hex="0072"/>
	<advance width="491"/>
	<outline>
		<contour>
			<point x="47" y="0" type="line"/>
			<point x="341" y="0" type="line"/>
			<point x="341" y="61" type="line"/>
			<point x="198" y="61" type="line"/>
			<point x="163" y="61" type="line"/>
			<point x="47" y="61" type="line"/>
		</contour>
		<contour>
			<point x="130" y="0" type="curve"/>
			<point x="231" y="0" type="line"/>
			<point x="231" y="73"/>
			<point x="231" y="147"/>
			<point x="231" y="220" type="curve" smooth="yes"/>
			<point x="231" y="361" type="line"/>
			<point x="218" y="361" type="line"/>
			<point x="210" y="508" type="line"/>
			<point x="169" y="508" type="line"/>
			<point x="43" y="468" type="line"/>
			<point x="43" y="415" type="line"/>
			<point x="130" y="415" type="line"/>
			<point x="130" y="368"/>
			<point x="130" y="323"/>
			<point x="130" y="276" type="curve" smooth="yes"/>
			<point x="130" y="220" type="line" smooth="yes"/>
			<point x="130" y="147"/>
			<point x="130" y="73"/>
		</contour>
		<contour>
			<point x="214" y="284" type="line"/>
			<point x="246" y="340"/>
			<point x="294" y="403"/>
			<point x="365" y="435" type="curve"/>
			<point x="310" y="435" type="line"/>
			<point x="329" y="415" type="line" smooth="yes"/>
			<point x="345" y="399"/>
			<point x="365" y="382"/>
			<point x="398" y="382" type="curve" smooth="yes"/>
			<point x="447" y="382"/>
			<point x="467" y="423"/>
			<point x="471" y="460" type="curve"/>
			<point x="463" y="484"/>
			<point x="439" y="516"/>
			<point x="390" y="516" type="curve" smooth="yes"/>
			<point x="318" y="516"/>
			<point x="286" y="453"/>
			<point x="247" y="365" type="curve"/>
			<point x="214" y="365" type="line"/>
		</contour>
	</outline>
	<anchor name="aboveLC" x="246" y="544"/>
	<anchor name="belowLC" x="180" y="-24"/>
</glyph>
<glyph name="s" format="2">
	<unicode hex="0073"/>
	<advance width="497"/>
	<outline>
		<contour>
			<point x="234" y="-12" type="curve" smooth="yes"/>
			<point x="365" y="-12"/>
			<point x="446" y="52"/>
			<point x="446" y="145" type="curve" smooth="yes"/>
			<point x="446" y="230"/>
			<point x="382" y="271"/>
			<point x="269" y="305" type="curve" smooth="yes"/>
			<point x="248" y="311" type="line" smooth="yes"/>
			<point x="177" y="333"/>
			<point x="151" y="353"/>
			<point x="151" y="393" type="curve" smooth="yes"/>
			<point x="151" y="432"/>
			<point x="182" y="466"/>
			<point x="255" y="466" type="curve" smooth="yes"/>
			<point x="301" y="466"/>
			<point x="341" y="458"/>
			<point x="372" y="442" type="curve"/>
			<point x="372" y="481" type="line"/>
			<point x="329" y="481" type="line"/>
			<point x="352" y="365" type="line"/>
			<point x="417" y="365" type="line"/>
			<point x="418" y="488" type="line"/>
			<point x="381" y="504"/>
			<point x="317" y="520"/>
			<point x="255" y="520" type="curve" smooth="yes"/>
			<point x="132" y="520"/>
			<point x="51" y="464"/>
			<point x="51" y="375" type="curve" smooth="yes"/>
			<point x="51" y="294"/>
			<point x="112" y="253"/>
			<point x="225" y="219" type="curve" smooth="yes"/>
			<point x="245" y="213" type="line" smooth="yes"/>
			<point x="317" y="191"/>
			<point x="345" y="171"/>
			<point x="345" y="127" type="curve" smooth="yes"/>
			<point x="345" y="84"/>
			<point x="315" y="43"/>
			<point x="234" y="43" type="curve" smooth="yes"/>
			<point x="172" y="43"/>
			<point x="117" y="58"/>
			<point x="85" y="74" type="curve"/>
			<point x="85" y="28" type="line"/>
			<point x="141" y="28" type="line"/>
			<point x="113" y="151" type="line"/>
			<point x="48" y="151" type="line"/>
			<point x="52" y="20" type="line"/>
			<point x="92" y="4"/>
			<point x="156" y="-12"/>
		</contour>
	</outline>
	<anchor name="aboveLC" x="255" y="544"/>
	<anchor name="belowLC" x="238" y="-24"/>
	<anchor name="baseLC" x="238" y="0"/>
</glyph>
<glyph name="t" format="2">
	<unicode hex="0074"/>
	<advance width="392"/>
	<outline>
		<contour>
			<point x="255" y="-8" type="curve" smooth="yes"/>
			<point x="313" y="-8"/>
			<point x="357" y="16"/>
			<point x="373" y="28" type="curve"/>
			<point x="351" y="79" type="line"/>
			<point x="337" y="73"/>
			<point x="315" y="66"/>
			<point x="288" y="66" type="curve" smooth="yes"/>
			<point x="242" y="66"/>
			<point x="218" y="86"/>
			<point x="218" y="141" type="curve" smooth="yes"/>
			<point x="218" y="461" type="line"/>
			<point x="210" y="461" type="line"/>
			<point x="226" y="648" type="line"/>
			<point x="160" y="648" type="line"/>
			<point x="126" y="483" type="line"/>
			<point x="158" y="512" type="line"/>
			<point x="27" y="496" type="line"/>
			<point x="27" y="443" type="line"/>
			<point x="118" y="443" type="line"/>
			<point x="118" y="202" type="line" smooth="yes"/>
			<point x="118" y="179"/>
			<point x="118" y="156"/>
			<point x="118" y="133" type="curve" smooth="yes"/>
			<point x="118" y="36"/>
			<point x="174" y="-8"/>
		</contour>
		<contour>
			<point x="172" y="447" type="line"/>
			<point x="360" y="443" type="line"/>
			<point x="360" y="508" type="line"/>
			<point x="172" y="504" type="line"/>
		</contour>
	</outline>
	<anchor name="aboveLC" x="193" y="672"/>
	<anchor name="belowLC" x="236" y="-24"/>
	<anchor name="baseLC" x="236" y="0"/>
</glyph>
<glyph name="u" format="2">
	<unicode hex="0075"/>
	<advance width="674"/>
	<outline>
		<contour>
			<point x="263" y="-12" type="curve" smooth="yes"/>
			<point x="343" y="-12"/>
			<point x="395" y="36"/>
			<point x="427" y="92" type="curve"/>
			<point x="468" y="92" type="line"/>
			<point x="468" y="141" type="line"/>
			<point x="412" y="102"/>
			<point x="353" y="74"/>
			<point x="298" y="74" type="curve" smooth="yes"/>
			<point x="235" y="74"/>
			<point x="207" y="106"/>
			<point x="207" y="181" type="curve" smooth="yes"/>
			<point x="207" y="395" type="line"/>
			<point x="207" y="508" type="line"/>
			<point x="166" y="508" type="line"/>
			<point x="16" y="488" type="line"/>
			<point x="16" y="439" type="line"/>
			<point x="147" y="415" type="line"/>
			<point x="107" y="463" type="line"/>
			<point x="107" y="156" type="line" smooth="yes"/>
			<point x="107" y="48"/>
			<point x="159" y="-12"/>
		</contour>
		<contour>
			<point x="468" y="-8" type="line"/>
			<point x="638" y="0" type="line"/>
			<point x="638" y="53" type="line"/>
			<point x="551" y="69" type="line"/>
			<point x="551" y="395" type="line"/>
			<point x="551" y="508" type="line"/>
			<point x="510" y="508" type="line"/>
			<point x="360" y="488" type="line"/>
			<point x="360" y="439" type="line"/>
			<point x="451" y="423" type="line"/>
			<point x="451" y="100" type="line"/>
			<point x="459" y="100" type="line"/>
		</contour>
	</outline>
	<anchor name="aboveLC" x="337" y="544"/>
	<anchor name="belowLC" x="337" y="-24"/>
	<anchor name="hornLC" x="523" y="505"/>
	<anchor name="ogonek" x="570" y="0"/>
</glyph>
<glyph name="v" format="2">
	<unicode hex="0076"/>
	<advance width="651"/>
	<outline>
		<contour>
			<point x="260" y="0" type="line"/>
			<point x="396" y="0" type="line"/>
			<point x="580" y="508" type="line"/>
			<point x="500" y="508" type="line"/>
			<point x="361" y="60" type="line"/>
			<point x="337" y="60" type="line"/>
			<point x="184" y="508" type="line"/>
			<point x="71" y="508" type="line"/>
		</contour>
		<contour>
			<point x="24" y="452" type="line"/>
			<point x="112" y="443" type="line"/>
			<point x="187" y="443" type="line"/>
			<point x="298" y="452" type="line"/>
			<point x="298" y="508" type="line"/>
			<point x="24" y="508" type="line"/>
		</contour>
		<contour>
			<point x="392" y="452" type="line"/>
			<point x="500" y="443" type="line"/>
			<point x="539" y="443" type="line"/>
			<point x="628" y="452" type="line"/>
			<point x="628" y="508" type="line"/>
			<point x="392" y="508" type="line"/>
		</contour>
	</outline>
	<anchor name="aboveLC" x="331" y="544"/>
	<anchor name="belowLC" x="326" y="-24"/>
</glyph>
<glyph name="w" format="2">
	<unicode hex="0077"/>
	<advance width="908"/>
	<outline>
		<contour>
			<point x="228" y="0" type="line"/>
			<point x="372" y="0" type="line"/>
			<point x="449" y="355" type="line"/>
			<point x="465" y="355" type="line"/>
			<point x="548" y="0" type="line"/>
			<point x="685" y="0" type="line"/>
			<point x="838" y="508" type="line"/>
			<point x="757" y="508" type="line"/>
			<point x="650" y="60" type="line"/>
			<point x="626" y="60" type="line"/>
			<point x="519" y="497" type="line"/>
			<point x="425" y="497" type="line"/>
			<point x="329" y="60" type="line"/>
			<point x="305" y="60" type="line"/>
			<point x="183" y="508" type="line"/>
			<point x="71" y="508" type="line"/>
		</contour>
		<contour>
			<point x="24" y="452" type="line"/>
			<point x="124" y="443" type="line"/>
			<point x="166" y="443" type="line"/>
			<point x="278" y="452" type="line"/>
			<point x="278" y="508" type="line"/>
			<point x="24" y="508" type="line"/>
		</contour>
		<contour>
			<point x="345" y="452" type="line"/>
			<point x="434" y="447" type="line"/>
			<point x="510" y="447" type="line"/>
			<point x="598" y="452" type="line"/>
			<point x="598" y="508" type="line"/>
			<point x="345" y="508" type="line"/>
		</contour>
		<contour>
			<point x="669" y="452" type="line"/>
			<point x="761" y="443" type="line"/>
			<point x="800" y="443" type="line"/>
			<point x="884" y="452" type="line"/>
			<point x="884" y="508" type="line"/>
			<point x="669" y="508" type="line"/>
		</contour>
	</outline>
	<anchor name="aboveLC" x="459" y="544"/>
	<anchor name="belowLC" x="454" y="-24"/>
</glyph>
<glyph name="x" format="2">
	<unicode hex="0078"/>
	<advance width="613"/>
	<outline>
		<contour>
			<point x="24" y="0" type="line"/>
			<point x="251" y="0" type="line"/>
			<point x="251" y="61" type="line"/>
			<point x="156" y="61" type="line"/>
			<point x="120" y="61" type="line"/>
			<point x="24" y="61" type="line"/>
		</contour>
		<contour>
			<point x="51" y="0" type="line"/>
			<point x="140" y="0" type="line"/>
			<point x="267" y="217" type="line"/>
			<point x="312" y="217" type="line"/>
			<point x="266" y="287" type="line"/>
		</contour>
		<contour>
			<point x="319" y="0" type="line"/>
			<point x="589" y="0" type="line"/>
			<point x="589" y="61" type="line"/>
			<point x="485" y="61" type="line"/>
			<point x="426" y="61" type="line"/>
			<point x="319" y="61" type="line"/>
		</contour>
		<contour>
			<point x="336" y="234" type="line"/>
			<point x="550" y="508" type="line"/>
			<point x="465" y="508" type="line"/>
			<point x="337" y="305" type="line"/>
			<point x="296" y="305" type="line"/>
		</contour>
		<contour>
			<point x="450" y="0" type="line"/>
			<point x="570" y="0" type="line"/>
			<point x="334" y="289" type="line"/>
			<point x="159" y="508" type="line"/>
			<point x="43" y="508" type="line"/>
			<point x="267" y="236" type="line"/>
		</contour>
		<contour>
			<point x="24" y="452" type="line"/>
			<point x="136" y="443" type="line"/>
			<point x="179" y="443" type="line"/>
			<point x="290" y="452" type="line"/>
			<point x="290" y="508" type="line"/>
			<point x="24" y="508" type="line"/>
		</contour>
		<contour>
			<point x="350" y="452" type="line"/>
			<point x="445" y="443" type="line"/>
			<point x="469" y="443" type="line"/>
			<point x="573" y="452" type="line"/>
			<point x="573" y="508" type="line"/>
			<point x="350" y="508" type="line"/>
		</contour>
	</outline>
	<anchor name="aboveLC" x="308" y="528"/>
	<anchor name="belowLC" x="307" y="-20"/>
</glyph>
<glyph name="y" format="2">
	<unicode hex="0079"/>
	<advance width="660"/>
	<outline>
		<contour>
			<point x="129" y="-224" type="curve" smooth="yes"/>
			<point x="254" y="-224"/>
			<point x="322" y="-155"/>
			<point x="385" y="0" type="curve" smooth="yes"/>
			<point x="592" y="508" type="line"/>
			<point x="512" y="508" type="line"/>
			<point x="350" y="46" type="line"/>
			<point x="321" y="-12" type="line" smooth="yes"/>
			<point x="281" y="-92"/>
			<point x="253" y="-140"/>
			<point x="206" y="-180" type="curve"/>
			<point x="169" y="-180" type="line"/>
			<point x="190" y="-184" type="line"/>
			<point x="166" y="-159" type="line" smooth="yes"/>
			<point x="142" y="-135"/>
			<point x="118" y="-118"/>
			<point x="79" y="-118" type="curve" smooth="yes"/>
			<point x="41" y="-118"/>
			<point x="20" y="-139"/>
			<point x="12" y="-164" type="curve"/>
			<point x="20" y="-192"/>
			<point x="57" y="-224"/>
		</contour>
		<contour>
			<point x="304" y="-81" type="line"/>
			<point x="374" y="58" type="line"/>
			<point x="337" y="58" type="line"/>
			<point x="184" y="508" type="line"/>
			<point x="71" y="508" type="line"/>
		</contour>
		<contour>
			<point x="24" y="452" type="line"/>
			<point x="132" y="443" type="line"/>
			<point x="176" y="443" type="line"/>
			<point x="299" y="452" type="line"/>
			<point x="299" y="508" type="line"/>
			<point x="24" y="508" type="line"/>
		</contour>
		<contour>
			<point x="400" y="452" type="line"/>
			<point x="504" y="443" type="line"/>
			<point x="543" y="443" type="line"/>
			<point x="636" y="452" type="line"/>
			<point x="636" y="508" type="line"/>
			<point x="400" y="508" type="line"/>
		</contour>
	</outline>
	<anchor name="aboveLC" x="338" y="544"/>
	<anchor name="belowLC" x="195" y="-224"/>
</glyph>
<glyph name="z" format="2">
	<unicode hex="007A"/>
	<advance width="525"/>
	<outline>
		<contour>
			<point x="36" y="0" type="line"/>
			<point x="482" y="0" type="line"/>
			<point x="490" y="172" type="line"/>
			<point x="425" y="172" type="line"/>
			<point x="392" y="16" type="line"/>
			<point x="428" y="61" type="line"/>
			<point x="163" y="52" type="line"/>
			<point x="163" y="73" type="line"/>
			<point x="474" y="460" type="line"/>
			<point x="474" y="508" type="line"/>
			<point x="52" y="508" type="line"/>
			<point x="44" y="344" type="line"/>
			<point x="109" y="344" type="line"/>
			<point x="145" y="492" type="line"/>
			<point x="105" y="448" type="line"/>
			<point x="346" y="456" type="line"/>
			<point x="346" y="436" type="line"/>
			<point x="36" y="49" type="line"/>
		</contour>
	</outline>
	<anchor name="aboveLC" x="263" y="528"/>
	<anchor name="belowLC" x="263" y="-20"/>
</glyph>
<glyph name="braceleft" format="2">
	<unicode hex="007B"/>
	<advance width="346"/>
	<outline>
		<contour>
			<point x="40" y="255" type="line"/>
			<point x="120" y="239"/>
			<point x="152" y="216"/>
			<point x="152" y="164" type="curve" smooth="yes"/>
			<point x="152" y="112"/>
			<point x="103" y="48"/>
			<point x="103" y="-36" type="curve" smooth="yes"/>
			<point x="103" y="-112"/>
			<point x="152" y="-160"/>
			<point x="269" y="-160" type="curve" smooth="yes"/>
			<point x="317" y="-160" type="line"/>
			<point x="317" y="-107" type="line"/>
			<point x="285" y="-103" type="line" smooth="yes"/>
			<point x="222" y="-95"/>
			<point x="198" y="-71"/>
			<point x="198" y="-20" type="curve" smooth="yes"/>
			<point x="198" y="32"/>
			<point x="222" y="103"/>
			<point x="222" y="163" type="curve" smooth="yes"/>
			<point x="222" y="224"/>
			<point x="178" y="264"/>
			<point x="72" y="272" type="curve"/>
			<point x="72" y="284" type="line"/>
			<point x="178" y="292"/>
			<point x="222" y="332"/>
			<point x="222" y="393" type="curve" smooth="yes"/>
			<point x="222" y="453"/>
			<point x="198" y="524"/>
			<point x="198" y="576" type="curve" smooth="yes"/>
			<point x="198" y="627"/>
			<point x="222" y="651"/>
			<point x="285" y="659" type="curve" smooth="yes"/>
			<point x="317" y="663" type="line"/>
			<point x="317" y="716" type="line"/>
			<point x="269" y="716" type="line" smooth="yes"/>
			<point x="152" y="716"/>
			<point x="103" y="668"/>
			<point x="103" y="592" type="curve" smooth="yes"/>
			<point x="103" y="508"/>
			<point x="152" y="444"/>
			<point x="152" y="392" type="curve" smooth="yes"/>
			<point x="152" y="340"/>
			<point x="120" y="317"/>
			<point x="40" y="301" type="curve"/>
		</contour>
	</outline>
</glyph>
<glyph name="bar" format="2">
	<unicode hex="007C"/>
	<advance width="250"/>
	<outline>
		<contour>
			<point x="88" y="-214" type="line"/>
			<point x="162" y="-214" type="line"/>
			<point x="162" y="740" type="line"/>
			<point x="88" y="740" type="line"/>
		</contour>
	</outline>
</glyph>
<glyph name="asciitilde" format="2">
	<unicode hex="007E"/>
	<advance width="539"/>
	<outline>
		<contour>
			<point x="289" y="373" type="curve" smooth="yes"/>
			<point x="250" y="399"/>
			<point x="217" y="417"/>
			<point x="169" y="417" type="curve" smooth="yes"/>
			<point x="105" y="417"/>
			<point x="60" y="377"/>
			<point x="48" y="289" type="curve"/>
			<point x="105" y="279" type="line"/>
			<point x="113" y="327"/>
			<point x="129" y="347"/>
			<point x="165" y="347" type="curve" smooth="yes"/>
			<point x="198" y="347"/>
			<point x="221" y="335"/>
			<point x="249" y="315" type="curve" smooth="yes"/>
			<point x="288" y="289"/>
			<point x="321" y="271"/>
			<point x="369" y="271" type="curve" smooth="yes"/>
			<point x="434" y="271"/>
			<point x="478" y="311"/>
			<point x="491" y="399" type="curve"/>
			<point x="433" y="409" type="line"/>
			<point x="425" y="361"/>
			<point x="409" y="341"/>
			<point x="373" y="341" type="curve" smooth="yes"/>
			<point x="341" y="341"/>
			<point x="318" y="353"/>
		</contour>
	</outline>
</glyph>
<glyph name="cent" format="2">
	<unicode hex="00A2"/>
	<advance width="539"/>
	<outline>
		<contour>
			<point x="311" y="-36" type="line"/>
			<point x="311" y="668" type="line"/>
			<point x="262" y="668" type="line"/>
			<point x="262" y="-36" type="line"/>
		</contour>
		<contour>
			<point x="295" y="516" type="curve" smooth="yes"/>
			<point x="342" y="516"/>
			<point x="365" y="510"/>
			<point x="398" y="500" type="curve"/>
			<point x="343" y="551" type="line"/>
			<point x="366" y="460" type="line" smooth="yes"/>
			<point x="374" y="427"/>
			<point x="389" y="407"/>
			<point x="423" y="407" type="curve" smooth="yes"/>
			<point x="456" y="407"/>
			<point x="472" y="431"/>
			<point x="476" y="462" type="curve"/>
			<point x="456" y="515"/>
			<point x="395" y="568"/>
			<point x="273" y="568" type="curve" smooth="yes"/>
			<point x="136" y="568"/>
			<point x="40" y="458"/>
			<point x="40" y="309" type="curve" smooth="yes"/>
			<point x="40" y="162"/>
			<point x="128" y="63"/>
			<point x="267" y="63" type="curve" smooth="yes"/>
			<point x="387" y="63"/>
			<point x="444" y="123"/>
			<point x="475" y="172" type="curve"/>
			<point x="427" y="208" type="line"/>
			<point x="399" y="170"/>
			<point x="365" y="130"/>
			<point x="288" y="130" type="curve" smooth="yes"/>
			<point x="199" y="130"/>
			<point x="143" y="200"/>
			<point x="143" y="318" type="curve" smooth="yes"/>
			<point x="143" y="435"/>
			<point x="196" y="516"/>
		</contour>
	</outline>
</glyph>
<glyph name="sterling" format="2">
	<unicode hex="00A3"/>
	<advance width="540"/>
	<outline>
		<contour>
			<point x="61" y="288" type="line"/>
			<point x="398" y="288" type="line"/>
			<point x="398" y="336" type="line"/>
			<point x="61" y="336" type="line"/>
		</contour>
		<contour>
			<point x="53" y="0" type="line"/>
			<point x="486" y="0" type="line"/>
			<point x="486" y="82" type="line"/>
			<point x="141" y="70" type="line"/>
			<point x="141" y="90" type="line"/>
			<point x="190" y="118"/>
			<point x="230" y="154"/>
			<point x="230" y="241" type="curve" smooth="yes"/>
			<point x="230" y="328"/>
			<point x="199" y="392"/>
			<point x="199" y="476" type="curve" smooth="yes"/>
			<point x="199" y="559"/>
			<point x="231" y="607"/>
			<point x="303" y="607" type="curve" smooth="yes"/>
			<point x="342" y="607"/>
			<point x="374" y="599"/>
			<point x="399" y="591" type="curve"/>
			<point x="334" y="623" type="line"/>
			<point x="357" y="543" type="line" smooth="yes"/>
			<point x="371" y="495"/>
			<point x="397" y="482"/>
			<point x="426" y="482" type="curve" smooth="yes"/>
			<point x="454" y="482"/>
			<point x="470" y="499"/>
			<point x="478" y="523" type="curve"/>
			<point x="455" y="611"/>
			<point x="383" y="659"/>
			<point x="278" y="659" type="curve" smooth="yes"/>
			<point x="157" y="659"/>
			<point x="92" y="575"/>
			<point x="92" y="475" type="curve" smooth="yes"/>
			<point x="92" y="367"/>
			<point x="156" y="304"/>
			<point x="156" y="233" type="curve" smooth="yes"/>
			<point x="156" y="161"/>
			<point x="125" y="106"/>
			<point x="53" y="58" type="curve"/>
		</contour>
	</outline>
</glyph>
<glyph name="yen" format="2">
	<unicode hex="00A5"/>
	<advance width="539"/>
	<outline>
		<contour>
			<point x="295" y="252" type="line"/>
			<point x="482" y="648" type="line"/>
			<point x="417" y="648" type="line"/>
			<point x="271" y="309" type="line"/>
			<point x="309" y="309" type="line"/>
			<point x="171" y="648" type="line"/>
			<point x="58" y="648" type="line"/>
			<point x="246" y="252" type="line"/>
		</contour>
		<contour>
			<point x="95" y="588" type="line"/>
			<point x="178" y="588" type="line"/>
			<point x="258" y="588" type="line"/>
			<point x="258" y="648" type="line"/>
			<point x="31" y="648" type="line"/>
			<point x="31" y="588" type="line"/>
		</contour>
		<contour>
			<point x="247" y="60" type="line"/>
			<point x="131" y="60" type="line"/>
			<point x="131" y="0" type="line"/>
			<point x="410" y="0" type="line"/>
			<point x="410" y="60" type="line"/>
			<point x="294" y="60" type="line"/>
		</contour>
		<contour>
			<point x="225" y="165" type="line" smooth="yes"/>
			<point x="225" y="110"/>
			<point x="225" y="55"/>
			<point x="225" y="0" type="curve"/>
			<point x="316" y="0" type="line"/>
			<point x="316" y="55"/>
			<point x="316" y="109"/>
			<point x="316" y="164" type="curve" smooth="yes"/>
			<point x="316" y="324" type="line"/>
			<point x="225" y="324" type="line"/>
		</contour>
		<contour>
			<point x="398" y="588" type="line"/>
			<point x="446" y="588" type="line"/>
			<point x="510" y="588" type="line"/>
			<point x="510" y="648" type="line"/>
			<point x="330" y="648" type="line"/>
			<point x="330" y="588" type="line"/>
		</contour>
		<contour>
			<point x="83" y="144" type="line"/>
			<point x="458" y="144" type="line"/>
			<point x="458" y="192" type="line"/>
			<point x="83" y="192" type="line"/>
		</contour>
		<contour>
			<point x="83" y="268" type="line"/>
			<point x="458" y="268" type="line"/>
			<point x="458" y="317" type="line"/>
			<point x="83" y="317" type="line"/>
		</contour>
	</outline>
</glyph>
<glyph name="brokenbar" format="2">
	<unicode hex="00A6"/>
	<advance width="250"/>
	<outline>
		<contour>
			<point x="88" y="-214" type="line"/>
			<point x="162" y="-214" type="line"/>
			<point x="162" y="196" type="line"/>
			<point x="88" y="196" type="line"/>
		</contour>
		<contour>
			<point x="162" y="332" type="line"/>
			<point x="162" y="740" type="line"/>
			<point x="88" y="740" type="line"/>
			<point x="88" y="332" type="line"/>
		</contour>
	</outline>
</glyph>
<glyph name="section" format="2">
	<unicode hex="00A7"/>
	<advance width="499"/>
	<outline>
		<contour>
			<point x="233" y="-104" type="curve" smooth="yes"/>
			<point x="342" y="-104"/>
			<point x="423" y="-48"/>
			<point x="423" y="48" type="curve" smooth="yes"/>
			<point x="423" y="103"/>
			<point x="397" y="141"/>
			<point x="342" y="174" type="curve"/>
			<point x="336" y="177" type="line"/>
			<point x="312" y="191"/>
			<point x="283" y="203"/>
			<point x="249" y="216" type="curve" smooth="yes"/>
			<point x="164" y="248"/>
			<point x="133" y="280"/>
			<point x="133" y="328" type="curve" smooth="yes"/>
			<point x="133" y="375"/>
			<point x="152" y="407"/>
			<point x="170" y="421" type="curve"/>
			<point x="139" y="444" type="line"/>
			<point x="139" y="413" type="line"/>
			<point x="92" y="394"/>
			<point x="44" y="366"/>
			<point x="44" y="298" type="curve" smooth="yes"/>
			<point x="44" y="214"/>
			<point x="115" y="174"/>
			<point x="217" y="134" type="curve" smooth="yes"/>
			<point x="301" y="102"/>
			<point x="336" y="75"/>
			<point x="336" y="23" type="curve" smooth="yes"/>
			<point x="336" y="-28"/>
			<point x="297" y="-64"/>
			<point x="229" y="-64" type="curve" smooth="yes"/>
			<point x="197" y="-64"/>
			<point x="169" y="-60"/>
			<point x="153" y="-56" type="curve"/>
			<point x="190" y="-80" type="line"/>
			<point x="166" y="-16" type="line" smooth="yes"/>
			<point x="150" y="28"/>
			<point x="130" y="41"/>
			<point x="98" y="41" type="curve" smooth="yes"/>
			<point x="72" y="41"/>
			<point x="56" y="28"/>
			<point x="48" y="4" type="curve"/>
			<point x="64" y="-60"/>
			<point x="128" y="-104"/>
		</contour>
		<contour>
			<point x="253" y="687" type="curve" smooth="yes"/>
			<point x="149" y="687"/>
			<point x="68" y="635"/>
			<point x="68" y="543" type="curve" smooth="yes"/>
			<point x="68" y="491"/>
			<point x="94" y="455"/>
			<point x="147" y="425" type="curve"/>
			<point x="155" y="420" type="line"/>
			<point x="178" y="407"/>
			<point x="208" y="395"/>
			<point x="241" y="382" type="curve" smooth="yes"/>
			<point x="326" y="350"/>
			<point x="358" y="318"/>
			<point x="358" y="271" type="curve" smooth="yes"/>
			<point x="358" y="223"/>
			<point x="338" y="192"/>
			<point x="321" y="178" type="curve"/>
			<point x="352" y="154" type="line"/>
			<point x="352" y="185" type="line"/>
			<point x="399" y="204"/>
			<point x="446" y="233"/>
			<point x="446" y="301" type="curve" smooth="yes"/>
			<point x="446" y="385"/>
			<point x="376" y="425"/>
			<point x="273" y="465" type="curve" smooth="yes"/>
			<point x="190" y="497"/>
			<point x="154" y="520"/>
			<point x="154" y="567" type="curve" smooth="yes"/>
			<point x="154" y="615"/>
			<point x="194" y="647"/>
			<point x="257" y="647" type="curve" smooth="yes"/>
			<point x="285" y="647"/>
			<point x="313" y="643"/>
			<point x="329" y="639" type="curve"/>
			<point x="293" y="662" type="line"/>
			<point x="316" y="599" type="line" smooth="yes"/>
			<point x="333" y="554"/>
			<point x="353" y="542"/>
			<point x="385" y="542" type="curve" smooth="yes"/>
			<point x="410" y="542"/>
			<point x="427" y="554"/>
			<point x="435" y="579" type="curve"/>
			<point x="419" y="643"/>
			<point x="354" y="687"/>
		</contour>
	</outline>
</glyph>
<glyph name="copyright" format="2">
	<unicode hex="00A9"/>
	<advance width="755"/>
	<outline>
		<contour>
			<point x="88" y="337" type="curve" smooth="yes"/>
			<point x="88" y="523"/>
			<point x="213" y="636"/>
			<point x="378" y="636" type="curve" smooth="yes"/>
			<point x="542" y="636"/>
			<point x="667" y="523"/>
			<point x="667" y="337" type="curve" smooth="yes"/>
			<point x="667" y="149"/>
			<point x="542" y="33"/>
			<point x="378" y="33" type="curve" smooth="yes"/>
			<point x="213" y="33"/>
			<point x="88" y="148"/>
		</contour>
		<contour>
			<point x="30" y="337" type="curve" smooth="yes"/>
			<point x="30" y="119"/>
			<point x="184" y="-15"/>
			<point x="378" y="-15" type="curve" smooth="yes"/>
			<point x="571" y="-15"/>
			<point x="725" y="119"/>
			<point x="725" y="337" type="curve" smooth="yes"/>
			<point x="725" y="554"/>
			<point x="571" y="684"/>
			<point x="378" y="684" type="curve" smooth="yes"/>
			<point x="184" y="684"/>
			<point x="30" y="554"/>
		</contour>
		<contour>
			<point x="401" y="183" type="curve" smooth="yes"/>
			<point x="323" y="183"/>
			<point x="270" y="238"/>
			<point x="270" y="338" type="curve" smooth="yes"/>
			<point x="270" y="438"/>
			<point x="329" y="493"/>
			<point x="402" y="493" type="curve" smooth="yes"/>
			<point x="429" y="493"/>
			<point x="462" y="486"/>
			<point x="494" y="466" type="curve"/>
			<point x="442" y="514" type="line"/>
			<point x="462" y="402" type="line"/>
			<point x="509" y="402" type="line"/>
			<point x="507" y="513" type="line"/>
			<point x="469" y="535"/>
			<point x="437" y="541"/>
			<point x="393" y="541" type="curve" smooth="yes"/>
			<point x="282" y="541"/>
			<point x="198" y="455"/>
			<point x="198" y="337" type="curve" smooth="yes"/>
			<point x="198" y="218"/>
			<point x="278" y="134"/>
			<point x="394" y="134" type="curve" smooth="yes"/>
			<point x="437" y="134"/>
			<point x="477" y="143"/>
			<point x="512" y="161" type="curve"/>
			<point x="515" y="273" type="line"/>
			<point x="467" y="273" type="line"/>
			<point x="447" y="161" type="line"/>
			<point x="499" y="208" type="line"/>
			<point x="469" y="188"/>
			<point x="425" y="183"/>
		</contour>
	</outline>
</glyph>
<glyph name="logicalnot" format="2">
	<unicode hex="00AC"/>
	<advance width="540"/>
	<outline>
		<contour>
			<point x="32" y="333" type="line"/>
			<point x="455" y="333" type="line"/>
			<point x="435" y="364" type="line"/>
			<point x="435" y="140" type="line"/>
			<point x="507" y="140" type="line"/>
			<point x="507" y="400" type="line"/>
			<point x="32" y="400" type="line"/>
		</contour>
	</outline>
</glyph>
<glyph name="registered" format="2">
	<unicode hex="00AE"/>
	<advance width="461"/>
	<outline>
		<contour>
			<point x="333" y="444" type="line"/>
			<point x="284" y="444" type="line"/>
			<point x="313" y="436" type="line"/>
			<point x="301" y="480" type="line" smooth="yes"/>
			<point x="293" y="508"/>
			<point x="281" y="512"/>
			<point x="225" y="512" type="curve"/>
			<point x="225" y="520" type="line"/>
			<point x="281" y="520"/>
			<point x="311" y="532"/>
			<point x="311" y="568" type="curve" smooth="yes"/>
			<point x="311" y="600"/>
			<point x="281" y="620"/>
			<point x="228" y="620" type="curve" smooth="yes"/>
			<point x="189" y="620" type="line"/>
			<point x="189" y="596" type="line"/>
			<point x="224" y="596" type="line" smooth="yes"/>
			<point x="252" y="596"/>
			<point x="264" y="584"/>
			<point x="264" y="564" type="curve" smooth="yes"/>
			<point x="264" y="544"/>
			<point x="252" y="528"/>
			<point x="224" y="528" type="curve" smooth="yes"/>
			<point x="189" y="528" type="line"/>
			<point x="189" y="504" type="line"/>
			<point x="224" y="504" type="line" smooth="yes"/>
			<point x="244" y="504"/>
			<point x="250" y="500"/>
			<point x="254" y="482" type="curve" smooth="yes"/>
			<point x="260" y="452" type="line" smooth="yes"/>
			<point x="266" y="424"/>
			<point x="276" y="414"/>
			<point x="308" y="414" type="curve" smooth="yes"/>
			<point x="320" y="414"/>
			<point x="327" y="415"/>
			<point x="333" y="416" type="curve"/>
		</contour>
		<contour>
			<point x="177" y="444" type="line"/>
			<point x="132" y="444" type="line"/>
			<point x="132" y="416" type="line"/>
			<point x="232" y="416" type="line"/>
			<point x="232" y="444" type="line"/>
			<point x="186" y="444" type="line"/>
		</contour>
		<contour>
			<point x="176" y="592" type="line"/>
			<point x="184" y="592" type="line"/>
			<point x="184" y="620" type="line"/>
			<point x="132" y="620" type="line"/>
			<point x="132" y="592" type="line"/>
		</contour>
		<contour>
			<point x="69" y="516" type="curve" smooth="yes"/>
			<point x="69" y="616"/>
			<point x="141" y="678"/>
			<point x="229" y="678" type="curve" smooth="yes"/>
			<point x="317" y="678"/>
			<point x="390" y="616"/>
			<point x="390" y="516" type="curve" smooth="yes"/>
			<point x="390" y="416"/>
			<point x="317" y="352"/>
			<point x="229" y="352" type="curve" smooth="yes"/>
			<point x="141" y="352"/>
			<point x="69" y="416"/>
		</contour>
		<contour>
			<point x="160" y="416" type="line"/>
			<point x="205" y="416" type="line"/>
			<point x="205" y="620" type="line"/>
			<point x="160" y="620" type="line"/>
		</contour>
		<contour>
			<point x="30" y="516" type="curve" smooth="yes"/>
			<point x="30" y="393"/>
			<point x="119" y="317"/>
			<point x="229" y="317" type="curve" smooth="yes"/>
			<point x="337" y="317"/>
			<point x="429" y="393"/>
			<point x="429" y="516" type="curve" smooth="yes"/>
			<point x="429" y="639"/>
			<point x="336" y="712"/>
			<point x="229" y="712" type="curve" smooth="yes"/>
			<point x="123" y="712"/>
			<point x="30" y="639"/>
		</contour>
	</outline>
</glyph>
<glyph name="degree" format="2">
	<unicode hex="00B0"/>
	<advance width="360"/>
	<outline>
		<contour>
			<point x="180" y="459" type="curve" smooth="yes"/>
			<point x="128" y="459"/>
			<point x="92" y="497"/>
			<point x="92" y="551" type="curve" smooth="yes"/>
			<point x="92" y="605"/>
			<point x="128" y="643"/>
			<point x="180" y="643" type="curve" smooth="yes"/>
			<point x="232" y="643"/>
			<point x="268" y="605"/>
			<point x="268" y="551" type="curve" smooth="yes"/>
			<point x="268" y="497"/>
			<point x="232" y="459"/>
		</contour>
		<contour>
			<point x="180" y="415" type="curve" smooth="yes"/>
			<point x="260" y="415"/>
			<point x="320" y="468"/>
			<point x="320" y="551" type="curve" smooth="yes"/>
			<point x="320" y="633"/>
			<point x="260" y="687"/>
			<point x="180" y="687" type="curve" smooth="yes"/>
			<point x="100" y="687"/>
			<point x="40" y="633"/>
			<point x="40" y="551" type="curve" smooth="yes"/>
			<point x="40" y="468"/>
			<point x="100" y="415"/>
		</contour>
	</outline>
</glyph>
<glyph name="plusminus" format="2">
	<unicode hex="00B1"/>
	<advance width="539"/>
	<outline>
		<contour>
			<point x="233" y="110" type="line"/>
			<point x="305" y="110" type="line"/>
			<point x="305" y="547" type="line"/>
			<point x="233" y="547" type="line"/>
		</contour>
		<contour>
			<point x="507" y="295" type="line"/>
			<point x="507" y="362" type="line"/>
			<point x="32" y="362" type="line"/>
			<point x="32" y="295" type="line"/>
		</contour>
		<contour>
			<point x="507" y="0" type="line"/>
			<point x="507" y="68" type="line"/>
			<point x="32" y="68" type="line"/>
			<point x="32" y="0" type="line"/>
		</contour>
	</outline>
</glyph>
<glyph name="two.sups" format="2">
	<unicode hex="00B2"/>
	<advance width="325"/>
	<outline>
		<contour>
			<point x="27" y="406" type="line"/>
			<point x="303" y="406" type="line"/>
			<point x="303" y="463" type="line"/>
			<point x="97" y="456" type="line"/>
			<point x="97" y="488" type="line"/>
			<point x="82" y="455" type="line"/>
			<point x="180" y="542" type="line" smooth="yes"/>
			<point x="276" y="627"/>
			<point x="303" y="676"/>
			<point x="303" y="737" type="curve" smooth="yes"/>
			<point x="303" y="820"/>
			<point x="236" y="856"/>
			<point x="158" y="856" type="curve" smooth="yes"/>
			<point x="80" y="856"/>
			<point x="26" y="811"/>
			<point x="18" y="754" type="curve"/>
			<point x="21" y="743"/>
			<point x="30" y="721"/>
			<point x="61" y="721" type="curve" smooth="yes"/>
			<point x="92" y="721"/>
			<point x="104" y="743"/>
			<point x="112" y="778" type="curve" smooth="yes"/>
			<point x="123" y="835" type="line"/>
			<point x="79" y="813" type="line"/>
			<point x="93" y="815"/>
			<point x="107" y="817"/>
			<point x="131" y="817" type="curve" smooth="yes"/>
			<point x="181" y="817"/>
			<point x="212" y="784"/>
			<point x="212" y="730" type="curve" smooth="yes"/>
			<point x="212" y="682"/>
			<point x="193" y="629"/>
			<point x="121" y="553" type="curve" smooth="yes"/>
			<point x="27" y="456" type="line"/>
		</contour>
	</outline>
</glyph>
<glyph name="three.sups" format="2">
	<unicode hex="00B3"/>
	<advance width="347"/>
	<outline>
		<contour>
			<point x="153" y="398" type="curve" smooth="yes"/>
			<point x="262" y="398"/>
			<point x="319" y="456"/>
			<point x="319" y="529" type="curve" smooth="yes"/>
			<point x="319" y="603"/>
			<point x="260" y="631"/>
			<point x="167" y="637" type="curve"/>
			<point x="167" y="647" type="line"/>
			<point x="246" y="653"/>
			<point x="313" y="687"/>
			<point x="313" y="753" type="curve" smooth="yes"/>
			<point x="313" y="820"/>
			<point x="246" y="856"/>
			<point x="154" y="856" type="curve" smooth="yes"/>
			<point x="92" y="856"/>
			<point x="39" y="822"/>
			<point x="32" y="768" type="curve"/>
			<point x="35" y="753"/>
			<point x="44" y="734"/>
			<point x="70" y="734" type="curve" smooth="yes"/>
			<point x="95" y="734"/>
			<point x="108" y="746"/>
			<point x="115" y="785" type="curve" smooth="yes"/>
			<point x="123" y="835" type="line"/>
			<point x="88" y="815" type="line"/>
			<point x="102" y="815"/>
			<point x="114" y="817"/>
			<point x="134" y="817" type="curve" smooth="yes"/>
			<point x="199" y="817"/>
			<point x="223" y="789"/>
			<point x="223" y="740" type="curve" smooth="yes"/>
			<point x="223" y="690"/>
			<point x="198" y="662"/>
			<point x="136" y="662" type="curve" smooth="yes"/>
			<point x="115" y="662" type="line"/>
			<point x="115" y="619" type="line"/>
			<point x="143" y="619" type="line" smooth="yes"/>
			<point x="204" y="619"/>
			<point x="232" y="586"/>
			<point x="232" y="530" type="curve" smooth="yes"/>
			<point x="232" y="473"/>
			<point x="204" y="437"/>
			<point x="137" y="437" type="curve" smooth="yes"/>
			<point x="115" y="437"/>
			<point x="95" y="439"/>
			<point x="85" y="439" type="curve"/>
			<point x="114" y="419" type="line"/>
			<point x="107" y="469" type="line" smooth="yes"/>
			<point x="99" y="508"/>
			<point x="85" y="520"/>
			<point x="61" y="520" type="curve" smooth="yes"/>
			<point x="35" y="520"/>
			<point x="24" y="501"/>
			<point x="20" y="486" type="curve"/>
			<point x="28" y="431"/>
			<point x="73" y="398"/>
		</contour>
	</outline>
</glyph>
<glyph name="paragraph" format="2">
	<unicode hex="00B6"/>
	<advance width="604"/>
	<outline>
		<contour>
			<point x="316" y="146" type="curve"/>
			<point x="316" y="605" type="line"/>
			<point x="428" y="605" type="line"/>
			<point x="428" y="669" type="line"/>
			<point x="332" y="669" type="line" smooth="yes"/>
			<point x="147" y="669"/>
			<point x="24" y="575"/>
			<point x="24" y="409" type="curve" smooth="yes"/>
			<point x="24" y="242"/>
			<point x="147" y="146"/>
		</contour>
		<contour>
			<point x="396" y="-131" type="curve"/>
			<point x="480" y="-131" type="line"/>
			<point x="480" y="-27"/>
			<point x="480" y="77"/>
			<point x="480" y="181" type="curve" smooth="yes"/>
			<point x="480" y="359" type="line" smooth="yes"/>
			<point x="480" y="463"/>
			<point x="480" y="565"/>
			<point x="480" y="669" type="curve"/>
			<point x="396" y="669" type="line"/>
			<point x="396" y="181" type="line" smooth="yes"/>
			<point x="396" y="77"/>
			<point x="396" y="-27"/>
		</contour>
		<contour>
			<point x="447" y="605" type="line"/>
			<point x="463" y="605" type="line"/>
			<point x="571" y="605" type="line"/>
			<point x="571" y="669" type="line"/>
			<point x="447" y="669" type="line"/>
		</contour>
	</outline>
</glyph>
<glyph name="one.sups" format="2">
	<unicode hex="00B9"/>
	<advance width="271"/>
	<outline>
		<contour>
			<point x="23" y="406" type="line"/>
			<point x="255" y="406" type="line"/>
			<point x="255" y="455" type="line"/>
			<point x="160" y="455" type="line"/>
			<point x="122" y="455" type="line"/>
			<point x="23" y="455" type="line"/>
		</contour>
		<contour>
			<point x="95" y="406" type="line"/>
			<point x="186" y="406" type="line"/>
			<point x="186" y="848" type="line"/>
			<point x="154" y="848" type="line"/>
			<point x="24" y="809" type="line"/>
			<point x="24" y="763" type="line"/>
			<point x="95" y="773" type="line"/>
		</contour>
	</outline>
</glyph>
<glyph name="AE" format="2">
	<unicode hex="00C6"/>
	<advance width="991"/>
	<outline>
		<contour>
			<point x="481" y="0" type="curve"/>
			<point x="593" y="0" type="line"/>
			<point x="593" y="104"/>
			<point x="593" y="207"/>
			<point x="593" y="311" type="curve" smooth="yes"/>
			<point x="593" y="360" type="line" smooth="yes"/>
			<point x="593" y="464"/>
			<point x="593" y="566"/>
			<point x="593" y="669" type="curve"/>
			<point x="481" y="669" type="line"/>
			<point x="481" y="311" type="line" smooth="yes"/>
			<point x="481" y="207"/>
			<point x="481" y="104"/>
		</contour>
		<contour>
			<point x="20" y="0" type="line"/>
			<point x="268" y="0" type="line"/>
			<point x="268" y="65" type="line"/>
			<point x="152" y="65" type="line"/>
			<point x="117" y="65" type="line"/>
			<point x="20" y="65" type="line"/>
		</contour>
		<contour>
			<point x="739" y="224" type="line"/>
			<point x="800" y="224" type="line"/>
			<point x="800" y="459" type="line"/>
			<point x="739" y="459" type="line"/>
			<point x="715" y="356" type="line"/>
			<point x="715" y="328" type="line"/>
		</contour>
		<contour>
			<point x="858" y="488" type="line"/>
			<point x="923" y="488" type="line"/>
			<point x="915" y="669" type="line"/>
			<point x="540" y="669" type="line"/>
			<point x="540" y="605" type="line"/>
			<point x="827" y="605" type="line"/>
		</contour>
		<contour>
			<point x="533" y="0" type="line"/>
			<point x="935" y="0" type="line"/>
			<point x="943" y="192" type="line"/>
			<point x="878" y="192" type="line"/>
			<point x="847" y="64" type="line"/>
			<point x="533" y="64" type="line"/>
		</contour>
		<contour>
			<point x="305" y="605" type="line"/>
			<point x="498" y="605" type="line"/>
			<point x="514" y="605" type="line"/>
			<point x="514" y="669" type="line"/>
			<point x="305" y="669" type="line"/>
		</contour>
		<contour>
			<point x="379" y="0" type="line"/>
			<point x="529" y="0" type="line"/>
			<point x="529" y="65" type="line"/>
			<point x="513" y="65" type="line"/>
			<point x="379" y="65" type="line"/>
		</contour>
		<contour>
			<point x="64" y="0" type="line"/>
			<point x="139" y="0" type="line"/>
			<point x="504" y="669" type="line"/>
			<point x="434" y="669" type="line"/>
		</contour>
		<contour>
			<point x="242" y="226" type="line"/>
			<point x="500" y="226" type="line"/>
			<point x="500" y="283" type="line"/>
			<point x="242" y="283" type="line"/>
		</contour>
		<contour>
			<point x="539" y="311" type="line"/>
			<point x="767" y="311" type="line"/>
			<point x="767" y="372" type="line"/>
			<point x="539" y="372" type="line"/>
		</contour>
	</outline>
	<anchor name="aboveUC" x="539" y="689"/>
</glyph>
<glyph name="Idieresis" format="2">
	<unicode hex="00CF"/>
	<advance width="382"/>
	<outline>
		<contour>
			<point x="93" y="742" type="curve" smooth="yes"/>
			<point x="130" y="742"/>
			<point x="158" y="770"/>
			<point x="158" y="807" type="curve" smooth="yes"/>
			<point x="158" y="843"/>
			<point x="130" y="872"/>
			<point x="93" y="872" type="curve" smooth="yes"/>
			<point x="57" y="872"/>
			<point x="28" y="843"/>
			<point x="28" y="807" type="curve" smooth="yes"/>
			<point x="28" y="770"/>
			<point x="57" y="742"/>
		</contour>
		<contour>
			<point x="288" y="742" type="curve" smooth="yes"/>
			<point x="325" y="742"/>
			<point x="354" y="770"/>
			<point x="354" y="807" type="curve" smooth="yes"/>
			<point x="354" y="843"/>
			<point x="325" y="872"/>
			<point x="288" y="872" type="curve" smooth="yes"/>
			<point x="252" y="872"/>
			<point x="223" y="843"/>
			<point x="223" y="807" type="curve" smooth="yes"/>
			<point x="223" y="770"/>
			<point x="252" y="742"/>
		</contour>
		<component base="I"/>
	</outline>
</glyph>
<glyph name="Eth" format="2">
	<unicode hex="00D0"/>
	<advance width="770"/>
	<outline>
		<contour>
			<point x="389" y="315" type="line"/>
			<point x="389" y="370" type="line"/>
			<point x="37" y="370" type="line"/>
			<point x="37" y="315" type="line"/>
		</contour>
		<component base="D"/>
	</outline>
</glyph>
<glyph name="multiply" format="2">
	<unicode hex="00D7"/>
	<advance width="539"/>
	<outline>
		<contour>
			<point x="439" y="110" type="line"/>
			<point x="488" y="159" type="line"/>
			<point x="98" y="550" type="line"/>
			<point x="48" y="500" type="line"/>
		</contour>
		<contour>
			<point x="487" y="501" type="line"/>
			<point x="440" y="549" type="line"/>
			<point x="49" y="158" type="line"/>
			<point x="97" y="111" type="line"/>
		</contour>
	</outline>
</glyph>
<glyph name="Oslash" format="2">
	<unicode hex="00D8"/>
	<advance width="769"/>
	<outline>
		<contour>
			<point x="714" y="649" type="line"/>
			<point x="673" y="685" type="line"/>
			<point x="56" y="20" type="line"/>
			<point x="96" y="-16" type="line"/>
		</contour>
		<contour>
			<point x="156" y="336" type="curve" smooth="yes"/>
			<point x="156" y="500"/>
			<point x="235" y="623"/>
			<point x="385" y="623" type="curve" smooth="yes"/>
			<point x="535" y="623"/>
			<point x="613" y="499"/>
			<point x="613" y="336" type="curve" smooth="yes"/>
			<point x="613" y="172"/>
			<point x="535" y="47"/>
			<point x="385" y="47" type="curve" smooth="yes"/>
			<point x="235" y="47"/>
			<point x="156" y="172"/>
		</contour>
		<contour>
			<point x="385" y="685" type="curve" smooth="yes"/>
			<point x="185" y="685"/>
			<point x="48" y="545"/>
			<point x="48" y="332" type="curve" smooth="yes"/>
			<point x="48" y="119"/>
			<point x="185" y="-16"/>
			<point x="385" y="-16" type="curve" smooth="yes"/>
			<point x="584" y="-16"/>
			<point x="721" y="127"/>
			<point x="721" y="340" type="curve" smooth="yes"/>
			<point x="721" y="552"/>
			<point x="584" y="685"/>
		</contour>
	</outline>
	<anchor name="aboveUC" x="385" y="689"/>
</glyph>
<glyph name="Thorn" format="2">
	<unicode hex="00DE"/>
	<advance width="639"/>
	<outline>
		<contour>
			<point x="199" y="155" type="line"/>
			<point x="306" y="155" type="line" smooth="yes"/>
			<point x="503" y="155"/>
			<point x="599" y="235"/>
			<point x="599" y="351" type="curve" smooth="yes"/>
			<point x="599" y="467"/>
			<point x="503" y="533"/>
			<point x="322" y="533" type="curve" smooth="yes"/>
			<point x="215" y="533" type="line"/>
			<point x="215" y="473" type="line"/>
			<point x="314" y="473" type="line" smooth="yes"/>
			<point x="436" y="473"/>
			<point x="485" y="431"/>
			<point x="485" y="347" type="curve" smooth="yes"/>
			<point x="485" y="263"/>
			<point x="436" y="216"/>
			<point x="298" y="216" type="curve" smooth="yes"/>
			<point x="199" y="216" type="line"/>
		</contour>
		<contour>
			<point x="135" y="0" type="curve"/>
			<point x="247" y="0" type="line"/>
			<point x="247" y="104"/>
			<point x="247" y="207"/>
			<point x="247" y="311" type="curve" smooth="yes"/>
			<point x="247" y="360" type="line" smooth="yes"/>
			<point x="247" y="464"/>
			<point x="247" y="566"/>
			<point x="247" y="669" type="curve"/>
			<point x="135" y="669" type="line"/>
			<point x="135" y="566"/>
			<point x="135" y="464"/>
			<point x="135" y="360" type="curve" smooth="yes"/>
			<point x="135" y="311" type="line" smooth="yes"/>
			<point x="135" y="207"/>
			<point x="135" y="104"/>
		</contour>
		<contour>
			<point x="183" y="605" type="line"/>
			<point x="230" y="605" type="line"/>
			<point x="366" y="605" type="line"/>
			<point x="366" y="669" type="line"/>
			<point x="32" y="669" type="line"/>
			<point x="32" y="605" type="line"/>
		</contour>
		<contour>
			<point x="32" y="0" type="line"/>
			<point x="366" y="0" type="line"/>
			<point x="366" y="65" type="line"/>
			<point x="214" y="65" type="line"/>
			<point x="167" y="65" type="line"/>
			<point x="32" y="65" type="line"/>
		</contour>
	</outline>
</glyph>
<glyph name="germandbls" format="2">
	<unicode hex="00DF"/>
	<advance width="671"/>
	<outline>
		<contour>
			<point x="39" y="0" type="line"/>
			<point x="206" y="0" type="line"/>
			<point x="206" y="61" type="line"/>
			<point x="139" y="61" type="line"/>
			<point x="39" y="61" type="line"/>
		</contour>
		<contour>
			<point x="122" y="0" type="curve"/>
			<point x="223" y="0" type="line"/>
			<point x="223" y="73"/>
			<point x="223" y="147"/>
			<point x="223" y="220" type="curve" smooth="yes"/>
			<point x="223" y="494" type="line" smooth="yes"/>
			<point x="223" y="562"/>
			<point x="238" y="610"/>
			<point x="264" y="643" type="curve" smooth="yes"/>
			<point x="292" y="675"/>
			<point x="330" y="691"/>
			<point x="377" y="691" type="curve" smooth="yes"/>
			<point x="448" y="691"/>
			<point x="484" y="655"/>
			<point x="484" y="607" type="curve" smooth="yes"/>
			<point x="484" y="558"/>
			<point x="453" y="519"/>
			<point x="420" y="486" type="curve" smooth="yes"/>
			<point x="387" y="454"/>
			<point x="352" y="418"/>
			<point x="352" y="362" type="curve" smooth="yes"/>
			<point x="352" y="298"/>
			<point x="392" y="266"/>
			<point x="456" y="226" type="curve" smooth="yes"/>
			<point x="520" y="187"/>
			<point x="544" y="163"/>
			<point x="544" y="120" type="curve" smooth="yes"/>
			<point x="544" y="76"/>
			<point x="516" y="41"/>
			<point x="455" y="41" type="curve" smooth="yes"/>
			<point x="416" y="41"/>
			<point x="384" y="49"/>
			<point x="352" y="64" type="curve"/>
			<point x="406" y="16" type="line"/>
			<point x="382" y="152" type="line"/>
			<point x="325" y="152" type="line"/>
			<point x="324" y="12" type="line"/>
			<point x="345" y="4"/>
			<point x="393" y="-12"/>
			<point x="457" y="-12" type="curve" smooth="yes"/>
			<point x="574" y="-12"/>
			<point x="639" y="52"/>
			<point x="639" y="131" type="curve" smooth="yes"/>
			<point x="639" y="206"/>
			<point x="590" y="246"/>
			<point x="525" y="286" type="curve" smooth="yes"/>
			<point x="462" y="326"/>
			<point x="431" y="349"/>
			<point x="431" y="389" type="curve" smooth="yes"/>
			<point x="431" y="428"/>
			<point x="458" y="459"/>
			<point x="498" y="491" type="curve" smooth="yes"/>
			<point x="539" y="523"/>
			<point x="575" y="558"/>
			<point x="575" y="623" type="curve" smooth="yes"/>
			<point x="575" y="703"/>
			<point x="499" y="751"/>
			<point x="381" y="751" type="curve" smooth="yes"/>
			<point x="321" y="751"/>
			<point x="262" y="735"/>
			<point x="217" y="701" type="curve" smooth="yes"/>
			<point x="160" y="656"/>
			<point x="122" y="580"/>
			<point x="122" y="466" type="curve" smooth="yes"/>
			<point x="122" y="220" type="line" smooth="yes"/>
			<point x="122" y="147"/>
			<point x="122" y="73"/>
		</contour>
	</outline>
</glyph>
<glyph name="ae" format="2">
	<unicode hex="00E6"/>
	<advance width="868"/>
	<outline>
		<contour>
			<point x="198" y="-16" type="curve" smooth="yes"/>
			<point x="304" y="-16"/>
			<point x="343" y="36"/>
			<point x="383" y="99" type="curve"/>
			<point x="404" y="99" type="line"/>
			<point x="403" y="155" type="line"/>
			<point x="344" y="101"/>
			<point x="305" y="58"/>
			<point x="238" y="58" type="curve" smooth="yes"/>
			<point x="179" y="58"/>
			<point x="147" y="94"/>
			<point x="147" y="141" type="curve" smooth="yes"/>
			<point x="147" y="189"/>
			<point x="171" y="215"/>
			<point x="242" y="237" type="curve" smooth="yes"/>
			<point x="293" y="252"/>
			<point x="344" y="268"/>
			<point x="395" y="284" type="curve"/>
			<point x="395" y="330" type="line"/>
			<point x="333" y="313"/>
			<point x="272" y="298"/>
			<point x="209" y="281" type="curve" smooth="yes"/>
			<point x="104" y="253"/>
			<point x="47" y="208"/>
			<point x="47" y="120" type="curve" smooth="yes"/>
			<point x="47" y="32"/>
			<point x="111" y="-16"/>
		</contour>
		<contour>
			<point x="606" y="-12" type="curve" smooth="yes"/>
			<point x="721" y="-12"/>
			<point x="777" y="36"/>
			<point x="825" y="95" type="curve"/>
			<point x="779" y="142" type="line"/>
			<point x="745" y="101"/>
			<point x="705" y="60"/>
			<point x="628" y="60" type="curve" smooth="yes"/>
			<point x="531" y="60"/>
			<point x="463" y="133"/>
			<point x="463" y="255" type="curve" smooth="yes"/>
			<point x="463" y="377"/>
			<point x="518" y="462"/>
			<point x="604" y="462" type="curve" smooth="yes"/>
			<point x="675" y="462"/>
			<point x="716" y="416"/>
			<point x="716" y="333" type="curve" smooth="yes"/>
			<point x="716" y="317"/>
			<point x="714" y="303"/>
			<point x="712" y="296" type="curve" smooth="yes"/>
			<point x="431" y="288" type="line"/>
			<point x="431" y="244" type="line"/>
			<point x="805" y="236" type="line"/>
			<point x="809" y="252"/>
			<point x="813" y="284"/>
			<point x="813" y="312" type="curve" smooth="yes"/>
			<point x="813" y="448"/>
			<point x="741" y="520"/>
			<point x="604" y="520" type="curve" smooth="yes"/>
			<point x="516" y="520"/>
			<point x="464" y="484"/>
			<point x="433" y="412" type="curve"/>
			<point x="421" y="412" type="line"/>
			<point x="403" y="483"/>
			<point x="353" y="520"/>
			<point x="276" y="520" type="curve" smooth="yes"/>
			<point x="168" y="520"/>
			<point x="76" y="456"/>
			<point x="60" y="372" type="curve"/>
			<point x="64" y="352"/>
			<point x="80" y="328"/>
			<point x="116" y="328" type="curve" smooth="yes"/>
			<point x="153" y="328"/>
			<point x="174" y="348"/>
			<point x="178" y="397" type="curve" smooth="yes"/>
			<point x="186" y="493" type="line"/>
			<point x="157" y="444" type="line"/>
			<point x="180" y="456"/>
			<point x="209" y="464"/>
			<point x="248" y="464" type="curve" smooth="yes"/>
			<point x="323" y="464"/>
			<point x="363" y="428"/>
			<point x="363" y="341" type="curve" smooth="yes"/>
			<point x="363" y="246" type="line" smooth="yes"/>
			<point x="363" y="92"/>
			<point x="448" y="-12"/>
		</contour>
	</outline>
	<anchor name="aboveLC" x="434" y="528"/>
	<anchor name="belowLC" x="434" y="-20"/>
</glyph>
<glyph name="idieresis" format="2">
	<unicode hex="00EF"/>
	<advance width="360"/>
	<outline>
		<contour>
			<point x="82" y="612" type="curve" smooth="yes"/>
			<point x="118" y="612"/>
			<point x="146" y="640"/>
			<point x="146" y="676" type="curve" smooth="yes"/>
			<point x="146" y="712"/>
			<point x="118" y="740"/>
			<point x="82" y="740" type="curve" smooth="yes"/>
			<point x="46" y="740"/>
			<point x="18" y="712"/>
			<point x="18" y="676" type="curve" smooth="yes"/>
			<point x="18" y="640"/>
			<point x="46" y="612"/>
		</contour>
		<contour>
			<point x="278" y="612" type="curve" smooth="yes"/>
			<point x="314" y="612"/>
			<point x="342" y="640"/>
			<point x="342" y="676" type="curve" smooth="yes"/>
			<point x="342" y="712"/>
			<point x="314" y="740"/>
			<point x="278" y="740" type="curve" smooth="yes"/>
			<point x="242" y="740"/>
			<point x="214" y="712"/>
			<point x="214" y="676" type="curve" smooth="yes"/>
			<point x="214" y="640"/>
			<point x="242" y="612"/>
		</contour>
		<component base="dotlessi"/>
	</outline>
</glyph>
<glyph name="eth" format="2">
	<unicode hex="00F0"/>
	<advance width="586"/>
	<outline>
		<contour>
			<point x="293" y="-12" type="curve" smooth="yes"/>
			<point x="430" y="-12"/>
			<point x="539" y="99"/>
			<point x="539" y="277" type="curve" smooth="yes"/>
			<point x="539" y="532"/>
			<point x="385" y="651"/>
			<point x="183" y="741" type="curve"/>
			<point x="155" y="700" type="line"/>
			<point x="327" y="602"/>
			<point x="414" y="518"/>
			<point x="458" y="343" type="curve"/>
			<point x="438" y="343" type="line"/>
			<point x="422" y="421"/>
			<point x="380" y="480"/>
			<point x="281" y="480" type="curve" smooth="yes"/>
			<point x="159" y="480"/>
			<point x="48" y="392"/>
			<point x="48" y="230" type="curve" smooth="yes"/>
			<point x="48" y="68"/>
			<point x="156" y="-12"/>
		</contour>
		<contour>
			<point x="293" y="49" type="curve" smooth="yes"/>
			<point x="205" y="49"/>
			<point x="156" y="116"/>
			<point x="156" y="234" type="curve" smooth="yes"/>
			<point x="156" y="352"/>
			<point x="205" y="419"/>
			<point x="295" y="419" type="curve" smooth="yes"/>
			<point x="383" y="419"/>
			<point x="431" y="352"/>
			<point x="431" y="234" type="curve" smooth="yes"/>
			<point x="431" y="116"/>
			<point x="382" y="49"/>
		</contour>
		<contour>
			<point x="184" y="543" type="line"/>
			<point x="506" y="685" type="line"/>
			<point x="482" y="726" type="line"/>
			<point x="160" y="574" type="line"/>
		</contour>
	</outline>
</glyph>
<glyph name="oslash" format="2">
	<unicode hex="00F8"/>
	<advance width="610"/>
	<outline>
		<contour>
			<point x="547" y="488" type="line"/>
			<point x="510" y="520" type="line"/>
			<point x="63" y="20" type="line"/>
			<point x="100" y="-12" type="line"/>
		</contour>
		<contour>
			<point x="305" y="-12" type="curve" smooth="yes"/>
			<point x="442" y="-12"/>
			<point x="562" y="91"/>
			<point x="562" y="258" type="curve" smooth="yes"/>
			<point x="562" y="425"/>
			<point x="442" y="520"/>
			<point x="305" y="520" type="curve" smooth="yes"/>
			<point x="168" y="520"/>
			<point x="48" y="421"/>
			<point x="48" y="252" type="curve" smooth="yes"/>
			<point x="48" y="84"/>
			<point x="168" y="-12"/>
		</contour>
		<contour>
			<point x="305" y="44" type="curve" smooth="yes"/>
			<point x="207" y="44"/>
			<point x="149" y="113"/>
			<point x="149" y="256" type="curve" smooth="yes"/>
			<point x="149" y="395"/>
			<point x="207" y="464"/>
			<point x="305" y="464" type="curve" smooth="yes"/>
			<point x="403" y="464"/>
			<point x="460" y="395"/>
			<point x="460" y="252" type="curve" smooth="yes"/>
			<point x="460" y="113"/>
			<point x="403" y="44"/>
		</contour>
	</outline>
	<anchor name="aboveLC" x="305" y="528"/>
</glyph>
<glyph name="thorn" format="2">
	<unicode hex="00FE"/>
	<advance width="661"/>
	<outline>
		<contour>
			<point x="130" y="-225" type="curve"/>
			<point x="230" y="-225" type="line"/>
			<point x="230" y="-169"/>
			<point x="230" y="-114"/>
			<point x="230" y="-58" type="curve" smooth="yes"/>
			<point x="222" y="96" type="line"/>
			<point x="230" y="96" type="line"/>
			<point x="230" y="400" type="line"/>
			<point x="224" y="400" type="line"/>
			<point x="230" y="616" type="line"/>
			<point x="230" y="729" type="line"/>
			<point x="189" y="729" type="line"/>
			<point x="39" y="705" type="line"/>
			<point x="39" y="656" type="line"/>
			<point x="130" y="636" type="line"/>
			<point x="130" y="-43" type="line" smooth="yes"/>
			<point x="130" y="-103"/>
			<point x="130" y="-164"/>
		</contour>
		<contour>
			<point x="402" y="-12" type="curve" smooth="yes"/>
			<point x="522" y="-12"/>
			<point x="613" y="84"/>
			<point x="613" y="256" type="curve" smooth="yes"/>
			<point x="613" y="428"/>
			<point x="522" y="520"/>
			<point x="402" y="520" type="curve" smooth="yes"/>
			<point x="314" y="520"/>
			<point x="282" y="472"/>
			<point x="255" y="416" type="curve"/>
			<point x="198" y="416" type="line"/>
			<point x="198" y="329" type="line"/>
			<point x="253" y="403"/>
			<point x="297" y="446"/>
			<point x="367" y="446" type="curve" smooth="yes"/>
			<point x="446" y="446"/>
			<point x="505" y="387"/>
			<point x="505" y="252" type="curve" smooth="yes"/>
			<point x="505" y="117"/>
			<point x="446" y="58"/>
			<point x="367" y="58" type="curve" smooth="yes"/>
			<point x="297" y="58"/>
			<point x="253" y="101"/>
			<point x="198" y="175" type="curve"/>
			<point x="198" y="88" type="line"/>
			<point x="255" y="88" type="line"/>
			<point x="282" y="36"/>
			<point x="314" y="-12"/>
		</contour>
		<contour>
			<point x="47" y="-225" type="line"/>
			<point x="326" y="-225" type="line"/>
			<point x="326" y="-164" type="line"/>
			<point x="198" y="-164" type="line"/>
			<point x="163" y="-164" type="line"/>
			<point x="47" y="-164" type="line"/>
		</contour>
	</outline>
	<anchor name="aboveLC" x="180" y="739"/>
	<anchor name="belowLC" x="385" y="-20"/>
</glyph>
<glyph name="aogonek" format="2">
	<unicode hex="0105"/>
	<advance width="574"/>
	<outline>
		<contour>
			<point x="189" y="-16" type="curve" smooth="yes"/>
			<point x="279" y="-16"/>
			<point x="319" y="40"/>
			<point x="339" y="84" type="curve"/>
			<point x="380" y="84" type="line"/>
			<point x="380" y="147" type="line"/>
			<point x="337" y="101"/>
			<point x="297" y="58"/>
			<point x="235" y="58" type="curve" smooth="yes"/>
			<point x="179" y="58"/>
			<point x="147" y="94"/>
			<point x="147" y="141" type="curve" smooth="yes"/>
			<point x="147" y="189"/>
			<point x="171" y="215"/>
			<point x="242" y="237" type="curve" smooth="yes"/>
			<point x="293" y="252"/>
			<point x="344" y="268"/>
			<point x="395" y="284" type="curve"/>
			<point x="395" y="330" type="line"/>
			<point x="333" y="313"/>
			<point x="272" y="298"/>
			<point x="209" y="281" type="curve" smooth="yes"/>
			<point x="104" y="253"/>
			<point x="47" y="208"/>
			<point x="47" y="120" type="curve" smooth="yes"/>
			<point x="47" y="32"/>
			<point x="111" y="-16"/>
		</contour>
		<contour>
			<point x="455" y="-225" type="curve" smooth="yes"/>
			<point x="506" y="-225"/>
			<point x="534" y="-205"/>
			<point x="550" y="-189" type="curve"/>
			<point x="529" y="-150" type="line"/>
			<point x="515" y="-158"/>
			<point x="501" y="-164"/>
			<point x="479" y="-164" type="curve" smooth="yes"/>
			<point x="442" y="-164"/>
			<point x="418" y="-140"/>
			<point x="418" y="-106" type="curve" smooth="yes"/>
			<point x="418" y="-60"/>
			<point x="446" y="-35"/>
			<point x="509" y="-8" type="curve" smooth="yes"/>
			<point x="538" y="4"/>
			<point x="552" y="14"/>
			<point x="562" y="21" type="curve"/>
			<point x="550" y="70" type="line"/>
			<point x="541" y="66"/>
			<point x="527" y="62"/>
			<point x="511" y="62" type="curve" smooth="yes"/>
			<point x="479" y="62"/>
			<point x="463" y="78"/>
			<point x="463" y="117" type="curve" smooth="yes"/>
			<point x="463" y="348" type="line" smooth="yes"/>
			<point x="463" y="476"/>
			<point x="383" y="520"/>
			<point x="277" y="520" type="curve" smooth="yes"/>
			<point x="168" y="520"/>
			<point x="76" y="456"/>
			<point x="60" y="372" type="curve"/>
			<point x="64" y="352"/>
			<point x="80" y="328"/>
			<point x="116" y="328" type="curve" smooth="yes"/>
			<point x="153" y="328"/>
			<point x="174" y="348"/>
			<point x="178" y="397" type="curve" smooth="yes"/>
			<point x="186" y="493" type="line"/>
			<point x="157" y="444" type="line"/>
			<point x="180" y="456"/>
			<point x="209" y="464"/>
			<point x="248" y="464" type="curve" smooth="yes"/>
			<point x="323" y="464"/>
			<point x="363" y="428"/>
			<point x="363" y="341" type="curve" smooth="yes"/>
			<point x="363" y="107" type="line"/>
			<point x="367" y="107" type="line" smooth="yes"/>
			<point x="372" y="40"/>
			<point x="404" y="16"/>
			<point x="445" y="0" type="curve" smooth="yes"/>
			<point x="445" y="-10"/>
			<point x="445" y="-19"/>
			<point x="445" y="-29" type="curve"/>
			<point x="451" y="-16" type="line"/>
			<point x="382" y="-40"/>
			<point x="348" y="-77"/>
			<point x="348" y="-129" type="curve" smooth="yes"/>
			<point x="348" y="-189"/>
			<point x="392" y="-225"/>
		</contour>
	</outline>
	<anchor name="aboveLC" x="277" y="528"/>
	<anchor name="belowLC" x="287" y="-20"/>
</glyph>
<glyph name="dcroat" format="2">
	<unicode hex="0111"/>
	<advance width="661"/>
	<outline>
		<contour>
			<point x="284" y="556" type="line"/>
			<point x="629" y="556" type="line"/>
			<point x="629" y="599" type="line"/>
			<point x="284" y="599" type="line"/>
		</contour>
		<contour>
			<point x="156" y="252" type="curve" smooth="yes"/>
			<point x="156" y="386"/>
			<point x="215" y="442"/>
			<point x="294" y="442" type="curve" smooth="yes"/>
			<point x="364" y="442"/>
			<point x="408" y="399"/>
			<point x="463" y="325" type="curve"/>
			<point x="463" y="412" type="line"/>
			<point x="406" y="412" type="line"/>
			<point x="379" y="464"/>
			<point x="347" y="512"/>
			<point x="259" y="512" type="curve" smooth="yes"/>
			<point x="139" y="512"/>
			<point x="48" y="420"/>
			<point x="48" y="248" type="curve" smooth="yes"/>
			<point x="48" y="76"/>
			<point x="139" y="-12"/>
			<point x="259" y="-12" type="curve" smooth="yes"/>
			<point x="347" y="-12"/>
			<point x="379" y="36"/>
			<point x="406" y="92" type="curve"/>
			<point x="463" y="92" type="line"/>
			<point x="463" y="179" type="line"/>
			<point x="408" y="105"/>
			<point x="364" y="62"/>
			<point x="294" y="62" type="curve" smooth="yes"/>
			<point x="215" y="62"/>
			<point x="156" y="118"/>
		</contour>
		<contour>
			<point x="614" y="0" type="line"/>
			<point x="614" y="56" type="line"/>
			<point x="531" y="72" type="line"/>
			<point x="531" y="616" type="line"/>
			<point x="531" y="730" type="line"/>
			<point x="490" y="730" type="line"/>
			<point x="340" y="706" type="line"/>
			<point x="340" y="658" type="line"/>
			<point x="431" y="638" type="line"/>
			<point x="437" y="392" type="line"/>
			<point x="431" y="392" type="line"/>
			<point x="431" y="108" type="line"/>
			<point x="435" y="108" type="line"/>
			<point x="443" y="-4" type="line"/>
		</contour>
	</outline>
</glyph>
<glyph name="eogonek" format="2">
	<unicode hex="0119"/>
	<advance width="557"/>
	<outline>
		<contour>
			<point x="378" y="-224" type="curve" smooth="yes"/>
			<point x="429" y="-224"/>
			<point x="458" y="-204"/>
			<point x="474" y="-188" type="curve"/>
			<point x="452" y="-149" type="line"/>
			<point x="438" y="-157"/>
			<point x="424" y="-163"/>
			<point x="402" y="-163" type="curve" smooth="yes"/>
			<point x="366" y="-163"/>
			<point x="342" y="-139"/>
			<point x="342" y="-105" type="curve" smooth="yes"/>
			<point x="342" y="-63"/>
			<point x="358" y="-35"/>
			<point x="418" y="8" type="curve" smooth="yes"/>
			<point x="461" y="40"/>
			<point x="494" y="68"/>
			<point x="513" y="95" type="curve"/>
			<point x="468" y="142" type="line"/>
			<point x="434" y="101"/>
			<point x="394" y="62"/>
			<point x="317" y="62" type="curve" smooth="yes"/>
			<point x="219" y="62"/>
			<point x="152" y="133"/>
			<point x="152" y="255" type="curve" smooth="yes"/>
			<point x="152" y="377"/>
			<point x="207" y="462"/>
			<point x="293" y="462" type="curve" smooth="yes"/>
			<point x="364" y="462"/>
			<point x="403" y="416"/>
			<point x="403" y="333" type="curve" smooth="yes"/>
			<point x="403" y="317"/>
			<point x="401" y="303"/>
			<point x="399" y="296" type="curve" smooth="yes"/>
			<point x="120" y="288" type="line"/>
			<point x="120" y="244" type="line"/>
			<point x="494" y="236" type="line"/>
			<point x="498" y="252"/>
			<point x="502" y="284"/>
			<point x="502" y="312" type="curve" smooth="yes"/>
			<point x="502" y="448"/>
			<point x="429" y="520"/>
			<point x="292" y="520" type="curve" smooth="yes"/>
			<point x="148" y="520"/>
			<point x="48" y="401"/>
			<point x="48" y="246" type="curve" smooth="yes"/>
			<point x="48" y="94"/>
			<point x="137" y="-8"/>
			<point x="292" y="-8" type="curve" smooth="yes"/>
			<point x="312" y="-8"/>
			<point x="330" y="-6"/>
			<point x="340" y="-4" type="curve"/>
			<point x="344" y="-20" type="line"/>
			<point x="308" y="-40"/>
			<point x="271" y="-76"/>
			<point x="271" y="-128" type="curve" smooth="yes"/>
			<point x="271" y="-188"/>
			<point x="316" y="-224"/>
		</contour>
	</outline>
	<anchor name="aboveLC" x="278" y="544"/>
	<anchor name="belowLC" x="278" y="-23"/>
</glyph>
<glyph name="Hbar" format="2">
	<unicode hex="0126"/>
	<advance width="840"/>
	<outline>
		<contour>
			<point x="135" y="0" type="curve"/>
			<point x="247" y="0" type="line"/>
			<point x="247" y="104"/>
			<point x="247" y="207"/>
			<point x="247" y="311" type="curve" smooth="yes"/>
			<point x="247" y="332" type="line" smooth="yes"/>
			<point x="247" y="464"/>
			<point x="247" y="568"/>
			<point x="247" y="671" type="curve"/>
			<point x="135" y="671" type="line"/>
			<point x="135" y="568"/>
			<point x="135" y="464"/>
			<point x="135" y="360" type="curve" smooth="yes"/>
			<point x="135" y="311" type="line" smooth="yes"/>
			<point x="135" y="207"/>
			<point x="135" y="104"/>
		</contour>
		<contour>
			<point x="593" y="0" type="curve"/>
			<point x="705" y="0" type="line"/>
			<point x="705" y="104"/>
			<point x="705" y="207"/>
			<point x="705" y="311" type="curve" smooth="yes"/>
			<point x="705" y="360" type="line" smooth="yes"/>
			<point x="705" y="464"/>
			<point x="705" y="568"/>
			<point x="705" y="671" type="curve"/>
			<point x="593" y="671" type="line"/>
			<point x="593" y="568"/>
			<point x="593" y="464"/>
			<point x="593" y="332" type="curve" smooth="yes"/>
			<point x="593" y="311" type="line" smooth="yes"/>
			<point x="593" y="207"/>
			<point x="593" y="104"/>
		</contour>
		<contour>
			<point x="32" y="0" type="line"/>
			<point x="350" y="0" type="line"/>
			<point x="350" y="65" type="line"/>
			<point x="214" y="65" type="line"/>
			<point x="167" y="65" type="line"/>
			<point x="32" y="65" type="line"/>
		</contour>
		<contour>
			<point x="32" y="607" type="line"/>
			<point x="167" y="607" type="line"/>
			<point x="214" y="607" type="line"/>
			<point x="350" y="607" type="line"/>
			<point x="350" y="671" type="line"/>
			<point x="32" y="671" type="line"/>
		</contour>
		<contour>
			<point x="490" y="0" type="line"/>
			<point x="808" y="0" type="line"/>
			<point x="808" y="65" type="line"/>
			<point x="673" y="65" type="line"/>
			<point x="626" y="65" type="line"/>
			<point x="490" y="65" type="line"/>
		</contour>
		<contour>
			<point x="490" y="607" type="line"/>
			<point x="626" y="607" type="line"/>
			<point x="673" y="607" type="line"/>
			<point x="808" y="607" type="line"/>
			<point x="808" y="671" type="line"/>
			<point x="490" y="671" type="line"/>
		</contour>
		<contour>
			<point x="32" y="451" type="line"/>
			<point x="808" y="451" type="line"/>
			<point x="808" y="508" type="line"/>
			<point x="32" y="508" type="line"/>
		</contour>
		<contour>
			<point x="197" y="279" type="line"/>
			<point x="643" y="279" type="line"/>
			<point x="643" y="344" type="line"/>
			<point x="197" y="344" type="line"/>
		</contour>
	</outline>
</glyph>
<glyph name="hbar" format="2">
	<unicode hex="0127"/>
	<advance width="681"/>
	<outline>
		<contour>
			<point x="130" y="0" type="curve"/>
			<point x="230" y="0" type="line"/>
			<point x="230" y="65"/>
			<point x="230" y="132"/>
			<point x="230" y="197" type="curve" smooth="yes"/>
			<point x="230" y="368" type="line"/>
			<point x="230" y="370" type="line"/>
			<point x="230" y="615" type="line"/>
			<point x="230" y="730" type="line"/>
			<point x="189" y="730" type="line"/>
			<point x="39" y="706" type="line"/>
			<point x="39" y="658" type="line"/>
			<point x="130" y="638" type="line"/>
			<point x="130" y="197" type="line" smooth="yes"/>
			<point x="130" y="132"/>
			<point x="130" y="65"/>
		</contour>
		<contour>
			<point x="47" y="0" type="line"/>
			<point x="313" y="0" type="line"/>
			<point x="313" y="61" type="line"/>
			<point x="198" y="61" type="line"/>
			<point x="163" y="61" type="line"/>
			<point x="47" y="61" type="line"/>
		</contour>
		<contour>
			<point x="396" y="0" type="line"/>
			<point x="657" y="0" type="line"/>
			<point x="657" y="61" type="line"/>
			<point x="542" y="61" type="line"/>
			<point x="507" y="61" type="line"/>
			<point x="396" y="61" type="line"/>
		</contour>
		<contour>
			<point x="32" y="540" type="line"/>
			<point x="377" y="540" type="line"/>
			<point x="377" y="582" type="line"/>
			<point x="32" y="582" type="line"/>
		</contour>
		<contour>
			<point x="474" y="0" type="curve"/>
			<point x="574" y="0" type="line"/>
			<point x="574" y="65"/>
			<point x="574" y="131"/>
			<point x="574" y="196" type="curve" smooth="yes"/>
			<point x="574" y="328" type="line" smooth="yes"/>
			<point x="574" y="436"/>
			<point x="522" y="496"/>
			<point x="418" y="496" type="curve" smooth="yes"/>
			<point x="338" y="496"/>
			<point x="290" y="448"/>
			<point x="264" y="392" type="curve"/>
			<point x="214" y="392" type="line"/>
			<point x="214" y="343" type="line"/>
			<point x="269" y="382"/>
			<point x="328" y="410"/>
			<point x="383" y="410" type="curve" smooth="yes"/>
			<point x="446" y="410"/>
			<point x="474" y="378"/>
			<point x="474" y="303" type="curve" smooth="yes"/>
			<point x="474" y="196" type="line" smooth="yes"/>
			<point x="474" y="131"/>
			<point x="474" y="65"/>
		</contour>
	</outline>
</glyph>
<glyph name="dotlessi" format="2">
	<unicode hex="0131"/>
	<advance width="361"/>
	<outline>
		<contour>
			<point x="47" y="0" type="line"/>
			<point x="314" y="0" type="line"/>
			<point x="314" y="61" type="line"/>
			<point x="198" y="61" type="line"/>
			<point x="163" y="61" type="line"/>
			<point x="47" y="61" type="line"/>
		</contour>
		<contour>
			<point x="130" y="0" type="curve"/>
			<point x="231" y="0" type="line"/>
			<point x="231" y="73"/>
			<point x="231" y="147"/>
			<point x="231" y="220" type="curve" smooth="yes"/>
			<point x="231" y="399" type="line"/>
			<point x="231" y="508" type="line"/>
			<point x="190" y="508" type="line"/>
			<point x="43" y="468" type="line"/>
			<point x="43" y="415" type="line"/>
			<point x="130" y="415" type="line"/>
			<point x="130" y="368"/>
			<point x="130" y="323"/>
			<point x="130" y="276" type="curve" smooth="yes"/>
			<point x="130" y="220" type="line" smooth="yes"/>
			<point x="130" y="147"/>
			<point x="130" y="73"/>
		</contour>
	</outline>
	<anchor name="aboveLC" x="180" y="528"/>
	<anchor name="belowLC" x="180" y="-20"/>
	<anchor name="ogonek" x="225" y="0"/>
</glyph>
<glyph name="kgreenlandic" format="2">
	<unicode hex="0138"/>
	<advance width="650"/>
	<outline>
		<contour>
			<point x="47" y="0" type="line"/>
			<point x="313" y="0" type="line"/>
			<point x="313" y="61" type="line"/>
			<point x="198" y="61" type="line"/>
			<point x="163" y="61" type="line"/>
			<point x="47" y="61" type="line"/>
		</contour>
		<contour>
			<point x="130" y="0" type="curve"/>
			<point x="230" y="0" type="line"/>
			<point x="230" y="73"/>
			<point x="230" y="147"/>
			<point x="230" y="220" type="curve" smooth="yes"/>
			<point x="230" y="399" type="line"/>
			<point x="230" y="508" type="line"/>
			<point x="189" y="508" type="line"/>
			<point x="43" y="468" type="line"/>
			<point x="43" y="415" type="line"/>
			<point x="130" y="415" type="line"/>
			<point x="130" y="368"/>
			<point x="130" y="323"/>
			<point x="130" y="276" type="curve" smooth="yes"/>
			<point x="130" y="220" type="line" smooth="yes"/>
			<point x="130" y="147"/>
			<point x="130" y="73"/>
		</contour>
		<contour>
			<point x="209" y="148" type="line"/>
			<point x="599" y="508" type="line"/>
			<point x="509" y="508" type="line"/>
			<point x="247" y="241" type="line"/>
			<point x="209" y="241" type="line"/>
		</contour>
		<contour>
			<point x="467" y="0" type="line"/>
			<point x="630" y="0" type="line"/>
			<point x="630" y="57" type="line"/>
			<point x="529" y="66" type="line"/>
			<point x="557" y="54" type="line"/>
			<point x="368" y="346" type="line"/>
			<point x="306" y="280" type="line"/>
		</contour>
		<contour>
			<point x="477" y="443" type="line"/>
			<point x="494" y="443" type="line"/>
			<point x="626" y="452" type="line"/>
			<point x="626" y="508" type="line"/>
			<point x="353" y="508" type="line"/>
			<point x="353" y="452" type="line"/>
		</contour>
	</outline>
</glyph>
<glyph name="Lslash" format="2">
	<unicode hex="0141"/>
	<advance width="640"/>
	<outline>
		<contour>
			<point x="440" y="485" type="line"/>
			<point x="187" y="330" type="line"/>
			<point x="187" y="277" type="line"/>
			<point x="440" y="420" type="line"/>
		</contour>
		<contour>
			<point x="185" y="344" type="line"/>
			<point x="44" y="266" type="line"/>
			<point x="44" y="202" type="line"/>
			<point x="185" y="290" type="line"/>
		</contour>
		<component base="L"/>
	</outline>
</glyph>
<glyph name="lslash" format="2">
	<unicode hex="0142"/>
	<advance width="360"/>
	<outline>
		<contour>
			<point x="180" y="414" type="line"/>
			<point x="46" y="347" type="line"/>
			<point x="46" y="295" type="line"/>
			<point x="180" y="374" type="line"/>
		</contour>
		<contour>
			<point x="316" y="482" type="line"/>
			<point x="180" y="401" type="line"/>
			<point x="180" y="361" type="line"/>
			<point x="316" y="429" type="line"/>
		</contour>
		<component base="l"/>
	</outline>
</glyph>
<glyph name="Eng" format="2">
	<unicode hex="014A"/>
	<advance width="798"/>
	<outline>
		<contour>
			<point x="36" y="0" type="line"/>
			<point x="315" y="0" type="line"/>
			<point x="315" y="65" type="line"/>
			<point x="191" y="65" type="line"/>
			<point x="155" y="65" type="line"/>
			<point x="36" y="65" type="line"/>
		</contour>
		<contour>
			<point x="36" y="607" type="line"/>
			<point x="139" y="607" type="line"/>
			<point x="616" y="-8" type="line"/>
			<point x="644" y="-9" type="line"/>
			<point x="644" y="140" type="line"/>
			<point x="235" y="671" type="line"/>
			<point x="36" y="671" type="line"/>
		</contour>
		<contour>
			<point x="139" y="0" type="line"/>
			<point x="207" y="0" type="line"/>
			<point x="199" y="647" type="line"/>
			<point x="139" y="647" type="line"/>
		</contour>
		<contour>
			<point x="495" y="607" type="line"/>
			<point x="618" y="607" type="line"/>
			<point x="655" y="607" type="line"/>
			<point x="770" y="607" type="line"/>
			<point x="770" y="671" type="line"/>
			<point x="495" y="671" type="line"/>
		</contour>
		<contour>
			<point x="453" y="-166" type="curve" smooth="yes"/>
			<point x="526" y="-166"/>
			<point x="570" y="-138"/>
			<point x="603" y="-105" type="curve" smooth="yes"/>
			<point x="636" y="-71"/>
			<point x="671" y="-7"/>
			<point x="671" y="116" type="curve" smooth="yes"/>
			<point x="671" y="671" type="line"/>
			<point x="602" y="671" type="line"/>
			<point x="611" y="94" type="line"/>
			<point x="611" y="-8"/>
			<point x="573" y="-77"/>
			<point x="545" y="-114" type="curve"/>
			<point x="509" y="-114" type="line"/>
			<point x="525" y="-122" type="line"/>
			<point x="501" y="-101" type="line" smooth="yes"/>
			<point x="478" y="-81"/>
			<point x="453" y="-68"/>
			<point x="420" y="-68" type="curve" smooth="yes"/>
			<point x="379" y="-68"/>
			<point x="355" y="-88"/>
			<point x="347" y="-117" type="curve"/>
			<point x="355" y="-137"/>
			<point x="388" y="-166"/>
		</contour>
	</outline>
</glyph>
<glyph name="eng" format="2">
	<unicode hex="014B"/>
	<advance width="682"/>
	<outline>
		<contour>
			<point x="44" y="0" type="line"/>
			<point x="305" y="0" type="line"/>
			<point x="305" y="61" type="line"/>
			<point x="194" y="61" type="line"/>
			<point x="159" y="61" type="line"/>
			<point x="44" y="61" type="line"/>
		</contour>
		<contour>
			<point x="127" y="0" type="curve"/>
			<point x="227" y="0" type="line"/>
			<point x="227" y="73"/>
			<point x="227" y="155"/>
			<point x="227" y="220" type="curve" smooth="yes"/>
			<point x="227" y="408" type="line"/>
			<point x="219" y="408" type="line"/>
			<point x="203" y="508" type="line"/>
			<point x="162" y="508" type="line"/>
			<point x="40" y="468" type="line"/>
			<point x="40" y="415" type="line"/>
			<point x="127" y="415" type="line"/>
			<point x="127" y="368"/>
			<point x="127" y="323"/>
			<point x="127" y="276" type="curve" smooth="yes"/>
			<point x="127" y="220" type="line" smooth="yes"/>
			<point x="127" y="148"/>
			<point x="127" y="73"/>
		</contour>
		<contour>
			<point x="353" y="-224" type="curve" smooth="yes"/>
			<point x="441" y="-224"/>
			<point x="490" y="-188"/>
			<point x="522" y="-132" type="curve" smooth="yes"/>
			<point x="554" y="-77"/>
			<point x="571" y="-13"/>
			<point x="571" y="108" type="curve" smooth="yes"/>
			<point x="571" y="352" type="line" smooth="yes"/>
			<point x="571" y="460"/>
			<point x="519" y="520"/>
			<point x="415" y="520" type="curve" smooth="yes"/>
			<point x="334" y="520"/>
			<point x="283" y="472"/>
			<point x="251" y="416" type="curve"/>
			<point x="210" y="416" type="line"/>
			<point x="210" y="367" type="line"/>
			<point x="266" y="407"/>
			<point x="324" y="434"/>
			<point x="380" y="434" type="curve" smooth="yes"/>
			<point x="443" y="434"/>
			<point x="471" y="403"/>
			<point x="471" y="328" type="curve" smooth="yes"/>
			<point x="471" y="108" type="line" smooth="yes"/>
			<point x="471" y="-5"/>
			<point x="466" y="-68"/>
			<point x="461" y="-109" type="curve" smooth="yes"/>
			<point x="455" y="-148"/>
			<point x="451" y="-164"/>
			<point x="445" y="-180" type="curve"/>
			<point x="393" y="-180" type="line"/>
			<point x="428" y="-200" type="line"/>
			<point x="397" y="-159" type="line" smooth="yes"/>
			<point x="381" y="-138"/>
			<point x="356" y="-118"/>
			<point x="316" y="-118" type="curve" smooth="yes"/>
			<point x="272" y="-118"/>
			<point x="251" y="-142"/>
			<point x="243" y="-171" type="curve"/>
			<point x="251" y="-192"/>
			<point x="284" y="-224"/>
		</contour>
	</outline>
</glyph>
<glyph name="OE" format="2">
	<unicode hex="0152"/>
	<advance width="1004"/>
	<outline>
		<contour>
			<point x="164" y="336" type="curve" smooth="yes"/>
			<point x="164" y="500"/>
			<point x="243" y="622"/>
			<point x="390" y="622" type="curve" smooth="yes"/>
			<point x="457" y="622"/>
			<point x="496" y="607"/>
			<point x="528" y="587" type="curve"/>
			<point x="528" y="663" type="line"/>
			<point x="496" y="675"/>
			<point x="464" y="687"/>
			<point x="385" y="687" type="curve" smooth="yes"/>
			<point x="189" y="687"/>
			<point x="48" y="545"/>
			<point x="48" y="332" type="curve" smooth="yes"/>
			<point x="48" y="119"/>
			<point x="189" y="-16"/>
			<point x="385" y="-16" type="curve" smooth="yes"/>
			<point x="464" y="-16"/>
			<point x="496" y="-4"/>
			<point x="528" y="8" type="curve"/>
			<point x="528" y="84" type="line"/>
			<point x="496" y="64"/>
			<point x="457" y="49"/>
			<point x="390" y="49" type="curve" smooth="yes"/>
			<point x="243" y="49"/>
			<point x="164" y="172"/>
		</contour>
		<contour>
			<point x="495" y="0" type="curve"/>
			<point x="607" y="0" type="line"/>
			<point x="607" y="104"/>
			<point x="607" y="207"/>
			<point x="607" y="319" type="curve" smooth="yes"/>
			<point x="607" y="360" type="line" smooth="yes"/>
			<point x="607" y="464"/>
			<point x="607" y="568"/>
			<point x="607" y="671" type="curve"/>
			<point x="495" y="671" type="line"/>
			<point x="495" y="568"/>
			<point x="495" y="464"/>
			<point x="495" y="360" type="curve" smooth="yes"/>
			<point x="495" y="319" type="line" smooth="yes"/>
			<point x="495" y="207"/>
			<point x="495" y="104"/>
		</contour>
		<contour>
			<point x="752" y="224" type="line"/>
			<point x="813" y="224" type="line"/>
			<point x="813" y="459" type="line"/>
			<point x="752" y="459" type="line"/>
			<point x="728" y="356" type="line"/>
			<point x="728" y="328" type="line"/>
		</contour>
		<contour>
			<point x="552" y="311" type="line"/>
			<point x="780" y="311" type="line"/>
			<point x="780" y="372" type="line"/>
			<point x="552" y="372" type="line"/>
		</contour>
		<contour>
			<point x="871" y="488" type="line"/>
			<point x="936" y="488" type="line"/>
			<point x="928" y="671" type="line"/>
			<point x="546" y="671" type="line"/>
			<point x="546" y="607" type="line"/>
			<point x="841" y="607" type="line"/>
		</contour>
		<contour>
			<point x="892" y="192" type="line"/>
			<point x="862" y="64" type="line"/>
			<point x="547" y="64" type="line"/>
			<point x="547" y="0" type="line"/>
			<point x="949" y="0" type="line"/>
			<point x="957" y="192" type="line"/>
		</contour>
	</outline>
	<anchor name="aboveUC" x="553" y="699"/>
</glyph>
<glyph name="oe" format="2">
	<unicode hex="0153"/>
	<advance width="959"/>
	<outline>
		<contour>
			<point x="305" y="460" type="curve" smooth="yes"/>
			<point x="399" y="460"/>
			<point x="454" y="392"/>
			<point x="454" y="252" type="curve" smooth="yes"/>
			<point x="454" y="116"/>
			<point x="399" y="49"/>
			<point x="305" y="49" type="curve" smooth="yes"/>
			<point x="211" y="49"/>
			<point x="156" y="116"/>
			<point x="156" y="256" type="curve" smooth="yes"/>
			<point x="156" y="393"/>
			<point x="211" y="460"/>
		</contour>
		<contour>
			<point x="304" y="-12" type="curve" smooth="yes"/>
			<point x="423" y="-12"/>
			<point x="500" y="51"/>
			<point x="524" y="172" type="curve"/>
			<point x="487" y="172" type="line"/>
			<point x="512" y="51"/>
			<point x="588" y="-12"/>
			<point x="698" y="-12" type="curve" smooth="yes"/>
			<point x="812" y="-12"/>
			<point x="868" y="36"/>
			<point x="916" y="95" type="curve"/>
			<point x="870" y="142" type="line"/>
			<point x="836" y="101"/>
			<point x="796" y="60"/>
			<point x="719" y="60" type="curve" smooth="yes"/>
			<point x="621" y="60"/>
			<point x="554" y="133"/>
			<point x="554" y="255" type="curve" smooth="yes"/>
			<point x="554" y="377"/>
			<point x="609" y="462"/>
			<point x="695" y="462" type="curve" smooth="yes"/>
			<point x="766" y="462"/>
			<point x="807" y="416"/>
			<point x="807" y="334" type="curve" smooth="yes"/>
			<point x="807" y="317"/>
			<point x="805" y="303"/>
			<point x="803" y="296" type="curve" smooth="yes"/>
			<point x="522" y="288" type="line"/>
			<point x="522" y="244" type="line"/>
			<point x="896" y="236" type="line"/>
			<point x="900" y="252"/>
			<point x="904" y="284"/>
			<point x="904" y="312" type="curve" smooth="yes"/>
			<point x="904" y="448"/>
			<point x="832" y="520"/>
			<point x="695" y="520" type="curve" smooth="yes"/>
			<point x="592" y="520"/>
			<point x="512" y="458"/>
			<point x="487" y="336" type="curve"/>
			<point x="524" y="336" type="line"/>
			<point x="500" y="457"/>
			<point x="415" y="520"/>
			<point x="304" y="520" type="curve" smooth="yes"/>
			<point x="168" y="520"/>
			<point x="48" y="421"/>
			<point x="48" y="252" type="curve" smooth="yes"/>
			<point x="48" y="84"/>
			<point x="168" y="-12"/>
		</contour>
	</outline>
	<anchor name="aboveLC" x="500" y="544"/>
</glyph>
<glyph name="tbar" format="2">
	<unicode hex="0167"/>
	<advance width="392"/>
	<outline>
		<contour>
			<point x="26" y="251" type="line"/>
			<point x="361" y="251" type="line"/>
			<point x="361" y="297" type="line"/>
			<point x="26" y="297" type="line"/>
		</contour>
		<component base="t"/>
	</outline>
</glyph>
<glyph name="Uogonek" format="2">
	<unicode hex="0172"/>
	<advance width="788"/>
	<outline>
		<contour>
			<point x="503" y="-224" type="curve" smooth="yes"/>
			<point x="554" y="-224"/>
			<point x="583" y="-204"/>
			<point x="599" y="-188" type="curve"/>
			<point x="577" y="-149" type="line"/>
			<point x="563" y="-157"/>
			<point x="549" y="-163"/>
			<point x="527" y="-163" type="curve" smooth="yes"/>
			<point x="491" y="-163"/>
			<point x="467" y="-139"/>
			<point x="467" y="-107" type="curve" smooth="yes"/>
			<point x="467" y="-67"/>
			<point x="481" y="-35"/>
			<point x="536" y="4" type="curve" smooth="yes"/>
			<point x="609" y="56"/>
			<point x="665" y="124"/>
			<point x="665" y="260" type="curve" smooth="yes"/>
			<point x="665" y="671" type="line"/>
			<point x="596" y="671" type="line"/>
			<point x="596" y="264" type="line" smooth="yes"/>
			<point x="596" y="116"/>
			<point x="529" y="49"/>
			<point x="418" y="49" type="curve" smooth="yes"/>
			<point x="307" y="49"/>
			<point x="239" y="116"/>
			<point x="239" y="264" type="curve" smooth="yes"/>
			<point x="239" y="360" type="line" smooth="yes"/>
			<point x="239" y="464"/>
			<point x="239" y="568"/>
			<point x="239" y="671" type="curve"/>
			<point x="127" y="671" type="line"/>
			<point x="127" y="568"/>
			<point x="127" y="464"/>
			<point x="127" y="360" type="curve" smooth="yes"/>
			<point x="127" y="248" type="line" smooth="yes"/>
			<point x="127" y="75"/>
			<point x="231" y="-12"/>
			<point x="388" y="-12" type="curve" smooth="yes"/>
			<point x="427" y="-12"/>
			<point x="457" y="-4"/>
			<point x="473" y="4" type="curve"/>
			<point x="479" y="-9" type="line"/>
			<point x="431" y="-36"/>
			<point x="396" y="-72"/>
			<point x="396" y="-128" type="curve" smooth="yes"/>
			<point x="396" y="-188"/>
			<point x="440" y="-224"/>
		</contour>
		<contour>
			<point x="24" y="607" type="line"/>
			<point x="144" y="607" type="line"/>
			<point x="222" y="607" type="line"/>
			<point x="350" y="607" type="line"/>
			<point x="350" y="671" type="line"/>
			<point x="24" y="671" type="line"/>
		</contour>
		<contour>
			<point x="485" y="607" type="line"/>
			<point x="613" y="607" type="line"/>
			<point x="648" y="607" type="line"/>
			<point x="764" y="607" type="line"/>
			<point x="764" y="671" type="line"/>
			<point x="485" y="671" type="line"/>
		</contour>
	</outline>
	<anchor name="aboveUC" x="394" y="699"/>
	<anchor name="belowLC" x="394" y="-23"/>
	<anchor name="hornLC" x="584" y="728"/>
</glyph>
<glyph name="uogonek" format="2">
	<unicode hex="0173"/>
	<advance width="674"/>
	<outline>
		<contour>
			<point x="363" y="-129" type="curve" smooth="yes"/>
			<point x="363" y="-189"/>
			<point x="407" y="-225"/>
			<point x="469" y="-225" type="curve" smooth="yes"/>
			<point x="520" y="-225"/>
			<point x="549" y="-205"/>
			<point x="565" y="-189" type="curve"/>
			<point x="543" y="-150" type="line"/>
			<point x="529" y="-158"/>
			<point x="515" y="-164"/>
			<point x="493" y="-164" type="curve" smooth="yes"/>
			<point x="457" y="-164"/>
			<point x="433" y="-140"/>
			<point x="433" y="-108" type="curve" smooth="yes"/>
			<point x="433" y="-68"/>
			<point x="457" y="-35"/>
			<point x="500" y="12" type="curve"/>
			<point x="467" y="12" type="line"/>
			<point x="415" y="-20"/>
			<point x="363" y="-61"/>
		</contour>
		<component base="u"/>
	</outline>
	<anchor name="aboveLC" x="337" y="528"/>
	<anchor name="belowLC" x="337" y="-20"/>
</glyph>
<glyph name="longs" format="2">
	<unicode hex="017F"/>
	<advance width="377"/>
	<outline>
		<contour>
			<point x="47" y="0" type="line"/>
			<point x="329" y="0" type="line"/>
			<point x="329" y="61" type="line"/>
			<point x="214" y="61" type="line"/>
			<point x="147" y="61" type="line"/>
			<point x="47" y="61" type="line"/>
		</contour>
		<contour>
			<point x="130" y="0" type="curve"/>
			<point x="230" y="0" type="line"/>
			<point x="230" y="73"/>
			<point x="230" y="147"/>
			<point x="230" y="220" type="curve" smooth="yes"/>
			<point x="230" y="480" type="line" smooth="yes"/>
			<point x="230" y="563"/>
			<point x="239" y="617"/>
			<point x="259" y="661" type="curve" smooth="yes"/>
			<point x="265" y="674"/>
			<point x="273" y="687"/>
			<point x="281" y="699" type="curve"/>
			<point x="325" y="699" type="line"/>
			<point x="325" y="711" type="line"/>
			<point x="294" y="711" type="line"/>
			<point x="325" y="686" type="line" smooth="yes"/>
			<point x="357" y="661"/>
			<point x="381" y="641"/>
			<point x="421" y="641" type="curve" smooth="yes"/>
			<point x="462" y="641"/>
			<point x="478" y="673"/>
			<point x="482" y="698" type="curve"/>
			<point x="466" y="726"/>
			<point x="425" y="747"/>
			<point x="367" y="747" type="curve" smooth="yes"/>
			<point x="310" y="747"/>
			<point x="262" y="727"/>
			<point x="226" y="696" type="curve" smooth="yes"/>
			<point x="190" y="664"/>
			<point x="130" y="604"/>
			<point x="130" y="470" type="curve" smooth="yes"/>
			<point x="130" y="220" type="line" smooth="yes"/>
			<point x="130" y="147"/>
			<point x="130" y="73"/>
		</contour>
	</outline>
</glyph>
<glyph name="Schwa" format="2">
	<unicode hex="018F"/>
	<advance width="681"/>
	<outline>
		<contour>
			<point x="48" y="280" type="curve" smooth="yes"/>
			<point x="48" y="95"/>
			<point x="160" y="-16"/>
			<point x="333" y="-16" type="curve" smooth="yes"/>
			<point x="505" y="-16"/>
			<point x="633" y="119"/>
			<point x="633" y="348" type="curve" smooth="yes"/>
			<point x="633" y="568"/>
			<point x="512" y="685"/>
			<point x="320" y="685" type="curve" smooth="yes"/>
			<point x="205" y="685"/>
			<point x="132" y="637"/>
			<point x="80" y="569" type="curve"/>
			<point x="120" y="529" type="line"/>
			<point x="164" y="580"/>
			<point x="219" y="608"/>
			<point x="299" y="608" type="curve" smooth="yes"/>
			<point x="437" y="608"/>
			<point x="517" y="519"/>
			<point x="517" y="331" type="curve" smooth="yes"/>
			<point x="517" y="144"/>
			<point x="454" y="49"/>
			<point x="333" y="49" type="curve" smooth="yes"/>
			<point x="211" y="49"/>
			<point x="156" y="136"/>
			<point x="156" y="259" type="curve" smooth="yes"/>
			<point x="156" y="279"/>
			<point x="158" y="299"/>
			<point x="161" y="315" type="curve"/>
			<point x="552" y="315" type="line"/>
			<point x="552" y="372" type="line"/>
			<point x="56" y="372" type="line"/>
			<point x="52" y="356"/>
			<point x="48" y="320"/>
		</contour>
	</outline>
	<anchor name="aboveUC" x="341" y="689"/>
	<anchor name="belowLC" x="341" y="-20"/>
</glyph>
<glyph name="florin" format="2">
	<unicode hex="0192"/>
	<advance width="539"/>
	<outline>
		<contour>
			<point x="113" y="345" type="line"/>
			<point x="458" y="345" type="line"/>
			<point x="458" y="394" type="line"/>
			<point x="113" y="394" type="line"/>
		</contour>
		<contour>
			<point x="323" y="359" type="line" smooth="yes"/>
			<point x="335" y="504"/>
			<point x="350" y="564"/>
			<point x="362" y="587" type="curve" smooth="yes"/>
			<point x="373" y="611"/>
			<point x="381" y="619"/>
			<point x="389" y="627" type="curve"/>
			<point x="461" y="627" type="line"/>
			<point x="405" y="639" type="line"/>
			<point x="425" y="602" type="line" smooth="yes"/>
			<point x="440" y="573"/>
			<point x="457" y="560"/>
			<point x="487" y="560" type="curve" smooth="yes"/>
			<point x="518" y="560"/>
			<point x="535" y="585"/>
			<point x="539" y="606" type="curve"/>
			<point x="530" y="627"/>
			<point x="505" y="659"/>
			<point x="432" y="659" type="curve" smooth="yes"/>
			<point x="376" y="659"/>
			<point x="340" y="636"/>
			<point x="311" y="604" type="curve" smooth="yes"/>
			<point x="283" y="572"/>
			<point x="244" y="528"/>
			<point x="231" y="357" type="curve" smooth="yes"/>
			<point x="219" y="200" type="line" smooth="yes"/>
			<point x="208" y="55"/>
			<point x="192" y="-4"/>
			<point x="181" y="-28" type="curve" smooth="yes"/>
			<point x="169" y="-52"/>
			<point x="161" y="-60"/>
			<point x="153" y="-68" type="curve"/>
			<point x="81" y="-68" type="line"/>
			<point x="137" y="-80" type="line"/>
			<point x="118" y="-43" type="line" smooth="yes"/>
			<point x="102" y="-14"/>
			<point x="86" y="-1"/>
			<point x="55" y="-1" type="curve" smooth="yes"/>
			<point x="24" y="-1"/>
			<point x="8" y="-26"/>
			<point x="4" y="-47" type="curve"/>
			<point x="13" y="-68"/>
			<point x="38" y="-100"/>
			<point x="111" y="-100" type="curve" smooth="yes"/>
			<point x="167" y="-100"/>
			<point x="203" y="-76"/>
			<point x="231" y="-45" type="curve" smooth="yes"/>
			<point x="259" y="-13"/>
			<point x="298" y="31"/>
			<point x="312" y="202" type="curve" smooth="yes"/>
		</contour>
	</outline>
</glyph>
<glyph name="Uhorn" format="2">
	<unicode hex="01AF"/>
	<advance width="788"/>
	<outline>
		<contour>
			<point x="400" y="-16" type="curve" smooth="yes"/>
			<point x="569" y="-16"/>
			<point x="665" y="84"/>
			<point x="665" y="260" type="curve" smooth="yes"/>
			<point x="665" y="669" type="line"/>
			<point x="596" y="669" type="line"/>
			<point x="596" y="264" type="line" smooth="yes"/>
			<point x="596" y="116"/>
			<point x="529" y="49"/>
			<point x="418" y="49" type="curve" smooth="yes"/>
			<point x="307" y="49"/>
			<point x="239" y="116"/>
			<point x="239" y="264" type="curve" smooth="yes"/>
			<point x="239" y="360" type="line" smooth="yes"/>
			<point x="239" y="464"/>
			<point x="239" y="566"/>
			<point x="239" y="669" type="curve"/>
			<point x="127" y="669" type="line"/>
			<point x="127" y="566"/>
			<point x="127" y="464"/>
			<point x="127" y="360" type="curve" smooth="yes"/>
			<point x="127" y="248" type="line" smooth="yes"/>
			<point x="127" y="75"/>
			<point x="231" y="-16"/>
		</contour>
		<contour>
			<point x="648" y="605" type="line"/>
			<point x="732" y="620"/>
			<point x="765" y="669"/>
			<point x="765" y="749" type="curve" smooth="yes"/>
			<point x="765" y="781"/>
			<point x="760" y="811"/>
			<point x="753" y="822" type="curve"/>
			<point x="745" y="824"/>
			<point x="737" y="826"/>
			<point x="723" y="826" type="curve" smooth="yes"/>
			<point x="688" y="826"/>
			<point x="668" y="806"/>
			<point x="668" y="777" type="curve" smooth="yes"/>
			<point x="668" y="741"/>
			<point x="692" y="733"/>
			<point x="692" y="705" type="curve" smooth="yes"/>
			<point x="692" y="685"/>
			<point x="676" y="669"/>
			<point x="640" y="669" type="curve"/>
		</contour>
		<contour>
			<point x="24" y="605" type="line"/>
			<point x="144" y="605" type="line"/>
			<point x="222" y="605" type="line"/>
			<point x="350" y="605" type="line"/>
			<point x="350" y="669" type="line"/>
			<point x="24" y="669" type="line"/>
		</contour>
		<contour>
			<point x="485" y="605" type="line"/>
			<point x="612" y="605" type="line"/>
			<point x="628" y="605" type="line"/>
			<point x="628" y="669" type="line"/>
			<point x="485" y="669" type="line"/>
		</contour>
	</outline>
	<anchor name="aboveUC" x="402" y="689"/>
	<anchor name="belowLC" x="394" y="-20"/>
</glyph>
<glyph name="dotlessj" format="2">
	<unicode hex="0237"/>
	<advance width="329"/>
	<outline>
		<contour>
			<point x="-4" y="-224" type="curve" smooth="yes"/>
			<point x="85" y="-224"/>
			<point x="133" y="-188"/>
			<point x="166" y="-132" type="curve" smooth="yes"/>
			<point x="198" y="-77"/>
			<point x="215" y="-13"/>
			<point x="215" y="108" type="curve" smooth="yes"/>
			<point x="215" y="407" type="line"/>
			<point x="215" y="508" type="line"/>
			<point x="174" y="508" type="line"/>
			<point x="27" y="468" type="line"/>
			<point x="27" y="415" type="line"/>
			<point x="114" y="415" type="line"/>
			<point x="114" y="368"/>
			<point x="114" y="323"/>
			<point x="114" y="276" type="curve" smooth="yes"/>
			<point x="114" y="108" type="line" smooth="yes"/>
			<point x="114" y="-5"/>
			<point x="110" y="-68"/>
			<point x="104" y="-109" type="curve" smooth="yes"/>
			<point x="99" y="-148"/>
			<point x="95" y="-164"/>
			<point x="89" y="-180" type="curve"/>
			<point x="36" y="-180" type="line"/>
			<point x="72" y="-200" type="line"/>
			<point x="41" y="-159" type="line" smooth="yes"/>
			<point x="24" y="-138"/>
			<point x="0" y="-118"/>
			<point x="-40" y="-118" type="curve" smooth="yes"/>
			<point x="-85" y="-118"/>
			<point x="-105" y="-142"/>
			<point x="-113" y="-171" type="curve"/>
			<point x="-105" y="-192"/>
			<point x="-72" y="-224"/>
		</contour>
	</outline>
	<anchor name="aboveLC" x="164" y="544"/>
</glyph>
